<svg xmlns="http://www.w3.org/2000/svg" width="75" height="75" viewBox="0 0 75 75" fill="none">
  <path fill-rule="evenodd" clip-rule="evenodd" d="M62.7965 27.8863C64.4948 25.4137 67.211 25.0951 67.909 20.8897C67.919 20.8288 67.967 20.7836 68.0285 20.7776C68.0897 20.7716 68.1454 20.8058 68.1674 20.8631C70.1531 26.0146 68.2091 30.6403 62.7779 30.7952C62.7056 30.7973 62.648 30.856 62.6471 30.9283C62.6185 33.5371 62.3042 36.0869 61.6496 38.4985C61.6346 38.5538 61.6547 38.6101 61.7015 38.6434C61.7483 38.6767 61.808 38.6773 61.8554 38.6449C64.4674 36.862 67.1696 37.8046 69.5534 34.1233C69.5869 34.0714 69.649 34.0492 69.7076 34.0681C69.7661 34.087 69.8036 34.1405 69.8009 34.202C69.5678 39.7151 65.944 43.1812 60.9053 41.1641C60.8366 41.1367 60.7582 41.17 60.7306 41.2387C59.8045 43.5319 58.5206 45.6532 56.8262 47.5249C56.7877 47.5675 56.7802 47.6264 56.8066 47.6774C56.8331 47.7283 56.8858 47.7559 56.9428 47.7488C59.9531 47.3711 61.9828 49.244 65.632 46.9891C65.6845 46.9565 65.75 46.963 65.795 47.0053C65.8397 47.0474 65.8507 47.1119 65.822 47.1662C63.2489 52.0502 58.4867 53.6293 54.797 49.6421C54.7486 49.5898 54.6682 49.5842 54.613 49.6294C52.7662 51.142 50.5615 52.4221 47.9578 53.4104C47.4544 53.6015 46.9507 53.7802 46.4483 53.9536C46.3921 53.9731 46.3564 54.0242 46.3577 54.0838C46.3591 54.1433 46.397 54.193 46.454 54.2099C49.1684 55.015 50.47 57.2644 54.5162 56.4731C54.5768 56.4613 54.6358 56.4904 54.6631 56.5457C54.6901 56.6009 54.6775 56.6651 54.6316 56.7059C50.5016 60.3682 45.4892 60.1667 43.4425 55.1359C43.415 55.0684 43.3387 55.0349 43.2704 55.0606C41.8657 55.5883 40.4992 56.1998 39.2087 57.0661C39.1745 57.089 39.1543 57.1226 39.1499 57.1637C39.1456 57.2048 39.1583 57.2419 39.1871 57.2716C40.9075 59.0482 42.0104 61.2479 42.5777 63.7663C42.6997 64.3087 42.3589 64.8473 41.8165 64.9693C41.2741 65.0912 40.7354 64.7504 40.6135 64.208C40.1123 61.9834 39.143 60.0607 37.595 58.5242C37.5427 58.4723 37.4578 58.4723 37.4053 58.5242C35.8574 60.0607 34.8881 61.9834 34.3868 64.208C34.2649 64.7504 33.7262 65.0912 33.1838 64.9693C32.6414 64.8473 32.3006 64.3087 32.4226 63.7663C32.9899 61.2479 34.0927 59.0482 35.8132 57.2716C35.8418 57.2419 35.8547 57.2048 35.8504 57.1637C35.846 57.1226 35.8258 57.0892 35.7916 57.0661C34.5011 56.1998 33.1348 55.5883 31.73 55.0606C31.6618 55.0349 31.5854 55.0684 31.558 55.1359C29.5114 60.1666 24.499 60.3682 20.369 56.7059C20.323 56.6651 20.3104 56.6009 20.3375 56.5457C20.3647 56.4904 20.4236 56.4611 20.4842 56.4731C24.5305 57.2642 25.832 55.015 28.5463 54.2099C28.6033 54.193 28.6412 54.1433 28.6426 54.0838C28.6439 54.0244 28.6081 53.9731 28.5518 53.9536C28.0495 53.7802 27.5458 53.6015 27.0425 53.4104C24.439 52.4221 22.2341 51.142 20.3873 49.6294C20.3321 49.5842 20.2517 49.5898 20.2033 49.6421C16.5136 53.6294 11.7515 52.0502 9.17826 47.1662C9.14961 47.1118 9.16041 47.0474 9.20526 47.0053C9.25026 46.963 9.31581 46.9565 9.36831 46.9891C13.0175 49.2442 15.047 47.3711 18.0575 47.7488C18.1144 47.756 18.1672 47.7283 18.1937 47.6774C18.2203 47.6266 18.2126 47.5675 18.1741 47.5249C16.4797 45.6532 15.196 43.5319 14.2697 41.2387C14.242 41.1701 14.1635 41.1367 14.0948 41.1641C9.05631 43.1812 5.43246 39.7153 5.19936 34.202C5.19666 34.1405 5.23416 34.087 5.29266 34.0681C5.35146 34.0492 5.41341 34.0714 5.44701 34.1233C7.83081 37.8046 10.5331 36.862 13.145 38.6449C13.1924 38.6773 13.2523 38.6768 13.2991 38.6435C13.3459 38.6102 13.3658 38.5541 13.3508 38.4986C12.6962 36.0871 12.382 33.5372 12.3533 30.9283C12.3526 30.856 12.2948 30.7973 12.2225 30.7952C6.79131 30.6401 4.84731 26.0146 6.83301 20.8631C6.85506 20.8057 6.91086 20.7715 6.97206 20.7776C7.03356 20.7836 7.08141 20.8288 7.09146 20.8897C7.78941 25.0949 10.5055 25.4135 12.2038 27.8861C12.2368 27.9341 12.2938 27.9551 12.35 27.9398C12.4063 27.9245 12.4448 27.8776 12.4489 27.8195C12.6311 25.2542 13.0618 22.6627 13.6907 20.1173C13.6967 20.0927 13.6961 20.0704 13.6888 20.0462C12.6772 16.6961 13.721 12.2687 16.2581 10.0393C16.2898 10.0115 16.3283 10.0006 16.3699 10.0078C16.4113 10.015 16.4441 10.0381 16.4647 10.0747C18.0386 12.892 17.6576 17.1461 15.8131 19.9792C15.8048 19.9919 15.7993 20.0039 15.7955 20.0186C14.0842 26.5907 13.7335 33.49 15.7043 39.3119C17.5042 44.6288 21.2689 49.0634 27.7526 51.5248C31.1243 52.8047 34.3397 53.4913 37.4207 55.7474C37.4689 55.7827 37.5317 55.7827 37.5797 55.7474C40.6607 53.4913 43.8763 52.8046 47.2478 51.5248C53.7316 49.0634 57.4963 44.6288 59.2961 39.3119C61.267 33.49 60.9163 26.5907 59.2049 20.0186C59.2012 20.0039 59.1956 19.9919 59.1874 19.9792C57.3428 17.146 56.9617 12.892 58.5358 10.0747C58.5563 10.0379 58.589 10.0148 58.6306 10.0078C58.672 10.0006 58.7107 10.0115 58.7422 10.0393C61.2791 12.2687 62.3231 16.6961 61.3115 20.0462C61.3042 20.0704 61.3036 20.0929 61.3096 20.1173C61.9385 22.6627 62.3692 25.2542 62.5514 27.8195C62.5555 27.8776 62.594 27.9245 62.6503 27.9398C62.7064 27.9554 62.7634 27.9344 62.7965 27.8863ZM37.5001 15.4708C35.6726 15.4708 34.1912 16.9522 34.1912 18.7796C34.1912 20.6071 35.6726 22.0885 37.5001 22.0885C39.3275 22.0885 40.8089 20.6071 40.8089 18.7796C40.8089 16.9522 39.3275 15.4708 37.5001 15.4708ZM53.1077 30.0239L50.9881 24.9718C50.9666 24.9208 50.9194 24.8893 50.864 24.8893C50.8087 24.8893 50.7614 24.9208 50.74 24.9718L48.6203 30.0239C48.6023 30.0668 48.6067 30.1118 48.6323 30.1505C48.6581 30.1892 48.698 30.2105 48.7444 30.2105H52.9834C53.0299 30.2105 53.0698 30.1892 53.0954 30.1505C53.1214 30.1118 53.1257 30.0667 53.1077 30.0239ZM47.5657 34.8943C50.4788 38.0695 55.228 36.0025 55.7062 31.3228C55.724 31.148 55.6964 30.9853 55.6337 30.8303L55.6352 30.8297L51.7949 21.676C51.2738 20.434 47.9357 20.9201 44.8682 21.6787C42.5656 22.2481 40.4156 22.9711 39.7244 23.2318C38.2328 23.7944 36.7675 23.7943 35.2759 23.2318C33.9581 22.7348 24.5528 19.5017 23.6407 21.676L19.8004 30.8297L19.8019 30.8303C19.739 30.985 19.7116 31.1483 19.7294 31.3228C20.2075 36.0022 24.9566 38.0695 27.8699 34.8943C28.6856 34.0052 29.2475 32.7805 29.4047 31.4062C29.4049 31.4047 29.405 31.4033 29.4053 31.4018C29.4383 31.1782 29.4232 31.0118 29.3306 30.8008C29.3303 30.8 29.33 30.7994 29.3297 30.7988L25.7768 22.3301C25.7539 22.2755 25.7681 22.2149 25.813 22.1762C25.8578 22.1375 25.9198 22.1321 25.9705 22.1627C27.6332 23.164 29.0623 24.3866 30.2561 25.8313C33.2363 29.4376 33.956 33.1886 34.5473 37.6862C34.8011 39.6172 34.9513 47.2643 34.9759 49.3654C34.9763 49.4023 34.9898 49.4338 35.0161 49.4596L37.4059 51.8095C37.4582 51.8609 37.5424 51.8609 37.5946 51.8095L39.9844 49.4596C40.0106 49.4338 40.0241 49.4021 40.0246 49.3652C40.049 47.2643 40.1992 39.617 40.4531 37.6862C41.0446 33.1886 41.7641 29.4377 44.7445 25.8313C46.0747 24.2216 47.6966 22.8878 49.6087 21.8284C49.6597 21.8 49.7203 21.8069 49.7638 21.8459C49.8073 21.8849 49.8206 21.9443 49.798 21.9982L46.1059 30.7988C46.1056 30.7996 46.1053 30.8002 46.105 30.8008C46.0126 31.0117 45.9971 31.1783 46.0303 31.4018C46.0306 31.4033 46.0307 31.4047 46.0309 31.4062C46.1882 32.7805 46.75 34.0052 47.5657 34.8943ZM22.4519 30.2105H26.6909C26.7374 30.2105 26.7773 30.1892 26.803 30.1505C26.8288 30.1118 26.833 30.0668 26.815 30.0239L24.6955 24.9718C24.674 24.9208 24.6268 24.8893 24.5714 24.8893C24.5161 24.8893 24.4688 24.9208 24.4474 24.9718L22.3279 30.0239C22.3099 30.0668 22.3142 30.1118 22.3399 30.1505C22.3655 30.1891 22.4054 30.2105 22.4519 30.2105Z" fill="#9FCF67"/>
</svg>