<svg xmlns="http://www.w3.org/2000/svg" width="19" height="9" viewBox="0 0 19 9" fill="none">
  <path d="M18.3678 5.01377L14.5746 8.78865C14.2905 9.07139 13.831 9.07034 13.5482 8.78618C13.2654 8.50207 13.2665 8.04252 13.5506 7.75975L16.0969 5.22581L0.725807 5.22581C0.324944 5.22581 7.16716e-07 4.90086 7.86805e-07 4.5C8.56894e-07 4.09914 0.324945 3.77419 0.725808 3.77419L16.0968 3.7742L13.5506 1.24026C13.2665 0.957485 13.2654 0.497939 13.5482 0.213822C13.831 -0.0703673 14.2906 -0.0713466 14.5747 0.211355L18.3672 3.98555C18.6514 4.26927 18.6512 4.73099 18.3678 5.01377Z" fill="white"/>
</svg>