<svg xmlns="http://www.w3.org/2000/svg" width="40" height="40" viewBox="0 0 40 40" fill="none">
  <path d="M18.333 3.75C26.3871 3.75 32.9168 10.279 32.917 18.333C32.917 21.9101 31.6277 25.1854 29.4902 27.7227L34.2168 32.4492C34.705 32.9374 34.705 33.7286 34.2168 34.2168C33.7286 34.705 32.9374 34.705 32.4492 34.2168L27.7227 29.4902C25.1854 31.6277 21.9101 32.917 18.333 32.917C10.279 32.9168 3.75 26.3871 3.75 18.333C3.75018 10.2791 10.2791 3.75018 18.333 3.75ZM18.333 6.25C11.6598 6.25018 6.25018 11.6598 6.25 18.333C6.25 25.0063 11.6597 30.4168 18.333 30.417C25.0064 30.417 30.417 25.0064 30.417 18.333C30.4168 11.6597 25.0063 6.25 18.333 6.25Z" fill="#0FAEDD"/>
</svg>