<svg xmlns="http://www.w3.org/2000/svg" width="19" height="19" viewBox="0 0 19 19" fill="none">
  <path d="M1.58325 7.12492C1.58325 6.03625 1.58325 5.49192 1.78951 5.07367C1.98423 4.67881 2.30381 4.35923 2.69867 4.16451C3.11692 3.95825 3.66125 3.95825 4.74992 3.95825H14.2499C15.3386 3.95825 15.8829 3.95825 16.3012 4.16451C16.696 4.35923 17.0156 4.67881 17.2103 5.07367C17.4166 5.49192 17.4166 6.03625 17.4166 7.12492C17.4166 7.39709 17.4166 7.53317 17.365 7.63773C17.3163 7.73645 17.2364 7.81634 17.1377 7.86502C17.0332 7.91658 16.8971 7.91658 16.6249 7.91658H2.37492C2.10275 7.91658 1.96667 7.91658 1.86211 7.86502C1.76339 7.81634 1.6835 7.73645 1.63482 7.63773C1.58325 7.53317 1.58325 7.39709 1.58325 7.12492Z" fill="white"/>
  <path d="M16.417 9.5C16.8882 9.5 17.1241 9.50007 17.2705 9.64648C17.4168 9.79294 17.417 10.0288 17.417 10.5V13.417C17.417 15.3024 17.4168 16.2453 16.8311 16.8311C16.2453 17.4168 15.3024 17.417 13.417 17.417H5.58301C3.69761 17.417 2.7547 17.4168 2.16895 16.8311C1.58319 16.2453 1.58301 15.3024 1.58301 13.417V10.5C1.58301 10.0288 1.58321 9.79294 1.72949 9.64648C1.87591 9.50007 2.11182 9.5 2.58301 9.5H16.417ZM6.33301 14.25C6.06106 14.25 5.92483 14.2502 5.82031 14.3018C5.72171 14.3505 5.64141 14.4307 5.59277 14.5293C5.54147 14.6338 5.54199 14.7703 5.54199 15.042C5.54199 15.3139 5.54124 15.4502 5.59277 15.5547C5.64145 15.6534 5.7216 15.7335 5.82031 15.7822C5.92483 15.8338 6.06107 15.833 6.33301 15.833H7.91699C8.18893 15.833 8.32517 15.8338 8.42969 15.7822C8.5284 15.7335 8.60855 15.6534 8.65723 15.5547C8.70876 15.4502 8.70801 15.3139 8.70801 15.042C8.70801 14.7703 8.70853 14.6338 8.65723 14.5293C8.60859 14.4307 8.52829 14.3505 8.42969 14.3018C8.32517 14.2502 8.18894 14.25 7.91699 14.25H6.33301ZM11.083 14.25C10.8111 14.25 10.6748 14.2502 10.5703 14.3018C10.4717 14.3505 10.3914 14.4307 10.3428 14.5293C10.2915 14.6338 10.292 14.7703 10.292 15.042C10.292 15.3139 10.2912 15.4502 10.3428 15.5547C10.3915 15.6534 10.4716 15.7335 10.5703 15.7822C10.6748 15.8338 10.8111 15.833 11.083 15.833H12.667C12.9389 15.833 13.0752 15.8338 13.1797 15.7822C13.2784 15.7335 13.3585 15.6534 13.4072 15.5547C13.4588 15.4502 13.458 15.3139 13.458 15.042C13.458 14.7703 13.4585 14.6338 13.4072 14.5293C13.3586 14.4307 13.2783 14.3505 13.1797 14.3018C13.0752 14.2502 12.9389 14.25 12.667 14.25H11.083ZM6.33301 11.083C6.06106 11.083 5.92483 11.0832 5.82031 11.1348C5.72165 11.1835 5.64144 11.2636 5.59277 11.3623C5.54134 11.4668 5.54199 11.6031 5.54199 11.875C5.54199 12.1469 5.54134 12.2832 5.59277 12.3877C5.64144 12.4864 5.72165 12.5665 5.82031 12.6152C5.92483 12.6668 6.06106 12.667 6.33301 12.667H7.91699C8.18894 12.667 8.32517 12.6668 8.42969 12.6152C8.52835 12.5665 8.60856 12.4864 8.65723 12.3877C8.70865 12.2832 8.70801 12.1469 8.70801 11.875C8.70801 11.6031 8.70865 11.4668 8.65723 11.3623C8.60856 11.2636 8.52835 11.1835 8.42969 11.1348C8.32517 11.0832 8.18894 11.083 7.91699 11.083H6.33301ZM11.083 11.083C10.8111 11.083 10.6748 11.0832 10.5703 11.1348C10.4717 11.1835 10.3914 11.2636 10.3428 11.3623C10.2913 11.4668 10.292 11.6031 10.292 11.875C10.292 12.1469 10.2913 12.2832 10.3428 12.3877C10.3914 12.4864 10.4717 12.5665 10.5703 12.6152C10.6748 12.6668 10.8111 12.667 11.083 12.667H12.667C12.9389 12.667 13.0752 12.6668 13.1797 12.6152C13.2783 12.5665 13.3586 12.4864 13.4072 12.3877C13.4587 12.2832 13.458 12.1469 13.458 11.875C13.458 11.6031 13.4587 11.4668 13.4072 11.3623C13.3586 11.2636 13.2783 11.1835 13.1797 11.1348C13.0752 11.0832 12.9389 11.083 12.667 11.083H11.083Z" fill="white"/>
  <path d="M5.54175 2.375L5.54175 4.75" stroke="white" stroke-width="2" stroke-linecap="round"/>
  <path d="M13.4583 2.375L13.4583 4.75" stroke="white" stroke-width="2" stroke-linecap="round"/>
</svg>