<svg xmlns="http://www.w3.org/2000/svg" width="14" height="14" viewBox="0 0 14 14" fill="none">
  <path d="M12.3369 0.208946C12.6154 -0.0693982 13.0671 -0.0692523 13.3457 0.208946C13.6243 0.487545 13.6243 0.940125 13.3457 1.21871L7.78613 6.77731L13.3457 12.3369C13.6243 12.6155 13.6243 13.0671 13.3457 13.3457C13.0671 13.6241 12.6155 13.6242 12.3369 13.3457L6.77734 7.78609L1.21875 13.3457C0.940147 13.6241 0.487522 13.6242 0.208984 13.3457C-0.0691527 13.0671 -0.0691755 12.6154 0.208984 12.3369L5.76758 6.77731L0.208984 1.21871C-0.0695509 0.940177 -0.069428 0.487558 0.208984 0.208946C0.487581 -0.0696506 0.940153 -0.0696506 1.21875 0.208946L6.77734 5.76754L12.3369 0.208946Z" fill="#273B4A"/>
</svg>