<svg xmlns="http://www.w3.org/2000/svg" width="64" height="64" viewBox="0 0 64 64" fill="none">
  <path fill-rule="evenodd" clip-rule="evenodd" d="M49.4272 10.2084C51.1125 10.2084 52.4785 11.5745 52.4785 13.2596C52.4785 14.9448 51.1123 16.3109 49.4272 16.3109C47.7421 16.3109 46.376 14.9448 46.376 13.2596C46.3758 11.5745 47.742 10.2084 49.4272 10.2084ZM32.0201 24.317C31.7559 24.317 31.5478 24.4045 31.4015 24.635C29.2013 28.0997 27.448 30.4252 27.4691 35.0368C27.4881 39.1913 29.2122 45.4098 30.2451 49.9169C30.3802 50.5066 30.0213 51.0978 29.4357 51.2499L29.2543 51.297C28.7547 51.4268 28.2478 51.2104 27.9962 50.7598L23.1941 42.1657C23.1324 42.0554 22.9626 42.1135 22.9815 42.2386L24.236 50.5038C24.3455 51.2243 23.8231 51.8766 23.0962 51.9275L22.8903 51.942C22.3464 51.9801 21.8609 51.6781 21.6549 51.1734C19.3477 45.5227 17.4631 39.7592 15.8924 33.9122C15.68 33.1215 15.3819 32.4772 14.917 31.8034C12.6208 28.4756 10.4643 24.9974 8.44354 21.3729C8.09628 20.7502 8.28533 19.9699 8.879 19.5752L8.98088 19.5074C9.59887 19.0964 10.4352 19.2573 10.8566 19.8684C11.9236 21.4154 13.0937 22.8687 14.3637 24.231C16.0423 26.0315 17.8357 27.9057 20.3995 28.2569C23.3576 28.6623 24.36 27.5087 26.2051 25.6636C31.4563 20.4124 32.5435 20.4124 37.7947 25.6636C39.6398 27.5087 40.6422 28.6623 43.6003 28.2569C46.1641 27.9057 47.9574 26.0315 49.6361 24.231C50.9063 22.8687 52.0763 21.4154 53.1432 19.8684C53.5646 19.2575 54.4009 19.0966 55.0189 19.5074L55.1208 19.5752C55.7145 19.9699 55.9035 20.7502 55.5562 21.3729C53.5355 24.9972 51.379 28.4755 49.0828 31.8034C48.6179 32.4772 48.3198 33.1215 48.1074 33.9122C46.5367 39.7592 44.6521 45.5227 42.3448 51.1734C42.1388 51.6781 41.6533 51.9801 41.1095 51.942L40.9036 51.9275C40.1767 51.8765 39.6543 51.2242 39.7637 50.5038L41.0183 42.2386C41.0372 42.1135 40.8673 42.0554 40.8057 42.1657L36.0036 50.7598C35.752 51.2104 35.2451 51.4268 34.7455 51.297L34.5641 51.2499C33.9785 51.0978 33.6196 50.5067 33.7546 49.9169C34.7876 45.4098 36.5116 39.1913 36.5307 35.0368C36.552 30.4252 34.7985 28.0997 32.5983 24.635C32.4691 24.4311 32.2615 24.317 32.0201 24.317ZM12.4417 39.5151L13.1817 38.7268C13.5244 38.362 13.5219 37.852 13.193 37.5176C12.8627 37.1818 12.323 37.1767 11.9866 37.506L11.1534 38.3872C10.8519 38.7057 10.8667 39.2761 11.2352 39.597C11.5914 39.9069 12.1311 39.8701 12.4417 39.5151ZM10.5008 42.6834L10.8746 41.8285C11.0756 41.3643 10.9097 40.8906 10.4874 40.6821C10.065 40.4737 9.55394 40.6465 9.34428 41.0679L8.90383 42.0753C8.73192 42.4726 8.94197 43.0062 9.40098 43.1791C9.84168 43.345 10.3335 43.1231 10.5008 42.6834ZM9.97967 45.9793L9.97954 45.1086C9.97954 44.6003 9.64495 44.2317 9.17314 44.2058C8.703 44.1801 8.30082 44.5394 8.2733 45.0089L8.27304 46.0662C8.27304 46.4927 8.67983 46.903 9.17314 46.876C9.64328 46.8503 10.0037 46.449 9.97967 45.9793ZM10.8767 49.258L10.5028 48.4038C10.2998 47.9393 9.84232 47.7367 9.40098 47.903C8.96028 48.0689 8.73717 48.5601 8.9014 49.0009L9.34184 50.0091C9.51285 50.4041 10.0465 50.6175 10.4873 50.4C10.9097 50.1915 11.0837 49.6808 10.8767 49.258ZM13.1848 52.3583L12.4444 51.5699C12.0965 51.2048 11.5905 51.1759 11.2353 51.485C10.8794 51.7949 10.8414 52.3344 11.1502 52.6911L11.9835 53.5727C12.287 53.8943 12.8529 53.9103 13.193 53.5644C13.5232 53.2287 13.5193 52.6891 13.1848 52.3583ZM16.8086 55.0496C17.2176 55.2847 17.3591 55.8067 17.1248 56.2163C16.8846 56.6361 16.3364 56.7675 15.9553 56.5331L14.7999 55.825C14.4055 55.5659 14.2952 55.0364 14.5536 54.6414C14.8105 54.2488 15.3193 54.1355 15.7392 54.3944L16.8086 55.0496ZM21.5103 57.1062C21.9583 57.2527 22.2032 57.7345 22.0574 58.183C21.9088 58.6401 21.4046 58.882 20.9783 58.7311L19.5762 58.2359C19.1354 58.0673 18.9142 57.5734 19.0823 57.1321C19.2493 56.6935 19.7267 56.4728 20.1872 56.6373L21.5103 57.1062ZM26.9617 58.3562C27.4284 58.4234 27.7527 58.8559 27.6863 59.323C27.6199 59.7901 27.1875 60.1151 26.7204 60.0493L25.1653 59.7928C24.702 59.7074 24.3953 59.2627 24.4803 58.7992C24.5657 58.3328 25.0102 58.0312 25.4746 58.1134L26.9617 58.3562ZM32.7713 58.7021C33.2419 58.6936 33.6306 59.0679 33.6398 59.5385C33.6492 60.0159 33.2584 60.4086 32.8019 60.4086H31.1957C30.725 60.3988 30.351 60.0095 30.3602 59.5387C30.3694 59.0706 30.7442 58.7022 31.2307 58.7022L32.7713 58.7021ZM38.5275 58.1129C38.9907 58.0288 39.435 58.3357 39.5199 58.7991C39.6041 59.2585 39.2965 59.7144 38.8327 59.793L37.2798 60.0491C36.8127 60.1149 36.3804 59.7901 36.3139 59.3229C36.246 58.8457 36.5749 58.4343 37.0405 58.3558L38.5275 58.1129ZM43.8152 56.6365C44.2564 56.4695 44.7498 56.6912 44.9178 57.1323C45.0838 57.5682 44.864 58.0776 44.421 58.2369L43.0188 58.7321C42.5701 58.8773 42.0885 58.6315 41.9427 58.183C41.7978 57.7372 42.0279 57.2705 42.4924 57.1053L43.8152 56.6365ZM48.2636 54.3927C48.6588 54.1353 49.1881 54.2465 49.4464 54.6414C49.7112 55.0461 49.5789 55.5942 49.1971 55.8269L48.0415 56.535C47.6315 56.7685 47.1095 56.626 46.8752 56.2164C46.6421 55.809 46.7711 55.3089 47.194 55.048L48.2636 54.3927ZM51.5583 51.567L50.8183 52.3552C50.4757 52.72 50.4781 53.2299 50.8071 53.5644C51.1373 53.9001 51.6771 53.9051 52.0135 53.5759L52.8466 52.6949C53.1483 52.3764 53.1333 51.8059 52.7648 51.485C52.4086 51.1752 51.8689 51.2119 51.5583 51.567ZM53.4993 48.3987L53.1254 49.2536C52.9244 49.7177 53.0903 50.1915 53.5126 50.4C53.935 50.6084 54.4461 50.4356 54.6558 50.0142L55.0962 49.0068C55.2681 48.6095 55.0581 48.0759 54.5991 47.903C54.1584 47.7371 53.6666 47.9589 53.4993 48.3987ZM54.0204 45.1028L54.0205 45.9734C54.0205 46.4816 54.3551 46.8503 54.8269 46.8761C55.297 46.9019 55.6992 46.5426 55.7267 46.0731L55.7269 45.0158C55.7269 44.5893 55.3201 44.1789 54.8268 44.2059C54.3568 44.2317 53.9963 44.6329 54.0204 45.1028ZM53.1233 41.824L53.4972 42.6781C53.7002 43.1426 54.1577 43.3453 54.5991 43.179C55.0398 43.013 55.2629 42.5218 55.0986 42.081L54.6582 41.0729C54.4872 40.6779 53.9536 40.4645 53.5127 40.682C53.0903 40.8906 52.9164 41.4013 53.1233 41.824ZM50.8152 38.7238L51.5556 39.5122C51.9035 39.8772 52.4095 39.9062 52.7646 39.597C53.1205 39.2872 53.1585 38.7476 52.8497 38.391L52.0164 37.5094C51.7129 37.1878 51.147 37.1718 50.8069 37.5177C50.4768 37.8533 50.4808 38.3929 50.8152 38.7238ZM32 3.5918C33.6853 3.5918 35.0513 4.95794 35.0513 6.64306C35.0513 8.32831 33.6851 9.69432 32 9.69432C30.3149 9.69432 28.9488 8.32818 28.9488 6.64306C28.9488 4.95794 30.3149 3.5918 32 3.5918ZM21.0779 20.9723C19.3927 20.9723 18.0266 22.3384 18.0266 24.0235C18.0266 25.7088 19.3928 27.0748 21.0779 27.0748C22.7632 27.0748 24.1292 25.7087 24.1292 24.0235C24.1292 22.3384 22.763 20.9723 21.0779 20.9723ZM42.8822 21.0579C41.1969 21.0579 39.8309 22.4241 39.8309 24.1092C39.8309 25.7943 41.1971 27.1604 42.8822 27.1604C44.5673 27.1604 45.9335 25.7943 45.9335 24.1092C45.9335 22.4241 44.5674 21.0579 42.8822 21.0579ZM40.6265 3.6636C40.0577 3.4812 39.4544 3.71954 39.1637 4.24127C37.8926 6.52325 36.4347 8.35148 34.7786 9.69855C33.1428 11.0292 30.8572 11.0292 29.2214 9.69855C27.5655 8.35148 26.1074 6.52312 24.8364 4.24127C24.3085 3.29356 22.9264 3.46674 22.5363 4.38322C21.8144 6.08012 20.9928 9.1708 19.7674 11.8258C18.4659 14.6455 18.1351 16.5814 14.7228 17.3627C13.5675 17.6273 12.2787 17.6576 10.9008 17.5318C10.6101 17.5053 10.6847 17.7172 10.7716 17.7482C11.3587 17.9575 11.8876 18.3458 12.2669 18.8956C13.4878 20.6657 14.7219 22.134 16.1847 23.6697C16.25 23.7384 16.3652 23.7024 16.3801 23.6089C16.7941 21.0117 19.2723 19.2183 21.9017 19.6795C21.9666 19.6909 22.027 19.6461 22.0348 19.5807C22.4553 16.0706 23.258 12.6931 24.1939 9.14904C24.2208 9.04741 24.3606 9.03346 24.4068 9.12792C25.9045 12.1794 27.3763 15.4214 27.9114 18.167C28.0796 19.0299 28.2111 19.9357 28.312 20.8767C28.3219 20.9697 28.4329 21.012 28.5022 20.9491C28.9774 20.5183 30.4128 19.796 31.9999 19.7782C33.3465 19.7632 34.8466 20.3633 35.4989 20.9449C35.5684 21.0068 35.6785 20.9645 35.6885 20.8719C35.7893 19.9325 35.9205 19.0283 36.0885 18.167C36.6236 15.4213 38.0955 12.1794 39.5931 9.12792C39.6394 9.03346 39.7792 9.04741 39.806 9.14904C40.7404 12.687 41.5419 16.059 41.9629 19.5624C41.9707 19.6271 42.0298 19.6717 42.0942 19.6614C44.7276 19.2406 47.1758 21.0634 47.5601 23.6609C47.574 23.755 47.6897 23.7919 47.7554 23.7231C49.0837 22.3351 51.8815 18.2306 53.2074 17.7486C53.3024 17.714 53.3495 17.5087 53.0989 17.5316C51.7211 17.6575 50.4323 17.6271 49.2768 17.3625C45.8645 16.5812 45.5336 14.6455 44.2322 11.8257C43.0071 9.17132 42.1849 6.07909 41.4633 4.38309C41.2935 3.98335 41.0224 3.79071 40.6265 3.6636ZM14.8298 10.2598C16.5151 10.2598 17.8811 11.626 17.8811 13.3111C17.8811 14.9963 16.515 16.3624 14.8298 16.3624C13.1447 16.3624 11.7786 14.9962 11.7786 13.3111C11.7785 11.626 13.1446 10.2598 14.8298 10.2598Z" fill="#0397D6"/>
</svg>