<svg xmlns="http://www.w3.org/2000/svg" width="72" height="72" viewBox="0 0 72 72" fill="none">
  <path d="M67.2863 56.5311C66.8925 54.9111 65.3738 53.8536 63.765 53.9661L60.6713 45.7311C60.5588 45.4386 60.3338 45.2023 60.0525 45.0898C59.7713 44.9661 59.445 44.9773 59.1638 45.1011L36.7425 55.1923C36.495 55.1586 36.2475 55.1248 36 55.1248C35.7525 55.1248 35.505 55.1586 35.2575 55.1923L12.8363 45.1011C12.555 44.9773 12.2288 44.9661 11.9475 45.0898C11.655 45.2136 11.43 45.4386 11.3288 45.7311L8.24627 53.9548C7.58252 53.9211 6.93002 54.0786 6.34502 54.4386C5.56877 54.9111 5.02877 55.6536 4.81502 56.5311C4.60127 57.4086 4.74752 58.3086 5.20877 59.0848C5.68127 59.8498 6.42377 60.4011 7.29002 60.6036L35.2013 67.3761C35.46 67.4436 35.73 67.4661 36 67.4661C36.27 67.4661 36.5288 67.4323 36.7988 67.3761L64.8113 60.6036C65.6888 60.3898 66.4313 59.8498 66.8925 59.0848C67.365 58.3086 67.5 57.4086 67.2863 56.5311ZM58.995 47.6436L59.7938 49.7811L51.3563 52.9423C50.7713 53.1561 50.4788 53.8086 50.6925 54.3936C50.8613 54.8436 51.3 55.1248 51.75 55.1248C51.885 55.1248 52.02 55.1023 52.1438 55.0573L60.5813 51.8961L61.5375 54.4611L42.165 59.1411C41.6475 57.9711 40.8038 57.0036 39.7575 56.3061L58.995 47.6436ZM36 60.6261L32.085 59.6811C32.8613 58.2861 34.335 57.3861 36 57.3861C37.665 57.3861 39.1388 58.2973 39.915 59.6923L36 60.6261ZM13.005 47.6436L32.2313 56.2948C31.1963 56.9923 30.3525 57.9598 29.835 59.1298L10.4625 54.4273L11.4188 51.8848L19.8563 55.0461C19.98 55.1023 20.115 55.1248 20.25 55.1248C20.7 55.1248 21.1388 54.8436 21.3075 54.3936C21.5213 53.8086 21.2288 53.1673 20.6438 52.9423L12.2063 49.7811L13.005 47.6436ZM7.12127 57.9148C6.96377 57.6561 6.91877 57.3523 6.98627 57.0598C7.05377 56.7673 7.24502 56.5086 7.50377 56.3623C7.67252 56.2498 7.87502 56.1936 8.06627 56.1936C8.15627 56.1936 8.24627 56.2048 8.34752 56.2273L30.24 61.5373C30.2513 61.5373 30.2625 61.5486 30.2738 61.5486H30.3188L30.7575 61.6498L30.9825 64.0236L7.81877 58.4211C7.52627 58.3423 7.27877 58.1623 7.12127 57.9148ZM36.27 65.1936C36.09 65.2386 35.91 65.2386 35.7413 65.1936L33.3 64.5973L33.075 62.2236L35.7413 62.8761C35.9213 62.9211 36.1013 62.9211 36.27 62.8761L38.9363 62.2348L38.7113 64.6086L36.27 65.1936ZM64.9688 57.9148C64.8113 58.1736 64.5638 58.3536 64.2713 58.4211L41.0175 64.0461L41.2425 61.6723L41.6925 61.5598H41.715C41.715 61.5598 41.7263 61.5598 41.7263 61.5486L63.7313 56.2273C64.3388 56.0811 64.9463 56.4523 65.0925 57.0598C65.1713 57.3523 65.1263 57.6561 64.9688 57.9148Z" fill="#31B154"/>
  <path d="M27 33.1537V34.8749V41.6249C27 43.1212 27.9787 44.3699 29.3287 44.8199C29.7787 48.0937 32.6025 50.6249 36 50.6249C39.3975 50.6249 42.2212 48.0937 42.6712 44.8199C44.0212 44.3699 45 43.1212 45 41.6249V34.8749V33.1537C49.8712 29.7562 52.4025 24.0412 51.6037 18.1012C50.67 11.0699 44.865 5.38869 37.8112 4.60119C33.3337 4.09494 28.845 5.52369 25.5037 8.50494C22.1625 11.4974 20.25 15.7724 20.25 20.2499C20.25 25.4249 22.7587 30.2062 27 33.1537ZM42.75 35.9999V38.2499H29.25V35.9999H42.75ZM36 48.3749C33.9075 48.3749 32.1637 46.9349 31.6575 44.9999H40.3425C39.8362 46.9349 38.0925 48.3749 36 48.3749ZM41.625 42.7499H30.375C29.7562 42.7499 29.25 42.2437 29.25 41.6249V40.4999H42.75V41.6249C42.75 42.2437 42.2437 42.7499 41.625 42.7499ZM27 10.1812C29.5087 7.94244 32.6475 6.74994 35.9775 6.74994C36.495 6.74994 37.0238 6.78369 37.5525 6.83994C43.5937 7.51494 48.5662 12.3749 49.365 18.4049C50.0737 23.6812 47.7225 28.7437 43.2562 31.6124C42.9412 31.8149 42.75 32.1749 42.75 32.5574V33.7499H37.125V21.3749H40.5C41.1187 21.3749 41.625 20.8687 41.625 20.2499C41.625 19.6312 41.1187 19.1249 40.5 19.1249H31.5C30.8812 19.1249 30.375 19.6312 30.375 20.2499C30.375 20.8687 30.8812 21.3749 31.5 21.3749H34.875V33.7499H29.25V32.5574C29.25 32.1749 29.0588 31.8149 28.7325 31.6124C24.8288 29.1037 22.5 24.8624 22.5 20.2499C22.5 16.4137 24.1425 12.7462 27 10.1812Z" fill="#31B154"/>
  <path d="M57.375 21.375H61.875C62.4938 21.375 63 20.8687 63 20.25C63 19.6312 62.4938 19.125 61.875 19.125H57.375C56.7562 19.125 56.25 19.6312 56.25 20.25C56.25 20.8687 56.7562 21.375 57.375 21.375Z" fill="#31B154"/>
  <path d="M57.375 14.6249C57.5438 14.6249 57.7125 14.5912 57.8813 14.5012L62.3813 12.2512C62.9325 11.9699 63.1575 11.2949 62.8875 10.7437C62.6063 10.1924 61.9313 9.96743 61.38 10.2374L56.88 12.4874C56.3288 12.7687 56.1038 13.4437 56.3738 13.9949C56.565 14.3999 56.9588 14.6249 57.375 14.6249Z" fill="#31B154"/>
  <path d="M57.8813 25.9988C57.3188 25.7175 56.6438 25.9425 56.3738 26.505C56.0925 27.0563 56.3175 27.7313 56.88 28.0125L61.38 30.2625C61.5375 30.3413 61.7063 30.375 61.875 30.375C62.2913 30.375 62.685 30.15 62.8875 29.7563C63.1688 29.205 62.9438 28.53 62.3813 28.2488L57.8813 25.9988Z" fill="#31B154"/>
  <path d="M10.125 21.375H14.625C15.2438 21.375 15.75 20.8687 15.75 20.25C15.75 19.6312 15.2438 19.125 14.625 19.125H10.125C9.50625 19.125 9 19.6312 9 20.25C9 20.8687 9.50625 21.375 10.125 21.375Z" fill="#31B154"/>
  <path d="M9.61881 12.2513L14.1188 14.5013C14.2876 14.5913 14.4563 14.6251 14.6251 14.6251C15.0413 14.6251 15.4351 14.4001 15.6376 14.0063C15.9188 13.4551 15.6938 12.7801 15.1313 12.4988L10.6313 10.2488C10.0688 9.96755 9.3938 10.1926 9.1238 10.7438C8.84255 11.3063 9.06756 11.9813 9.61881 12.2513Z" fill="#31B154"/>
  <path d="M14.1188 25.9988L9.6188 28.2488C9.06755 28.5301 8.84255 29.2051 9.11255 29.7563C9.31505 30.1501 9.7088 30.3751 10.1251 30.3751C10.2938 30.3751 10.4626 30.3413 10.6313 30.2513L15.1313 28.0013C15.6826 27.7201 15.9076 27.0451 15.6376 26.4938C15.3563 25.9426 14.6813 25.7176 14.1188 25.9988Z" fill="#31B154"/>
</svg>