<svg xmlns="http://www.w3.org/2000/svg" width="72" height="72" viewBox="0 0 72 72" fill="none">
  <path d="M68.3383 33.594C68.7256 32.2016 68.7205 30.7291 68.3234 29.3394C67.9263 27.9496 67.1528 26.6967 66.0883 25.719C66.4354 24.4714 66.4681 23.1573 66.1834 21.8939C65.8988 20.6306 65.3057 19.4574 64.4571 18.4792C63.4134 17.2752 62.0298 16.4152 60.4882 16.0124C60.2115 14.9427 59.7122 13.9434 59.023 13.0799C58.3337 12.2163 57.4701 11.5079 56.4883 11.0009C55.5066 10.4939 54.429 10.1997 53.3259 10.1376C52.2227 10.0755 51.1189 10.2469 50.0865 10.6405C49.5324 9.22117 48.5789 7.99283 47.3412 7.10416C46.1035 6.21549 44.6348 5.70459 43.1129 5.63329C42.4765 4.28492 41.47 3.1452 40.2107 2.347C38.9513 1.5488 37.491 1.125 36.0001 1.125C34.5091 1.125 33.0488 1.5488 31.7894 2.347C30.5301 3.1452 29.5236 4.28492 28.8872 5.63329C27.3654 5.70467 25.8968 6.21558 24.6593 7.10419C23.4218 7.9928 22.4683 9.22103 21.9142 10.6402C20.8817 10.2481 19.7782 10.0779 18.6755 10.1407C17.5728 10.2035 16.4957 10.4979 15.5144 11.0047C14.5331 11.5115 13.6695 12.2193 12.9799 13.0821C12.2904 13.9449 11.7903 14.9432 11.5123 16.0121C9.82704 16.4509 8.3349 17.4363 7.26956 18.8139C6.20422 20.1915 5.62586 21.8835 5.62505 23.625C5.62507 24.3328 5.72154 25.0373 5.91179 25.719C4.84728 26.6967 4.07376 27.9496 3.67669 29.3394C3.27963 30.7291 3.27447 32.2016 3.66179 33.594C2.85897 34.3273 2.21851 35.2204 1.78162 36.216C1.34473 37.2117 1.12108 38.2877 1.12505 39.375C1.12497 41.0668 1.66973 42.7137 2.67869 44.0718C3.68764 45.4298 5.10713 46.4268 6.72695 46.9152C8.34677 47.4035 10.0808 47.3572 11.6723 46.7832C13.2637 46.2091 14.628 45.1377 15.563 43.7278C16.9828 44.8426 18.6505 45.5987 20.4247 45.932C22.1989 46.2652 24.0272 46.1658 25.7548 45.6422L28.0206 48.8142C29.5561 50.9559 30.3798 53.5261 30.3751 56.1614C30.3693 58.8954 29.4827 61.5548 27.8468 63.7453L23.8501 69.075C23.7247 69.2421 23.6484 69.4409 23.6296 69.649C23.6108 69.857 23.6504 70.0662 23.7438 70.2531C23.8373 70.44 23.9809 70.5971 24.1586 70.707C24.3363 70.8168 24.5411 70.875 24.7501 70.875H32.6251C32.7682 70.875 32.91 70.8477 33.0428 70.7945L38.1183 68.7643L41.0011 70.686C41.1859 70.8092 41.403 70.875 41.6251 70.875H47.2501C47.459 70.875 47.6638 70.8168 47.8415 70.707C48.0192 70.5971 48.1628 70.44 48.2563 70.2531C48.3497 70.0662 48.3893 69.857 48.3705 69.649C48.3517 69.4409 48.2754 69.2421 48.1501 69.075L44.1534 63.7453C42.5174 61.5548 41.6308 58.8954 41.6251 56.1614C41.6203 53.5261 42.444 50.9559 43.9795 48.8142L46.2451 45.6422C47.9728 46.1658 49.8012 46.2652 51.5753 45.932C53.3495 45.5987 55.0172 44.8426 56.4371 43.7278C57.0518 44.6567 57.8567 45.4446 58.7985 46.0395C59.7404 46.6343 60.7977 47.0225 61.9007 47.1784C63.0036 47.3343 64.1271 47.2544 65.1969 46.9439C66.2667 46.6334 67.2585 46.0994 68.1066 45.3773C68.9547 44.6551 69.64 43.7612 70.117 42.7545C70.594 41.7479 70.852 40.6515 70.8739 39.5378C70.8958 38.4241 70.6811 37.3184 70.244 36.2938C69.807 35.2692 69.1574 34.349 68.3383 33.594ZM42.1487 47.5063C40.3398 50.0293 39.3695 53.057 39.3751 56.1614C39.3819 59.382 40.4262 62.5148 42.3532 65.0953L45.0001 68.625H41.9656L38.8741 66.564C38.7223 66.4627 38.5481 66.3999 38.3666 66.381C38.1851 66.3621 38.0017 66.3877 37.8323 66.4554L32.4083 68.625H27.0001L29.6469 65.0953C31.5739 62.5148 32.6182 59.382 32.6251 56.1614C32.6306 53.057 31.6603 50.0293 29.8514 47.5063L27.8826 44.7501C28.8428 44.2256 29.7215 43.564 30.4911 42.7863C30.628 42.8425 30.7657 42.8957 30.9038 42.9477L34.9944 51.1288C35.0879 51.3157 35.2315 51.4728 35.4092 51.5826C35.5869 51.6924 35.7917 51.7506 36.0006 51.7506C36.2095 51.7506 36.4143 51.6924 36.592 51.5826C36.7697 51.4728 36.9133 51.3157 37.0068 51.1288L41.0969 42.9469C41.2348 42.895 41.3725 42.8418 41.5095 42.7856C42.279 43.5633 43.1577 44.2249 44.1179 44.7494L42.1487 47.5063ZM33.7987 43.7062C35.2577 43.9306 36.7424 43.9306 38.2014 43.7062L36.0001 48.1093L33.7987 43.7062ZM63.0001 45C61.8829 45.0021 60.7906 44.6705 59.8632 44.0476C58.9358 43.4247 58.2156 42.5389 57.7951 41.5039C57.7243 41.3312 57.6117 41.1787 57.4673 41.0604C57.3229 40.942 57.1514 40.8614 56.9681 40.8259C56.7848 40.7904 56.5956 40.801 56.4175 40.8569C56.2393 40.9128 56.0779 41.0121 55.9477 41.1459C55.0752 42.0456 54.024 42.7528 52.8618 43.222C51.6996 43.6912 50.4521 43.9119 49.1995 43.87C47.9468 43.8281 46.7168 43.5246 45.5886 42.9788C44.4603 42.4331 43.4587 41.6572 42.6482 40.7012C42.4876 40.5125 42.269 40.3821 42.0267 40.3304C41.7843 40.2786 41.5316 40.3083 41.3078 40.4149C39.6517 41.2114 37.8376 41.625 36 41.625C34.1623 41.625 32.3482 41.2114 30.6922 40.4149C30.4684 40.3083 30.2157 40.2786 29.9733 40.3304C29.7309 40.3821 29.5124 40.5125 29.3517 40.7012C28.5413 41.6572 27.5397 42.4331 26.4114 42.9788C25.2831 43.5246 24.0531 43.8281 22.8005 43.87C21.5479 43.9119 20.3003 43.6912 19.1381 43.222C17.9759 42.7528 16.9248 42.0456 16.0523 41.1459C15.9221 41.0121 15.7606 40.9128 15.5825 40.8569C15.4044 40.801 15.2151 40.7904 15.0319 40.8259C14.8486 40.8614 14.677 40.942 14.5327 41.0604C14.3883 41.1787 14.2756 41.3312 14.2049 41.5039C13.8776 42.3074 13.3689 43.0242 12.7185 43.5983C12.0681 44.1724 11.2936 44.5883 10.4557 44.8132C9.61787 45.0382 8.7393 45.0663 7.88878 44.8952C7.03827 44.7241 6.23888 44.3585 5.55318 43.8271C4.86747 43.2956 4.31406 42.6127 3.93623 41.8317C3.5584 41.0507 3.36642 40.193 3.3753 39.3254C3.38418 38.4579 3.59368 37.6043 3.98742 36.8312C4.38115 36.0581 4.94844 35.3867 5.64488 34.8694C5.84266 34.7218 5.98641 34.5132 6.05401 34.2759C6.1216 34.0386 6.10928 33.7856 6.01894 33.5559C5.56399 32.4085 5.50128 31.1428 5.84058 29.956C6.17988 28.7692 6.90215 27.7279 7.89488 26.9944C8.09266 26.8468 8.23641 26.6382 8.30401 26.4009C8.3716 26.1636 8.35928 25.9106 8.26894 25.6809C7.95861 24.8974 7.82893 24.0539 7.88954 23.2134C7.95015 22.3728 8.19949 21.5567 8.61902 20.8257C9.03855 20.0948 9.61747 19.4679 10.3127 18.9915C11.008 18.5152 11.8017 18.2018 12.6348 18.0745C12.8709 18.038 13.0893 17.9272 13.2583 17.7582C13.4273 17.5893 13.5381 17.3709 13.5746 17.1347C13.7141 16.2215 14.0772 15.357 14.6314 14.6179C15.1856 13.8789 15.9139 13.2882 16.7514 12.8985C17.5889 12.5087 18.5098 12.3319 19.4321 12.3839C20.3544 12.4358 21.2496 12.7148 22.0381 13.1961C22.1934 13.2905 22.3692 13.3459 22.5505 13.3575C22.7319 13.3692 22.9133 13.3367 23.0794 13.2629C23.2455 13.1891 23.3912 13.0762 23.5041 12.9338C23.617 12.7914 23.6937 12.6238 23.7277 12.4453C23.973 11.1602 24.6586 10.0007 25.6666 9.16656C26.6745 8.33239 27.9417 7.87566 29.2501 7.87499C29.317 7.87499 29.3824 7.88033 29.4482 7.88483L29.5715 7.89271C29.815 7.90584 30.0562 7.83977 30.259 7.70437C30.4618 7.56898 30.6153 7.37155 30.6965 7.14163C31.0804 6.04113 31.7971 5.08731 32.7473 4.41238C33.6975 3.73746 34.8341 3.37486 35.9996 3.37486C37.1651 3.37486 38.3018 3.73746 39.252 4.41238C40.2022 5.08731 40.9189 6.04113 41.3027 7.14163C41.3833 7.37199 41.5366 7.56987 41.7396 7.70537C41.9426 7.84087 42.1841 7.90663 42.4277 7.89271L42.5506 7.88483C42.6165 7.88033 42.6821 7.87499 42.7491 7.87499C44.0574 7.87569 45.3245 8.33244 46.3324 9.1666C47.3404 10.0008 48.026 11.1602 48.2713 12.4453C48.2876 12.5303 48.3137 12.6132 48.3492 12.6922C48.268 13.2546 47.977 13.7653 47.5346 14.1218C47.0923 14.4783 46.5313 14.6542 45.9646 14.614C45.3979 14.5738 44.8674 14.3206 44.4797 13.9052C44.0921 13.4898 43.876 12.9431 43.8751 12.375H41.6251C41.6258 13.5255 42.0673 14.6321 42.8587 15.4672C43.6501 16.3023 44.7313 16.8026 45.8801 16.8652C47.029 16.9278 48.1581 16.548 49.0356 15.8039C49.9131 15.0597 50.4722 14.0077 50.5981 12.8641C51.3859 12.5113 52.2445 12.3454 53.107 12.3793C53.9695 12.4132 54.8125 12.6459 55.5702 13.0593C56.328 13.4727 56.9799 14.0557 57.4752 14.7626C57.9704 15.4695 58.2956 16.2814 58.4254 17.1347C58.4619 17.3709 58.5727 17.5893 58.7417 17.7582C58.9106 17.9272 59.129 18.038 59.3652 18.0745C60.1983 18.2017 60.992 18.5152 61.6873 18.9915C62.3826 19.4678 62.9616 20.0947 63.3811 20.8256C63.8007 21.5566 64.0501 22.3727 64.1107 23.2133C64.1713 24.0539 64.0416 24.8974 63.7313 25.6809C63.641 25.9106 63.6286 26.1636 63.6962 26.4009C63.7638 26.6382 63.9076 26.8468 64.1054 26.9944C65.0981 27.7279 65.8204 28.7692 66.1597 29.956C66.499 31.1428 66.4363 32.4085 65.9813 33.5559C65.891 33.7856 65.8786 34.0386 65.9462 34.2759C66.0138 34.5132 66.1576 34.7218 66.3554 34.8694C67.3046 35.574 68.0074 36.5601 68.3637 37.6873C68.7201 38.8146 68.7118 40.0254 68.3401 41.1477C67.9684 42.2699 67.2522 43.2464 66.2935 43.938C65.3347 44.6296 64.1822 45.0013 63.0001 45Z" fill="#31B154"/>
  <path d="M50.625 31.5C49.7302 31.499 48.8724 31.143 48.2397 30.5103C47.607 29.8776 47.251 29.0198 47.25 28.125C47.25 27.8266 47.1315 27.5405 46.9205 27.3295C46.7095 27.1185 46.4234 27 46.125 27C45.8266 27 45.5405 27.1185 45.3295 27.3295C45.1185 27.5405 45 27.8266 45 28.125C45 28.7217 44.7629 29.294 44.341 29.716C43.919 30.1379 43.3467 30.375 42.75 30.375C42.1533 30.375 41.581 30.1379 41.159 29.716C40.7371 29.294 40.5 28.7217 40.5 28.125H38.25C38.2496 29.0191 38.5156 29.8931 39.0142 30.6353C39.5128 31.3775 40.2213 31.9543 41.0492 32.292C41.8771 32.6296 42.7869 32.7129 43.6624 32.5311C44.5378 32.3493 45.3392 31.9107 45.9643 31.2713C46.6379 32.2698 47.6143 33.0256 48.7497 33.4276C49.8851 33.8295 51.1195 33.8562 52.2713 33.5039C53.4231 33.1516 54.4313 32.4388 55.1475 31.4705C55.8638 30.5022 56.2502 29.3294 56.25 28.125H54C53.999 29.0198 53.643 29.8776 53.0103 30.5103C52.3776 31.143 51.5198 31.499 50.625 31.5Z" fill="#31B154"/>
  <path d="M25.875 27C24.9802 26.999 24.1224 26.643 23.4897 26.0103C22.857 25.3776 22.501 24.5198 22.5 23.625H20.25C20.25 25.1168 20.8426 26.5476 21.8975 27.6025C22.9524 28.6574 24.3832 29.25 25.875 29.25C27.3668 29.25 28.7976 28.6574 29.8525 27.6025C30.9074 26.5476 31.5 25.1168 31.5 23.625H29.25C29.249 24.5198 28.893 25.3776 28.2603 26.0103C27.6276 26.643 26.7698 26.999 25.875 27Z" fill="#31B154"/>
  <path d="M13.5 36C12.9035 35.9993 12.3316 35.762 11.9098 35.3402C11.488 34.9184 11.2507 34.3465 11.25 33.75H9C9 34.9435 9.47411 36.0881 10.318 36.932C11.1619 37.7759 12.3065 38.25 13.5 38.25C14.6935 38.25 15.8381 37.7759 16.682 36.932C17.5259 36.0881 18 34.9435 18 33.75H15.75C15.7493 34.3465 15.512 34.9184 15.0902 35.3402C14.6684 35.762 14.0965 35.9993 13.5 36Z" fill="#31B154"/>
</svg>