<svg xmlns="http://www.w3.org/2000/svg" width="72" height="72" viewBox="0 0 72 72" fill="none">
  <path d="M41.3796 49.6423C39.6124 53.0949 35.559 60.4999 33.1213 68.7999" stroke="#31B154" stroke-width="1.98" stroke-miterlimit="10" stroke-linecap="round" stroke-linejoin="round"/>
  <path d="M26.7893 35.4778C25.8969 36.7958 25.4474 37.7304 24.6433 39.5747C16.8389 57.4739 3.16797 68.8 3.16797 68.8" stroke="#31B154" stroke-width="1.98" stroke-miterlimit="10" stroke-linecap="round" stroke-linejoin="round"/>
  <path d="M35.2121 49.3408C31.3877 53.5983 25.264 61.0839 21.8007 68.8" stroke="#31B154" stroke-width="1.98" stroke-miterlimit="10" stroke-linecap="round" stroke-linejoin="round"/>
  <path d="M34.3431 28.7567C36.7063 27.8126 38.9676 27.6907 40.8109 27.6907C46.9063 27.6907 51.3013 30.355 54.8804 33.6289L69.0322 47.0411C69.5241 47.5159 69.5691 48.2886 69.1357 48.8175L67.4097 50.9233C66.2878 52.2922 63.4801 54.4522 61.4051 52.8868C59.3299 51.3215 55.5051 50.5573 52.6797 51.4433C47.3435 53.1169 39.8079 49.3095 38.6166 45.7376" stroke="#31B154" stroke-width="1.98" stroke-miterlimit="10" stroke-linecap="round" stroke-linejoin="round"/>
  <path d="M47.5123 39.2535C48.4036 39.2535 49.1262 38.5309 49.1262 37.6396C49.1262 36.7482 48.4036 36.0256 47.5123 36.0256C46.6209 36.0256 45.8983 36.7482 45.8983 37.6396C45.8983 38.5309 46.6209 39.2535 47.5123 39.2535Z" stroke="#31B154" stroke-width="1.98" stroke-miterlimit="10" stroke-linecap="round" stroke-linejoin="round"/>
  <path d="M37.4112 31.0948C37.4112 31.0948 30.5007 27.2184 27.072 21.4705C27.072 21.4705 23.0364 25.6305 24.9523 29.7649C26.8683 33.8992 33.5232 33.1918 33.5232 33.1918" stroke="#31B154" stroke-width="1.98" stroke-miterlimit="10" stroke-linecap="round" stroke-linejoin="round"/>
  <path d="M42.3376 34.1067L45.8985 36.394" stroke="#31B154" stroke-width="1.98" stroke-miterlimit="10" stroke-linecap="round" stroke-linejoin="round"/>
  <path d="M49.5209 38.5146L58.7448 44.3919" stroke="#31B154" stroke-width="1.98" stroke-miterlimit="10" stroke-linecap="round" stroke-linejoin="round"/>
  <path d="M40.8112 27.6905C40.8112 27.6905 35.7303 17.4903 26.7894 14.9932C17.8484 12.4961 6.12005 13.7784 2.79062 4.62231C2.79062 4.62231 2.5248 16.4659 20.6155 18.3625C22.2848 18.5375 23.7209 18.9463 24.9557 19.5079" stroke="#31B154" stroke-width="1.98" stroke-miterlimit="10" stroke-linecap="round" stroke-linejoin="round"/>
  <path d="M47.5124 28.6107C47.5124 28.6107 44.6581 18.9907 35.9359 15.8126C27.2137 12.6345 15.4217 13.0103 12.8069 3.625C12.8069 3.625 12.3156 8.54706 16.795 12.916" stroke="#31B154" stroke-width="1.98" stroke-miterlimit="10" stroke-linecap="round" stroke-linejoin="round"/>
</svg>