<svg xmlns="http://www.w3.org/2000/svg" width="72" height="72" viewBox="0 0 72 72" fill="none">
  <path d="M46.4201 22.8975C39.4179 12.596 30.0658 7.12081 25.1682 10.4755C24.6289 10.8553 24.1603 11.3266 23.7836 11.8681C23.7836 11.9076 12.4456 34.8527 12.4456 34.8527L6.11594 39.141C5.14424 39.8006 4.31202 40.6452 3.66682 41.6266C3.02163 42.6079 2.57609 43.7067 2.35566 44.8603C2.13524 46.0138 2.14425 47.1995 2.38217 48.3496C2.6201 49.4997 3.08228 50.5916 3.74231 51.563L4.02714 51.9823C5.36129 53.9258 7.40783 55.2649 9.72289 55.7093C12.038 56.1536 14.4349 55.6674 16.3937 54.356L26.5608 69.3336C28.0562 71.1771 30.9282 73.0127 34.4729 70.8527C35.1008 70.4455 35.6365 69.9113 36.0453 69.2844C36.4541 68.6575 36.7271 67.9519 36.8465 67.2131C36.9897 66.4783 36.9858 65.7223 36.8351 64.9889C36.6843 64.2556 36.3897 63.5594 35.9682 62.9406L27.0118 49.7274C27.0118 49.7274 48.1845 48.0421 48.2636 48.0105C48.9247 47.8721 49.5515 47.6031 50.1071 47.2193C52.6232 45.5103 53.5252 41.9261 52.6548 37.1234C51.8715 32.7006 49.6482 27.6922 46.4201 22.8975ZM6.32956 50.4237L6.04473 50.0043C5.58934 49.3339 5.27064 48.5803 5.10688 47.7865C4.94312 46.9928 4.93751 46.1745 5.09037 45.3786C5.24324 44.5827 5.55157 43.8247 5.99772 43.1481C6.44388 42.4715 7.01909 41.8896 7.69044 41.4355L13.1577 37.7169L20.3735 48.3428L14.9063 52.0615C14.2357 52.5175 13.4818 52.8368 12.6878 53.0013C11.8937 53.1657 11.075 53.1721 10.2785 53.02C9.48197 52.8679 8.72324 52.5603 8.04565 52.1148C7.36807 51.6693 6.78493 51.0947 6.32956 50.4237ZM33.6896 64.4993C34.122 65.1427 34.2815 65.9314 34.1332 66.6923C33.9849 67.4533 33.5408 68.1243 32.8984 68.5582C32.2537 68.991 31.4638 69.1508 30.7015 69.0025C29.9393 68.8542 29.2669 68.4099 28.8315 67.767L18.6962 52.8369L22.7709 50.0676L23.8469 49.9806L33.6896 64.4993ZM22.9924 47.2667L15.1278 35.6834L22.6285 20.3894C23.3564 24.6856 25.4847 29.7889 28.8869 34.7973C32.2891 39.8056 36.2452 43.6667 39.9638 45.9296L22.9924 47.2667ZM46.3331 45.4232C42.5511 45.178 36.3955 40.9133 31.1814 33.2307C25.9674 25.5481 24.2742 18.2769 25.4373 14.661C25.6473 13.9823 26.0664 13.3873 26.6348 12.9611C27.2032 12.5348 27.8917 12.299 28.6021 12.2874C32.3524 12.2874 38.7375 16.5758 44.1019 24.4799C47.1243 28.9265 49.3238 33.5788 49.9252 37.6456C51.1041 45.4232 46.3331 45.4232 46.3331 45.4232Z" fill="#31B154"/>
  <path d="M36.5299 23.1903C35.5608 22.9999 34.5634 23.0048 33.5961 23.2045C32.6288 23.4042 31.7111 23.7948 30.8965 24.3533C30.7464 24.4572 30.6182 24.5897 30.5192 24.7432C30.4203 24.8966 30.3525 25.068 30.3198 25.2477C30.2871 25.4273 30.2901 25.6116 30.3287 25.7901C30.3672 25.9686 30.4405 26.1377 30.5444 26.2878C30.6483 26.438 30.7808 26.5662 30.9343 26.6651C31.0877 26.7641 31.2591 26.8318 31.4388 26.8645C31.6184 26.8972 31.8027 26.8942 31.9812 26.8557C32.1597 26.8172 32.3288 26.7438 32.4789 26.6399C32.9948 26.2898 33.5746 26.0447 34.1852 25.9186C34.7958 25.7925 35.4253 25.7879 36.0377 25.9051C36.65 26.0223 37.2333 26.259 37.7543 26.6016C38.2752 26.9442 38.7235 27.386 39.0737 27.9019C39.4238 28.4178 39.6689 28.9976 39.795 29.6082C39.9211 30.2188 39.9257 30.8483 39.8085 31.4606C39.6913 32.073 39.4547 32.6563 39.112 33.1772C38.7694 33.6982 38.3276 34.1465 37.8117 34.4966C37.5684 34.6646 37.3853 34.906 37.2892 35.1856C37.193 35.4651 37.1888 35.7681 37.2773 36.0502C37.3657 36.3322 37.5421 36.5786 37.7806 36.7532C38.0191 36.9278 38.3073 37.0215 38.6029 37.0206C38.8849 37.0259 39.1616 36.9429 39.3941 36.7832C40.6247 35.9496 41.5803 34.7694 42.1396 33.3923C42.699 32.0151 42.837 30.5029 42.5362 29.0473C42.2354 27.5916 41.5093 26.258 40.45 25.2153C39.3906 24.1727 38.0456 23.4679 36.5853 23.1903H36.5299Z" fill="#31B154"/>
  <path d="M48.129 13.2686H48.2635C48.606 13.2684 48.9363 13.1414 49.1905 12.912C49.4448 12.6826 49.605 12.367 49.6402 12.0264L50.7084 1.64573C50.7327 1.46217 50.7199 1.2756 50.6709 1.09706C50.6218 0.918521 50.5374 0.751634 50.4227 0.606275C50.308 0.460917 50.1653 0.340039 50.0031 0.250793C49.8409 0.161548 49.6624 0.105748 49.4782 0.0866956C49.294 0.0676428 49.1079 0.085724 48.9308 0.139869C48.7538 0.194015 48.5894 0.283124 48.4473 0.401926C48.3053 0.520728 48.1886 0.666808 48.104 0.831525C48.0194 0.996241 47.9688 1.17625 47.955 1.36089L46.8947 11.7495C46.8571 12.1146 46.966 12.4797 47.1975 12.7645C47.4289 13.0494 47.764 13.2307 48.129 13.2686Z" fill="#31B154"/>
  <path d="M66.0263 11.1323C65.823 10.8258 65.5067 10.6122 65.1465 10.5381C64.7863 10.464 64.4114 10.5354 64.1037 10.7367L54.4588 17.0663C54.2084 17.2317 54.0185 17.474 53.9176 17.7566C53.8168 18.0393 53.8106 18.3471 53.8998 18.6336C53.9891 18.9201 54.169 19.1699 54.4125 19.3453C54.6561 19.5207 54.95 19.6122 55.25 19.6061C55.5299 19.6125 55.8054 19.5354 56.0412 19.3846L65.6861 13.0549C65.9853 12.8444 66.189 12.524 66.2528 12.1638C66.3165 11.8035 66.2351 11.4327 66.0263 11.1323Z" fill="#31B154"/>
  <path d="M68.9775 28.0326L57.7582 26.015C57.3962 25.95 57.0232 26.0314 56.7213 26.2413C56.4193 26.4513 56.2131 26.7726 56.1481 27.1346C56.083 27.4966 56.1645 27.8696 56.3744 28.1715C56.5844 28.4735 56.9057 28.6797 57.2677 28.7447L68.4791 30.7623H68.7244C69.0771 30.7726 69.4206 30.6478 69.6844 30.4134C69.9483 30.179 70.1127 29.8527 70.144 29.5011C70.1753 29.1496 70.0712 28.7993 69.8529 28.522C69.6346 28.2446 69.3187 28.0611 68.9696 28.0089L68.9775 28.0326Z" fill="#31B154"/>
</svg>