<svg xmlns="http://www.w3.org/2000/svg" width="72" height="72" viewBox="0 0 72 72" fill="none">
  <path d="M38.8125 33.84L36.5063 60.84C36.4613 61.425 35.9663 61.875 35.3813 61.875C35.3475 61.875 35.3138 61.875 35.28 61.875C34.6613 61.8188 34.2 61.2788 34.2563 60.66L36.5625 33.66C36.6188 33.0413 37.1475 32.5688 37.7775 32.6363C38.3963 32.6925 38.8575 33.2325 38.8013 33.8513L38.8125 33.84ZM16.2 32.625C15.5813 32.6813 15.12 33.2213 15.1763 33.84L17.4825 60.84C17.5275 61.425 18.0225 61.875 18.6075 61.875H18.7088C19.3275 61.8188 19.7888 61.2788 19.7325 60.66L17.4263 33.66C17.37 33.0413 16.8413 32.5688 16.2113 32.6363L16.2 32.625ZM17.4488 15.66C17.6738 15.885 17.955 15.9863 18.2475 15.9863C18.54 15.9863 18.8213 15.8738 19.0463 15.66C19.485 15.2213 19.485 14.5125 19.0463 14.0738L14.2763 9.30377C13.8375 8.86502 13.1288 8.86502 12.69 9.30377C12.2513 9.74252 12.2513 10.4513 12.69 10.89L17.46 15.66H17.4488ZM27 12.3638C27.6188 12.3638 28.125 11.8575 28.125 11.2388V4.48877C28.125 3.87002 27.6188 3.36377 27 3.36377C26.3813 3.36377 25.875 3.87002 25.875 4.48877V11.2388C25.875 11.8575 26.3813 12.3638 27 12.3638ZM35.7525 15.9863C36.045 15.9863 36.3263 15.8738 36.5513 15.66L41.3213 10.89C41.76 10.4513 41.76 9.74252 41.3213 9.30377C40.8825 8.86502 40.1738 8.86502 39.735 9.30377L34.965 14.0738C34.5263 14.5125 34.5263 15.2213 34.965 15.66C35.19 15.885 35.4713 15.9863 35.7638 15.9863H35.7525ZM27 32.6138C26.3813 32.6138 25.875 33.12 25.875 33.7388V60.7388C25.875 61.3575 26.3813 61.8638 27 61.8638C27.6188 61.8638 28.125 61.3575 28.125 60.7388V33.7388C28.125 33.12 27.6188 32.6138 27 32.6138ZM63.8663 54.135L62.775 54.405L64.935 63.1463C65.1488 64.0238 65.0138 64.9238 64.5525 65.7C64.0913 66.4763 63.3488 67.0163 62.4713 67.23L57.015 68.58C56.925 68.6025 56.835 68.6138 56.745 68.6138C56.5425 68.6138 56.34 68.5575 56.16 68.4563C55.9013 68.2988 55.7213 68.0513 55.6538 67.7588L47.565 35.1L45.1688 65.5088C45.0113 67.2863 43.5713 68.6138 41.7938 68.6138H12.2063C10.44 68.6138 8.98877 67.2863 8.83127 65.52L5.88377 28.1138H5.61377C4.37627 28.1138 3.36377 27.1013 3.36377 25.8638V21.3638C3.36377 20.1263 4.37627 19.1138 5.61377 19.1138H48.3638C49.6013 19.1138 50.6138 20.1263 50.6138 21.3638V25.8638C50.6138 25.9538 50.6025 26.0438 50.5913 26.1338L52.1888 25.74C54 25.29 55.8338 26.3925 56.2725 28.2038L58.4325 36.9338L59.5238 36.6638C60.4013 36.45 61.3013 36.585 62.0775 37.0463C62.8538 37.5075 63.3938 38.25 63.6075 39.1275L66.3188 50.0513C66.7688 51.8625 65.6663 53.6963 63.855 54.135H63.8663ZM5.62502 25.875H48.375V21.375H5.62502V25.875ZM45.855 28.125H8.14502L11.0813 65.34C11.1263 65.925 11.6213 66.375 12.2063 66.375H41.7938C42.39 66.375 42.8738 65.925 42.9188 65.3288L45.8438 28.125H45.855ZM62.7638 63.6975L54.1013 28.755C54.0338 28.4625 53.8425 28.215 53.595 28.0575C53.3363 27.9 53.0325 27.855 52.74 27.9338L48.375 29.0138L57.5775 66.1388L61.9425 65.0588C62.55 64.9125 62.91 64.2938 62.7638 63.6975ZM64.1588 50.6025L61.4475 39.6788C61.38 39.3863 61.1888 39.1388 60.9413 38.9813C60.6825 38.8238 60.3788 38.7788 60.0863 38.8575L58.995 39.1275L62.2463 52.2338L63.3375 51.9638C63.945 51.8175 64.305 51.1988 64.1588 50.6025Z" fill="#31B154"/>
</svg>