<svg xmlns="http://www.w3.org/2000/svg" width="64" height="64" viewBox="0 0 64 64" fill="none">
  <g clip-path="url(#clip0_376_2266)">
    <path fill-rule="evenodd" clip-rule="evenodd" d="M28.5293 0.674933L0.4883 12.0032C0.1862 12.1252 0.0977 12.3301 0.0977 12.5794C0.0977 12.8286 0.1867 13.0296 0.4883 13.1516L28.5293 24.4799C30.7623 25.382 33.2552 25.3917 35.4961 24.5092L57.5547 15.8216V14.8411C57.5547 14.168 57.0325 13.6458 56.3594 13.6458H32C31.4111 13.6456 30.9337 13.1683 30.9336 12.5794C30.9327 11.9897 31.4103 11.5111 32 11.511H56.3594C58.1932 11.511 59.6875 12.9631 59.6875 14.9817C61.0026 14.5051 62.2808 13.9514 63.5488 13.3645C63.8824 13.2099 63.9858 12.9638 63.9785 12.6751C63.9675 12.3863 63.8565 12.1409 63.5156 12.0032L35.4727 0.674933C33.2606 -0.218607 30.7727 -0.231327 28.5293 0.674933ZM59.6875 17.2767L57.5547 18.1165V25.3314C56.3203 25.7766 55.4219 26.9521 55.4219 28.3315C55.4219 29.1682 55.7549 29.9285 56.2891 30.5014C55.7563 31.0902 55.4219 31.8619 55.4219 32.7104V36.8648C55.4222 37.4538 55.8996 37.9311 56.4883 37.9312H60.752C61.34 37.9302 61.8161 37.453 61.8164 36.8648V32.7671C61.8624 31.888 61.5425 31.0678 60.9902 30.4565C61.5008 29.8886 61.8223 29.1471 61.8223 28.3315C61.8223 26.9521 60.922 25.7766 59.6875 25.3314V17.2767ZM14.002 20.9115L15.6797 33.9858V33.9878V33.9898V33.9918V33.9938V33.9958V33.9978V33.9998V34.0018V34.0038C15.8275 35.3421 16.7102 36.4775 17.9707 36.9511C27.0144 40.3434 36.9811 40.3441 46.0254 36.9531C47.2829 36.4816 48.1478 35.3448 48.3223 33.9844L49.9746 21.1014L36.2773 26.496C33.5286 27.5785 30.4675 27.5653 27.7285 26.4589L14.002 20.9115ZM32 45.986C31.8868 45.986 31.7742 46.0311 31.6816 46.1246L30.334 47.486C30.1351 47.6871 29.8654 47.8002 29.584 47.8004H27.6797C27.4178 47.8004 27.2266 47.9908 27.2266 48.2555V50.1813C27.2265 50.4655 27.1148 50.7381 26.916 50.9391L25.5703 52.3005C25.385 52.4877 25.385 52.7578 25.5703 52.945L26.916 54.3044C27.1148 54.5054 27.2265 54.778 27.2266 55.0622V56.988C27.2266 57.2528 27.4178 57.4451 27.6797 57.4451H29.584C29.8651 57.4447 30.1348 57.5571 30.334 57.7576L31.6816 59.1189C31.8669 59.3061 32.1331 59.3061 32.3184 59.1189L33.6641 57.7576C33.8637 57.5567 34.1343 57.4442 34.416 57.4451H36.3203C36.5823 57.4451 36.7715 57.2528 36.7715 56.988V56.2224V55.0642C36.7715 54.78 36.8832 54.5074 37.082 54.3064L38.4297 52.945C38.615 52.7578 38.615 52.4877 38.4297 52.3005L37.082 50.9391C36.8832 50.7381 36.7715 50.4655 36.7715 50.1813V48.2555C36.7715 47.9908 36.5823 47.8004 36.3203 47.8004H34.416C34.134 47.8007 33.8634 47.6876 33.6641 47.486L32.3184 46.1246C32.2254 46.0309 32.1132 45.986 32 45.986ZM61.8301 48.4723C61.1306 48.4963 60.4336 48.5086 59.7344 48.5309V56.7224C60.4338 56.7435 61.1279 56.7544 61.8281 56.7771C63.0631 56.8172 64 55.913 64 54.6794V50.5661C64 49.3325 63.0654 48.43 61.8301 48.4723ZM0 50.5661V54.6795C0 55.9131 0.9386 56.8163 2.1738 56.7752C2.8694 56.7521 3.5711 56.74 4.2676 56.7186V48.5329C3.5696 48.5104 2.8694 48.4986 1.874 48.4939C0.8786 48.4889 0 49.371 0 50.5661ZM57.5996 48.5895C56.8882 48.6105 56.1778 48.6288 55.4668 48.6481V56.6131C56.1777 56.6313 56.8878 56.6458 57.5996 56.6658V48.5895ZM6.4004 48.5915V56.6619C7.1108 56.6417 7.822 56.6237 8.5332 56.6053V48.6502C7.8221 48.6308 7.1111 48.6128 6.4004 48.5915ZM53.334 48.7068C48.513 48.8258 43.6984 48.9158 38.8945 48.9548V49.738L39.9316 50.783C40.9279 51.7897 40.9279 53.456 39.9316 54.4627L38.8945 55.5076V56.2225V56.3201C43.6871 56.3576 48.5037 56.4434 53.334 56.5564V48.7068ZM10.666 48.7108V56.5507C15.4616 56.4377 20.2713 56.3518 25.1055 56.3163V55.5058L24.0684 54.4628C23.0721 53.456 23.0721 51.7898 24.0684 50.7831L25.1055 49.7381V48.9569C20.2829 48.919 15.4715 48.8298 10.666 48.7108ZM28.2422 59.5898L25.8926 64H28.1172L29.9121 60.3691L29.1445 59.5898H28.2422ZM34.8555 59.5898L34.0859 60.3691L35.8828 64H38.1094L35.7578 59.5898H34.8555Z" fill="#0397D6"/>
  </g>
  <defs>
    <clipPath id="clip0_376_2266">
      <rect width="64" height="64" fill="white"/>
    </clipPath>
  </defs>
</svg>