<svg width="289" height="332" viewBox="0 0 289 332" fill="none" xmlns="http://www.w3.org/2000/svg">
<g opacity="0.2" clip-path="url(#clip0_1041_560)">
<path d="M166.699 332.793C74.7478 332.793 0 258.24 0 166.528C0 74.8202 74.7478 0.191895 166.699 0.191895C191.454 0.191895 215.296 5.491 237.53 15.8876L235.504 20.2816C213.984 10.1766 190.484 4.96004 166.699 5.00799C77.4042 5.00799 4.82395 77.4697 4.82395 166.457C4.82395 255.449 77.4042 327.916 166.699 327.916C178.409 327.926 190.085 326.662 201.52 324.146L202.568 328.887C190.894 331.466 178.797 332.793 166.694 332.793H166.699Z" fill="#0FAEDD"/>
<path d="M134.812 166.459C134.812 174.829 132.297 182.572 127.261 189.686C122.23 196.8 115.723 201.752 107.824 204.542C103.736 205.979 99.4315 206.709 95.0967 206.699H64.1219V126.289H95.0967C102.648 126.289 109.71 128.38 116.146 132.568C122.508 136.68 127.332 142.12 130.759 148.957C133.416 154.604 134.812 160.465 134.812 166.459ZM113.067 166.459C113.067 160.953 111.529 156.071 108.384 151.954C104.256 146.514 98.1058 143.724 89.8543 143.724H85.0962V189.268H89.8543C98.1058 189.268 104.326 186.548 108.379 181.038C111.529 176.85 113.067 172.039 113.067 166.463V166.459ZM47.1299 206.704H26.1509V126.289H47.1299V206.704ZM194.11 206.704H148.24V126.289H194.11V143.724H169.144V157.464H192.709V174.9H169.144V189.268H194.11V206.704ZM284.03 206.704H261.655L256.483 192.682H227.534L222.01 206.704H199.841L230.891 126.289H253.756L284.03 206.704ZM250.747 176.785L242.077 151.185L233.266 176.785H250.747Z" fill="#0FAEDD"/>
</g>
<defs>
<clipPath id="clip0_1041_560">
<rect width="289" height="332" fill="white"/>
</clipPath>
</defs>
</svg>
