<svg xmlns="http://www.w3.org/2000/svg" width="52" height="48" viewBox="0 0 52 48" fill="none">
  <mask id="path-1-outside-1_376_2247" maskUnits="userSpaceOnUse" x="-0.800049" y="-0.799927" width="53" height="49" fill="black">
    <rect fill="white" x="-0.800049" y="-0.799927" width="53" height="49"/>
    <path d="M0.199951 36.1053C0.333552 35.5247 0.443045 34.938 0.603768 34.3645C1.95585 29.5478 6.59673 26.3434 11.5741 26.7703C14.5395 27.0244 16.9483 28.3313 18.8639 30.5865C18.9393 30.6749 19.0156 30.7632 19.093 30.8496C19.102 30.8597 19.1221 30.8607 19.1783 30.8788C21.1301 29.6191 23.105 28.3444 25.0849 27.0666C25.0849 25.1299 25.0849 23.2133 25.0849 21.2595C24.5555 21.162 24.0332 21.0847 23.5199 20.9692C19.1924 19.9878 15.9438 16.3604 15.4285 11.9606C15.107 9.21529 15.776 6.73413 17.3863 4.50108C17.5239 4.31022 17.7499 4.07416 17.9478 4.0611C18.206 4.04402 18.5485 4.15854 18.7273 4.34136C19.0016 4.62062 18.9132 4.99129 18.6801 5.30168C17.9056 6.3283 17.3833 7.46944 17.0879 8.72207C16.4712 11.3388 17.2225 14.5603 18.9152 16.3735C19.8172 14.7371 21.0277 13.3861 22.5545 12.3333C20.9252 10.1083 21.5822 7.64925 23.108 6.35141C24.7243 4.97521 27.1362 5.00133 28.7032 6.41469C30.4199 7.96165 30.6158 10.2289 29.1874 12.3283C30.7022 13.378 31.9207 14.707 32.8268 16.3825C32.9423 16.254 33.0447 16.1575 33.1271 16.046C37.111 10.71 33.9368 2.88481 27.3531 1.83207C25.0889 1.47044 22.9744 1.90641 21.0287 3.13192C20.9865 3.15904 20.9453 3.18717 20.9021 3.21329C20.3737 3.53775 19.9347 3.48852 19.6766 3.07667C19.4265 2.67888 19.5289 2.22182 20.0613 1.95663C21.1 1.4393 22.1346 0.837596 23.2436 0.549299C29.2356 -1.01373 35.1392 2.82655 36.2602 8.94106C37.2828 14.5192 33.3602 20.1204 27.766 21.0676C27.4074 21.1279 27.0478 21.1821 26.6721 21.2414C26.6721 23.1872 26.6721 25.1048 26.6721 27.0696C28.6228 28.3293 30.5957 29.602 32.4249 30.7833C33.0508 30.2278 33.6073 29.7005 34.1999 29.2163C37.093 26.8486 40.3536 26.1605 43.9639 27.1209C44.0764 27.151 44.1909 27.1821 44.2954 27.2304C44.6731 27.4041 44.879 27.6985 44.7725 28.1133C44.661 28.5423 44.3456 28.7482 43.9006 28.6769C43.5892 28.6266 43.2868 28.5252 42.9784 28.4549C37.7007 27.2575 32.5565 30.9883 32.0543 36.3655C31.8383 38.6799 32.439 40.7572 33.8042 42.6236C33.8715 42.715 33.9528 42.7954 34.0462 42.9029C34.9413 41.2524 36.1467 39.9104 37.6675 38.8637C36.2843 36.274 36.5314 34.2108 38.3838 32.7522C40.001 31.4795 42.2903 31.5558 43.8614 32.9461C45.2155 34.1445 46 36.4991 44.3345 38.8426C45.8463 39.9064 47.0739 41.2404 47.9749 42.9169C49.0618 41.5849 49.7298 40.1093 49.9217 38.4518C50.3225 34.9852 49.109 32.1716 46.3807 30.0048C45.8303 29.5679 45.767 29.0114 46.2311 28.6738C46.5837 28.4177 46.9121 28.5011 47.2396 28.7472C49.538 30.4719 50.9654 32.7542 51.3983 35.5819C52.2451 41.1028 48.8227 46.1545 43.4114 47.4815C37.6766 48.8878 31.7298 45.0214 30.6691 39.2133C30.2401 36.8657 30.5555 34.6347 31.6043 32.4991C31.6475 32.4107 31.6896 32.3213 31.76 32.1726C29.7991 30.9069 27.8443 29.6442 25.8735 28.3715C23.8996 29.6462 21.9408 30.9109 20.0764 32.1143C20.425 33.2605 20.8428 34.3193 21.0628 35.4162C22.1487 40.8376 18.443 46.3855 13.0226 47.5227C12.6158 47.608 12.203 47.6834 11.7891 47.7195C11.2537 47.7668 10.8951 47.4875 10.8519 47.0405C10.8107 46.6276 11.102 46.2901 11.6153 46.2248C13.323 46.0068 14.878 45.4212 16.2411 44.3564C16.3446 44.275 16.441 44.1836 16.5656 44.0751C15.8273 42.4649 14.7303 41.1771 13.2868 40.1776C13.0679 40.0259 12.8408 39.8843 12.6118 39.7457C11.8795 39.3047 11.8313 38.8084 12.4702 38.2469C13.7529 37.1199 13.8273 35.2786 12.6349 34.1354C11.5611 33.1058 9.84535 33.1239 8.79362 34.1766C7.74189 35.2293 7.72481 36.9441 8.75746 38.0169C8.83882 38.1013 8.92622 38.1786 9.01361 38.257C9.64445 38.8225 9.56911 39.2836 8.85489 39.7658C8.1668 40.2309 7.49076 40.7291 6.87499 41.2856C6.01411 42.0631 5.38026 43.0214 4.9001 44.1083C5.93174 44.9913 7.08493 45.595 8.37775 45.9395C9.18739 46.1555 9.47468 46.483 9.31597 47.0164C9.17232 47.4996 8.7454 47.6251 7.96188 47.4162C3.91567 46.3363 0.858916 42.8547 0.296385 38.6849C0.283326 38.5915 0.2331 38.5021 0.199951 38.4107C0.199951 37.6422 0.199951 36.8737 0.199951 36.1053ZM7.42245 38.8537C5.83933 36.6467 6.4561 34.3524 7.72883 33.0947C9.16027 31.6814 11.3813 31.4423 13.0648 32.5392C13.9066 33.0877 14.4913 33.8451 14.8017 34.7954C15.2828 36.267 14.9483 37.6131 14.0603 38.8496C15.6093 39.9285 16.8037 41.2565 17.6826 42.8707C20.2472 40.046 20.7514 34.5834 17.101 30.9069C13.4556 27.2354 7.47167 27.3871 4.01713 31.2434C0.593723 35.0646 1.3883 40.3514 3.78709 42.8918C4.66806 41.2585 5.87448 39.9184 7.42245 38.8537ZM46.8699 44.0309C46.5244 43.4775 46.209 42.9089 45.8343 42.3835C45.0367 41.2675 44.0081 40.4006 42.8268 39.7095C42.1748 39.3278 42.1266 38.8014 42.6801 38.3012C42.7795 38.2118 42.883 38.1274 42.9764 38.032C43.9086 37.0746 44.0141 35.5809 43.2276 34.5001C42.445 33.4232 40.9825 33.0686 39.7851 33.6643C37.998 34.5533 37.7499 36.8808 39.2939 38.264C39.9066 38.8125 39.8544 39.2997 39.1582 39.7366C38.7213 40.0119 38.2843 40.2931 37.8815 40.6146C36.7082 41.5538 35.7991 42.702 35.1884 44.0671C38.2924 46.925 43.7228 46.927 46.8699 44.0309ZM20.0583 17.5408C23.4536 20.6276 28.9031 20.2419 31.7047 17.4915C31.4385 17.0445 31.1884 16.5734 30.891 16.1344C30.0633 14.9119 28.9875 13.9536 27.7117 13.2123C27.0317 12.8175 26.9865 12.2881 27.5671 11.7758C27.6675 11.6874 27.769 11.6 27.8614 11.5046C28.7936 10.5312 28.873 8.99329 28.0483 7.9275C27.2145 6.84965 25.7318 6.54427 24.5425 7.20726C22.87 8.13845 22.6419 10.4498 24.0985 11.7025C24.7936 12.3002 24.7514 12.7894 23.9639 13.2595C23.9207 13.2856 23.8765 13.3087 23.8343 13.3348C22.1537 14.3645 20.882 15.7537 20.0583 17.5408Z"/>
  </mask>
  <path d="M0.199951 36.1053C0.333552 35.5247 0.443045 34.938 0.603768 34.3645C1.95585 29.5478 6.59673 26.3434 11.5741 26.7703C14.5395 27.0244 16.9483 28.3313 18.8639 30.5865C18.9393 30.6749 19.0156 30.7632 19.093 30.8496C19.102 30.8597 19.1221 30.8607 19.1783 30.8788C21.1301 29.6191 23.105 28.3444 25.0849 27.0666C25.0849 25.1299 25.0849 23.2133 25.0849 21.2595C24.5555 21.162 24.0332 21.0847 23.5199 20.9692C19.1924 19.9878 15.9438 16.3604 15.4285 11.9606C15.107 9.21529 15.776 6.73413 17.3863 4.50108C17.5239 4.31022 17.7499 4.07416 17.9478 4.0611C18.206 4.04402 18.5485 4.15854 18.7273 4.34136C19.0016 4.62062 18.9132 4.99129 18.6801 5.30168C17.9056 6.3283 17.3833 7.46944 17.0879 8.72207C16.4712 11.3388 17.2225 14.5603 18.9152 16.3735C19.8172 14.7371 21.0277 13.3861 22.5545 12.3333C20.9252 10.1083 21.5822 7.64925 23.108 6.35141C24.7243 4.97521 27.1362 5.00133 28.7032 6.41469C30.4199 7.96165 30.6158 10.2289 29.1874 12.3283C30.7022 13.378 31.9207 14.707 32.8268 16.3825C32.9423 16.254 33.0447 16.1575 33.1271 16.046C37.111 10.71 33.9368 2.88481 27.3531 1.83207C25.0889 1.47044 22.9744 1.90641 21.0287 3.13192C20.9865 3.15904 20.9453 3.18717 20.9021 3.21329C20.3737 3.53775 19.9347 3.48852 19.6766 3.07667C19.4265 2.67888 19.5289 2.22182 20.0613 1.95663C21.1 1.4393 22.1346 0.837596 23.2436 0.549299C29.2356 -1.01373 35.1392 2.82655 36.2602 8.94106C37.2828 14.5192 33.3602 20.1204 27.766 21.0676C27.4074 21.1279 27.0478 21.1821 26.6721 21.2414C26.6721 23.1872 26.6721 25.1048 26.6721 27.0696C28.6228 28.3293 30.5957 29.602 32.4249 30.7833C33.0508 30.2278 33.6073 29.7005 34.1999 29.2163C37.093 26.8486 40.3536 26.1605 43.9639 27.1209C44.0764 27.151 44.1909 27.1821 44.2954 27.2304C44.6731 27.4041 44.879 27.6985 44.7725 28.1133C44.661 28.5423 44.3456 28.7482 43.9006 28.6769C43.5892 28.6266 43.2868 28.5252 42.9784 28.4549C37.7007 27.2575 32.5565 30.9883 32.0543 36.3655C31.8383 38.6799 32.439 40.7572 33.8042 42.6236C33.8715 42.715 33.9528 42.7954 34.0462 42.9029C34.9413 41.2524 36.1467 39.9104 37.6675 38.8637C36.2843 36.274 36.5314 34.2108 38.3838 32.7522C40.001 31.4795 42.2903 31.5558 43.8614 32.9461C45.2155 34.1445 46 36.4991 44.3345 38.8426C45.8463 39.9064 47.0739 41.2404 47.9749 42.9169C49.0618 41.5849 49.7298 40.1093 49.9217 38.4518C50.3225 34.9852 49.109 32.1716 46.3807 30.0048C45.8303 29.5679 45.767 29.0114 46.2311 28.6738C46.5837 28.4177 46.9121 28.5011 47.2396 28.7472C49.538 30.4719 50.9654 32.7542 51.3983 35.5819C52.2451 41.1028 48.8227 46.1545 43.4114 47.4815C37.6766 48.8878 31.7298 45.0214 30.6691 39.2133C30.2401 36.8657 30.5555 34.6347 31.6043 32.4991C31.6475 32.4107 31.6896 32.3213 31.76 32.1726C29.7991 30.9069 27.8443 29.6442 25.8735 28.3715C23.8996 29.6462 21.9408 30.9109 20.0764 32.1143C20.425 33.2605 20.8428 34.3193 21.0628 35.4162C22.1487 40.8376 18.443 46.3855 13.0226 47.5227C12.6158 47.608 12.203 47.6834 11.7891 47.7195C11.2537 47.7668 10.8951 47.4875 10.8519 47.0405C10.8107 46.6276 11.102 46.2901 11.6153 46.2248C13.323 46.0068 14.878 45.4212 16.2411 44.3564C16.3446 44.275 16.441 44.1836 16.5656 44.0751C15.8273 42.4649 14.7303 41.1771 13.2868 40.1776C13.0679 40.0259 12.8408 39.8843 12.6118 39.7457C11.8795 39.3047 11.8313 38.8084 12.4702 38.2469C13.7529 37.1199 13.8273 35.2786 12.6349 34.1354C11.5611 33.1058 9.84535 33.1239 8.79362 34.1766C7.74189 35.2293 7.72481 36.9441 8.75746 38.0169C8.83882 38.1013 8.92622 38.1786 9.01361 38.257C9.64445 38.8225 9.56911 39.2836 8.85489 39.7658C8.1668 40.2309 7.49076 40.7291 6.87499 41.2856C6.01411 42.0631 5.38026 43.0214 4.9001 44.1083C5.93174 44.9913 7.08493 45.595 8.37775 45.9395C9.18739 46.1555 9.47468 46.483 9.31597 47.0164C9.17232 47.4996 8.7454 47.6251 7.96188 47.4162C3.91567 46.3363 0.858916 42.8547 0.296385 38.6849C0.283326 38.5915 0.2331 38.5021 0.199951 38.4107C0.199951 37.6422 0.199951 36.8737 0.199951 36.1053ZM7.42245 38.8537C5.83933 36.6467 6.4561 34.3524 7.72883 33.0947C9.16027 31.6814 11.3813 31.4423 13.0648 32.5392C13.9066 33.0877 14.4913 33.8451 14.8017 34.7954C15.2828 36.267 14.9483 37.6131 14.0603 38.8496C15.6093 39.9285 16.8037 41.2565 17.6826 42.8707C20.2472 40.046 20.7514 34.5834 17.101 30.9069C13.4556 27.2354 7.47167 27.3871 4.01713 31.2434C0.593723 35.0646 1.3883 40.3514 3.78709 42.8918C4.66806 41.2585 5.87448 39.9184 7.42245 38.8537ZM46.8699 44.0309C46.5244 43.4775 46.209 42.9089 45.8343 42.3835C45.0367 41.2675 44.0081 40.4006 42.8268 39.7095C42.1748 39.3278 42.1266 38.8014 42.6801 38.3012C42.7795 38.2118 42.883 38.1274 42.9764 38.032C43.9086 37.0746 44.0141 35.5809 43.2276 34.5001C42.445 33.4232 40.9825 33.0686 39.7851 33.6643C37.998 34.5533 37.7499 36.8808 39.2939 38.264C39.9066 38.8125 39.8544 39.2997 39.1582 39.7366C38.7213 40.0119 38.2843 40.2931 37.8815 40.6146C36.7082 41.5538 35.7991 42.702 35.1884 44.0671C38.2924 46.925 43.7228 46.927 46.8699 44.0309ZM20.0583 17.5408C23.4536 20.6276 28.9031 20.2419 31.7047 17.4915C31.4385 17.0445 31.1884 16.5734 30.891 16.1344C30.0633 14.9119 28.9875 13.9536 27.7117 13.2123C27.0317 12.8175 26.9865 12.2881 27.5671 11.7758C27.6675 11.6874 27.769 11.6 27.8614 11.5046C28.7936 10.5312 28.873 8.99329 28.0483 7.9275C27.2145 6.84965 25.7318 6.54427 24.5425 7.20726C22.87 8.13845 22.6419 10.4498 24.0985 11.7025C24.7936 12.3002 24.7514 12.7894 23.9639 13.2595C23.9207 13.2856 23.8765 13.3087 23.8343 13.3348C22.1537 14.3645 20.882 15.7537 20.0583 17.5408Z" fill="#9FCF67"/>
  <path d="M0.199951 36.1053C0.333552 35.5247 0.443045 34.938 0.603768 34.3645C1.95585 29.5478 6.59673 26.3434 11.5741 26.7703C14.5395 27.0244 16.9483 28.3313 18.8639 30.5865C18.9393 30.6749 19.0156 30.7632 19.093 30.8496C19.102 30.8597 19.1221 30.8607 19.1783 30.8788C21.1301 29.6191 23.105 28.3444 25.0849 27.0666C25.0849 25.1299 25.0849 23.2133 25.0849 21.2595C24.5555 21.162 24.0332 21.0847 23.5199 20.9692C19.1924 19.9878 15.9438 16.3604 15.4285 11.9606C15.107 9.21529 15.776 6.73413 17.3863 4.50108C17.5239 4.31022 17.7499 4.07416 17.9478 4.0611C18.206 4.04402 18.5485 4.15854 18.7273 4.34136C19.0016 4.62062 18.9132 4.99129 18.6801 5.30168C17.9056 6.3283 17.3833 7.46944 17.0879 8.72207C16.4712 11.3388 17.2225 14.5603 18.9152 16.3735C19.8172 14.7371 21.0277 13.3861 22.5545 12.3333C20.9252 10.1083 21.5822 7.64925 23.108 6.35141C24.7243 4.97521 27.1362 5.00133 28.7032 6.41469C30.4199 7.96165 30.6158 10.2289 29.1874 12.3283C30.7022 13.378 31.9207 14.707 32.8268 16.3825C32.9423 16.254 33.0447 16.1575 33.1271 16.046C37.111 10.71 33.9368 2.88481 27.3531 1.83207C25.0889 1.47044 22.9744 1.90641 21.0287 3.13192C20.9865 3.15904 20.9453 3.18717 20.9021 3.21329C20.3737 3.53775 19.9347 3.48852 19.6766 3.07667C19.4265 2.67888 19.5289 2.22182 20.0613 1.95663C21.1 1.4393 22.1346 0.837596 23.2436 0.549299C29.2356 -1.01373 35.1392 2.82655 36.2602 8.94106C37.2828 14.5192 33.3602 20.1204 27.766 21.0676C27.4074 21.1279 27.0478 21.1821 26.6721 21.2414C26.6721 23.1872 26.6721 25.1048 26.6721 27.0696C28.6228 28.3293 30.5957 29.602 32.4249 30.7833C33.0508 30.2278 33.6073 29.7005 34.1999 29.2163C37.093 26.8486 40.3536 26.1605 43.9639 27.1209C44.0764 27.151 44.1909 27.1821 44.2954 27.2304C44.6731 27.4041 44.879 27.6985 44.7725 28.1133C44.661 28.5423 44.3456 28.7482 43.9006 28.6769C43.5892 28.6266 43.2868 28.5252 42.9784 28.4549C37.7007 27.2575 32.5565 30.9883 32.0543 36.3655C31.8383 38.6799 32.439 40.7572 33.8042 42.6236C33.8715 42.715 33.9528 42.7954 34.0462 42.9029C34.9413 41.2524 36.1467 39.9104 37.6675 38.8637C36.2843 36.274 36.5314 34.2108 38.3838 32.7522C40.001 31.4795 42.2903 31.5558 43.8614 32.9461C45.2155 34.1445 46 36.4991 44.3345 38.8426C45.8463 39.9064 47.0739 41.2404 47.9749 42.9169C49.0618 41.5849 49.7298 40.1093 49.9217 38.4518C50.3225 34.9852 49.109 32.1716 46.3807 30.0048C45.8303 29.5679 45.767 29.0114 46.2311 28.6738C46.5837 28.4177 46.9121 28.5011 47.2396 28.7472C49.538 30.4719 50.9654 32.7542 51.3983 35.5819C52.2451 41.1028 48.8227 46.1545 43.4114 47.4815C37.6766 48.8878 31.7298 45.0214 30.6691 39.2133C30.2401 36.8657 30.5555 34.6347 31.6043 32.4991C31.6475 32.4107 31.6896 32.3213 31.76 32.1726C29.7991 30.9069 27.8443 29.6442 25.8735 28.3715C23.8996 29.6462 21.9408 30.9109 20.0764 32.1143C20.425 33.2605 20.8428 34.3193 21.0628 35.4162C22.1487 40.8376 18.443 46.3855 13.0226 47.5227C12.6158 47.608 12.203 47.6834 11.7891 47.7195C11.2537 47.7668 10.8951 47.4875 10.8519 47.0405C10.8107 46.6276 11.102 46.2901 11.6153 46.2248C13.323 46.0068 14.878 45.4212 16.2411 44.3564C16.3446 44.275 16.441 44.1836 16.5656 44.0751C15.8273 42.4649 14.7303 41.1771 13.2868 40.1776C13.0679 40.0259 12.8408 39.8843 12.6118 39.7457C11.8795 39.3047 11.8313 38.8084 12.4702 38.2469C13.7529 37.1199 13.8273 35.2786 12.6349 34.1354C11.5611 33.1058 9.84535 33.1239 8.79362 34.1766C7.74189 35.2293 7.72481 36.9441 8.75746 38.0169C8.83882 38.1013 8.92622 38.1786 9.01361 38.257C9.64445 38.8225 9.56911 39.2836 8.85489 39.7658C8.1668 40.2309 7.49076 40.7291 6.87499 41.2856C6.01411 42.0631 5.38026 43.0214 4.9001 44.1083C5.93174 44.9913 7.08493 45.595 8.37775 45.9395C9.18739 46.1555 9.47468 46.483 9.31597 47.0164C9.17232 47.4996 8.7454 47.6251 7.96188 47.4162C3.91567 46.3363 0.858916 42.8547 0.296385 38.6849C0.283326 38.5915 0.2331 38.5021 0.199951 38.4107C0.199951 37.6422 0.199951 36.8737 0.199951 36.1053ZM7.42245 38.8537C5.83933 36.6467 6.4561 34.3524 7.72883 33.0947C9.16027 31.6814 11.3813 31.4423 13.0648 32.5392C13.9066 33.0877 14.4913 33.8451 14.8017 34.7954C15.2828 36.267 14.9483 37.6131 14.0603 38.8496C15.6093 39.9285 16.8037 41.2565 17.6826 42.8707C20.2472 40.046 20.7514 34.5834 17.101 30.9069C13.4556 27.2354 7.47167 27.3871 4.01713 31.2434C0.593723 35.0646 1.3883 40.3514 3.78709 42.8918C4.66806 41.2585 5.87448 39.9184 7.42245 38.8537ZM46.8699 44.0309C46.5244 43.4775 46.209 42.9089 45.8343 42.3835C45.0367 41.2675 44.0081 40.4006 42.8268 39.7095C42.1748 39.3278 42.1266 38.8014 42.6801 38.3012C42.7795 38.2118 42.883 38.1274 42.9764 38.032C43.9086 37.0746 44.0141 35.5809 43.2276 34.5001C42.445 33.4232 40.9825 33.0686 39.7851 33.6643C37.998 34.5533 37.7499 36.8808 39.2939 38.264C39.9066 38.8125 39.8544 39.2997 39.1582 39.7366C38.7213 40.0119 38.2843 40.2931 37.8815 40.6146C36.7082 41.5538 35.7991 42.702 35.1884 44.0671C38.2924 46.925 43.7228 46.927 46.8699 44.0309ZM20.0583 17.5408C23.4536 20.6276 28.9031 20.2419 31.7047 17.4915C31.4385 17.0445 31.1884 16.5734 30.891 16.1344C30.0633 14.9119 28.9875 13.9536 27.7117 13.2123C27.0317 12.8175 26.9865 12.2881 27.5671 11.7758C27.6675 11.6874 27.769 11.6 27.8614 11.5046C28.7936 10.5312 28.873 8.99329 28.0483 7.9275C27.2145 6.84965 25.7318 6.54427 24.5425 7.20726C22.87 8.13845 22.6419 10.4498 24.0985 11.7025C24.7936 12.3002 24.7514 12.7894 23.9639 13.2595C23.9207 13.2856 23.8765 13.3087 23.8343 13.3348C22.1537 14.3645 20.882 15.7537 20.0583 17.5408Z" stroke="#9FCF67" stroke-width="0.4" mask="url(#path-1-outside-1_376_2247)"/>
</svg>