<svg xmlns="http://www.w3.org/2000/svg" width="28" height="28" viewBox="0 0 28 28" fill="none">
  <path d="M23.334 19.083C23.7478 19.0833 24.0838 19.4192 24.084 19.833C24.084 20.247 23.7479 20.5827 23.334 20.583H4.66699C4.25278 20.583 3.91699 20.2472 3.91699 19.833C3.91717 19.4189 4.25289 19.083 4.66699 19.083H23.334ZM23.334 13.25C23.7479 13.2503 24.084 13.586 24.084 14C24.084 14.414 23.7479 14.7497 23.334 14.75H4.66699C4.25278 14.75 3.91699 14.4142 3.91699 14C3.91699 13.5858 4.25278 13.25 4.66699 13.25H23.334ZM23.334 7.41699C23.7479 7.41733 24.084 7.75299 24.084 8.16699C24.0838 8.58085 23.7478 8.91665 23.334 8.91699H4.66699C4.25289 8.91699 3.91717 8.58106 3.91699 8.16699C3.91699 7.75278 4.25278 7.41699 4.66699 7.41699H23.334Z" fill="white"/>
</svg>