<svg xmlns="http://www.w3.org/2000/svg" width="254" height="88" viewBox="0 0 254 88" fill="none">
  <g clip-path="url(#clip0_1_9)">
    <path d="M95.9814 39.8784H94.8555V30.2859H95.9814V39.8784ZM104.008 39.8784H102.919V35.9754C102.919 34.5163 102.392 33.7867 101.339 33.7867C101.08 33.7807 100.823 33.8333 100.587 33.9407C100.351 34.0482 100.143 34.2076 99.977 34.4071C99.6131 34.8265 99.4495 35.3378 99.4495 35.9754V39.8784H98.3602V33.0215H99.4495V34.1521H99.4861C99.9941 33.2937 100.739 32.8572 101.721 32.8572C102.464 32.8572 103.046 33.0939 103.427 33.5868C103.826 34.0785 104.026 34.7725 104.026 35.6836V39.8772L104.008 39.8784ZM109.238 39.8232C108.984 39.9704 108.64 40.0427 108.221 40.0427C107.023 40.0427 106.423 39.3683 106.423 38.0367V33.9694H105.261V33.0399H106.423V31.3613L107.513 31.0155V33.0387H109.238V33.9706H107.513V37.8356C107.513 38.2917 107.586 38.6203 107.75 38.8202C107.912 39.0213 108.167 39.112 108.531 39.112C108.785 39.1181 109.033 39.0415 109.239 38.8938L109.238 39.8232ZM116.194 36.7234H111.383C111.4 37.4886 111.6 38.0722 111.999 38.4916C112.38 38.911 112.925 39.112 113.615 39.112C114.378 39.112 115.086 38.857 115.74 38.3457V39.3671C115.141 39.8048 114.341 40.0243 113.361 40.0243C112.399 40.0243 111.635 39.7141 111.091 39.0937C110.546 38.4732 110.255 37.5977 110.255 36.4684C110.255 35.4102 110.564 34.5347 111.164 33.8602C111.762 33.1858 112.507 32.8572 113.397 32.8572C114.288 32.8572 114.978 33.149 115.467 33.7327C115.958 34.3164 116.194 35.1183 116.194 36.1397V36.7234ZM115.068 35.7927C115.068 35.1551 114.904 34.6622 114.614 34.3164C114.306 33.9694 113.905 33.7867 113.361 33.7867C113.116 33.7828 112.872 33.8311 112.647 33.9286C112.422 34.026 112.22 34.1703 112.054 34.3519C111.69 34.7174 111.472 35.2103 111.383 35.8111H115.068V35.7927ZM121.407 34.1337C121.207 33.9878 120.934 33.9154 120.571 33.9154C120.099 33.9154 119.717 34.1337 119.408 34.5714C119.1 35.0092 118.937 35.6113 118.937 36.3776V39.86H117.846V33.0031H118.937V34.4071H118.973C119.136 33.9338 119.373 33.55 119.682 33.2766C120.008 33.0031 120.353 32.8756 120.752 32.8756C121.043 32.8756 121.26 32.9124 121.406 32.9663L121.407 34.1337ZM128.253 39.8784H127.164V35.9754C127.164 34.5163 126.636 33.7867 125.565 33.7867C125.306 33.7807 125.049 33.8333 124.814 33.9407C124.578 34.0482 124.369 34.2076 124.203 34.4071C123.84 34.8265 123.658 35.3378 123.658 35.9754V39.8784H122.568V33.0215H123.658V34.1521H123.694C124.203 33.2937 124.965 32.8572 125.928 32.8572C126.673 32.8572 127.236 33.0939 127.635 33.5868C128.035 34.0785 128.234 34.7725 128.234 35.6836V39.8772L128.253 39.8784ZM135.19 39.8784H134.101V38.8018H134.064C133.593 39.6234 132.885 40.0427 131.958 40.0427C131.268 40.0427 130.742 39.86 130.359 39.4946C129.978 39.1304 129.778 38.6559 129.778 38.0551C129.778 36.7786 130.541 36.0306 132.031 35.8111L134.083 35.5193C134.083 34.3532 133.61 33.7695 132.684 33.7695C131.867 33.7695 131.123 34.0429 130.451 34.6082V33.4777C131.123 33.0399 131.903 32.84 132.775 32.84C134.373 32.84 135.172 33.6959 135.172 35.3918V39.8784H135.19ZM134.101 36.4132L132.449 36.6327C131.939 36.7062 131.558 36.8325 131.304 37.0152C131.049 37.198 130.922 37.5253 130.922 37.9815C130.922 38.3101 131.032 38.5823 131.286 38.803C131.522 39.0213 131.831 39.112 132.23 39.112C132.481 39.12 132.731 39.0737 132.963 38.9764C133.195 38.8791 133.404 38.733 133.575 38.548C133.937 38.1642 134.101 37.6897 134.101 37.106V36.4132ZM140.42 39.8232C140.166 39.9704 139.822 40.0427 139.404 40.0427C138.205 40.0427 137.606 39.3683 137.606 38.0367V33.9694H136.443V33.0399H137.606V31.3613L138.696 31.0155V33.0387H140.42V33.9706H138.696V37.8356C138.696 38.2917 138.768 38.6203 138.932 38.8202C139.095 39.0213 139.349 39.112 139.695 39.112C139.949 39.1208 140.198 39.044 140.403 38.8938V39.8232H140.42ZM142.364 31.2889C142.176 31.289 141.994 31.2171 141.856 31.0878C141.711 30.9603 141.656 30.7776 141.656 30.5777C141.654 30.4834 141.671 30.3896 141.705 30.3018C141.74 30.2141 141.791 30.134 141.856 30.0664C141.924 30.0011 142.003 29.9499 142.091 29.9155C142.178 29.8812 142.271 29.8646 142.364 29.8665C142.565 29.8665 142.745 29.9401 142.872 30.0664C142.944 30.1306 143 30.2096 143.038 30.2979C143.076 30.3862 143.094 30.4817 143.091 30.5777C143.091 30.7776 143.018 30.9419 142.872 31.0878C142.805 31.1533 142.726 31.2048 142.638 31.2393C142.551 31.2738 142.458 31.2907 142.364 31.2889ZM142.909 37.9631C142.909 38.6007 143.145 38.911 143.636 38.911C143.836 38.911 143.998 38.8938 144.162 38.8386V39.8232C144.048 39.8474 143.933 39.8658 143.818 39.8784C143.672 39.8956 143.527 39.9152 143.382 39.9152C143.171 39.9157 142.962 39.8783 142.764 39.8049C142.577 39.7348 142.41 39.6223 142.274 39.4762C142.124 39.3224 142.011 39.135 141.947 38.9293C141.855 38.6851 141.812 38.4251 141.82 38.1642V33.0387H142.909V37.9631ZM148.194 40.0427C147.177 40.0427 146.378 39.7141 145.779 39.0753C145.179 38.4376 144.87 37.5793 144.87 36.5223C144.87 35.3734 145.179 34.4623 145.815 33.8247C146.45 33.1858 147.286 32.856 148.358 32.856C149.375 32.856 150.174 33.1674 150.737 33.8051C151.3 34.4427 151.59 35.301 151.59 36.4316C151.59 37.5253 151.281 38.4009 150.663 39.0569C150.065 39.7141 149.23 40.0427 148.194 40.0427ZM148.285 33.7867C147.576 33.7867 147.032 34.0246 146.614 34.5163C146.196 34.9908 145.996 35.6652 145.996 36.5039C145.996 37.3255 146.215 37.9631 146.614 38.4192C147.032 38.8926 147.576 39.112 148.266 39.112C148.975 39.112 149.52 38.8754 149.901 38.4192C150.282 37.9631 150.483 37.3071 150.483 36.4684C150.483 35.61 150.282 34.954 149.901 34.4795C149.52 34.0246 148.975 33.7867 148.285 33.7867ZM159.017 39.8784H157.928V35.9754C157.928 34.5163 157.402 33.7867 156.348 33.7867C156.089 33.7807 155.832 33.8333 155.597 33.9407C155.361 34.0482 155.152 34.2076 154.986 34.4071C154.622 34.8265 154.459 35.3378 154.459 35.9754V39.8784H153.351V33.0215H154.459V34.1521H154.477C155.003 33.2937 155.748 32.8572 156.711 32.8572C157.455 32.8572 158.018 33.0939 158.418 33.5868C158.818 34.0785 159.017 34.7725 159.017 35.6836V39.8784ZM165.955 39.8784H164.865V38.8018H164.847C164.376 39.6234 163.667 40.0427 162.741 40.0427C162.069 40.0427 161.524 39.86 161.142 39.4946C160.761 39.1304 160.561 38.6559 160.561 38.0551C160.561 36.7786 161.306 36.0306 162.814 35.8111L164.847 35.5193C164.847 34.3532 164.376 33.7695 163.431 33.7695C162.614 33.7695 161.869 34.0429 161.215 34.6082V33.4777C161.887 33.0399 162.65 32.84 163.539 32.84C165.138 32.84 165.938 33.6959 165.938 35.3918V39.8784H165.955ZM164.865 36.4132L163.213 36.6327C162.704 36.7062 162.323 36.8325 162.069 37.0152C161.815 37.198 161.687 37.5253 161.687 37.9815C161.687 38.3101 161.797 38.5823 162.051 38.803C162.286 39.0213 162.614 39.112 162.995 39.112C163.539 39.112 163.994 38.9306 164.339 38.548C164.683 38.1642 164.865 37.6897 164.865 37.106V36.4132ZM169.025 37.9631C169.025 38.6007 169.26 38.9122 169.751 38.9122C169.952 38.9122 170.132 38.8938 170.278 38.8386V39.8232C170.187 39.8416 170.079 39.86 169.95 39.8784C169.806 39.8968 169.661 39.9152 169.497 39.9152C169.286 39.9157 169.077 39.8783 168.879 39.8049C168.695 39.7309 168.529 39.6194 168.39 39.4775C168.239 39.3196 168.122 39.1332 168.044 38.9293C167.96 38.683 167.918 38.4245 167.917 38.1642V29.739H169.006V37.9631H169.025ZM179.103 39.8784V30.2859H181.737C185.115 30.2859 186.785 31.8358 186.785 34.9724C186.785 36.45 186.314 37.6529 185.387 38.5468C184.461 39.4407 183.208 39.8956 181.628 39.8956H179.103V39.8784ZM180.212 31.3073V38.8754H181.647C182.899 38.8754 183.88 38.5468 184.57 37.8724C185.278 37.198 185.624 36.2489 185.624 35.0092C185.624 32.547 184.316 31.3257 181.719 31.3257H180.212V31.3073ZM189.002 31.2889C188.911 31.2905 188.82 31.2735 188.736 31.2389C188.652 31.2043 188.576 31.1529 188.512 31.0878C188.367 30.9603 188.312 30.7776 188.312 30.5777C188.31 30.4834 188.326 30.3896 188.361 30.3018C188.395 30.2141 188.446 30.134 188.512 30.0664C188.645 29.9409 188.819 29.8696 189.002 29.8665C189.191 29.8634 189.374 29.9352 189.511 30.0664C189.582 30.1307 189.638 30.2097 189.675 30.298C189.713 30.3863 189.731 30.4818 189.728 30.5777C189.727 30.6724 189.708 30.7659 189.671 30.853C189.633 30.94 189.58 31.0189 189.512 31.085C189.445 31.1511 189.365 31.2031 189.277 31.2381C189.189 31.2731 189.096 31.2904 189.002 31.2889ZM189.546 37.9631C189.546 38.6007 189.783 38.911 190.273 38.911C190.451 38.9167 190.629 38.8922 190.799 38.8386V39.8232C190.709 39.8416 190.6 39.86 190.455 39.8784C190.309 39.8956 190.164 39.9152 190.019 39.9152C189.801 39.9152 189.601 39.8784 189.401 39.8049C189.215 39.7345 189.047 39.622 188.911 39.4762C188.761 39.3221 188.649 39.1348 188.584 38.9293C188.501 38.6828 188.458 38.4244 188.457 38.1642V33.0387H189.546V37.9631ZM196.866 39.8784H195.777V38.8018H195.74C195.267 39.6234 194.577 40.0427 193.652 40.0427C192.961 40.0427 192.434 39.86 192.053 39.4946C191.672 39.1304 191.472 38.6559 191.472 38.0551C191.472 36.7786 192.217 36.0306 193.724 35.8111L195.777 35.5193C195.777 34.3532 195.304 33.7695 194.377 33.7695C193.56 33.7695 192.815 34.0429 192.144 34.6082V33.4777C192.815 33.0399 193.578 32.84 194.469 32.84C196.067 32.84 196.866 33.6959 196.866 35.3918V39.8784ZM195.777 36.4132L194.123 36.6327C193.615 36.7062 193.233 36.8325 192.979 37.0152C192.725 37.198 192.598 37.5253 192.598 37.9815C192.598 38.3101 192.725 38.5823 192.961 38.803C193.197 39.0213 193.523 39.112 193.906 39.112C194.45 39.112 194.886 38.9306 195.249 38.548C195.613 38.1642 195.777 37.6897 195.777 37.106V36.4132ZM199.953 37.9631C199.953 38.6007 200.189 38.9122 200.679 38.9122C200.878 38.9122 201.042 38.8938 201.206 38.8386V39.8232C201.134 39.8416 201.007 39.86 200.878 39.8784C200.733 39.8968 200.588 39.9152 200.425 39.9152C200.215 39.9157 200.005 39.8783 199.808 39.8049C199.623 39.7306 199.456 39.6192 199.317 39.4775C199.166 39.3232 199.055 39.1354 198.991 38.9293C198.898 38.6853 198.855 38.4252 198.864 38.1642V29.739H199.953V37.9631ZM205.238 40.0427C204.221 40.0427 203.422 39.7141 202.823 39.0753C202.223 38.4376 201.914 37.5793 201.914 36.5223C201.914 35.3734 202.223 34.4623 202.859 33.8247C203.494 33.1858 204.329 32.856 205.402 32.856C206.418 32.856 207.217 33.1674 207.78 33.8051C208.343 34.4427 208.634 35.301 208.634 36.4316C208.634 37.5253 208.325 38.4009 207.707 39.0569C207.109 39.7141 206.272 40.0427 205.238 40.0427ZM205.328 33.7867C204.62 33.7867 204.075 34.0246 203.658 34.5163C203.24 34.9908 203.04 35.6652 203.04 36.5039C203.04 37.3255 203.24 37.9631 203.658 38.4192C204.075 38.8926 204.62 39.112 205.31 39.112C206.018 39.112 206.563 38.8754 206.945 38.4192C207.326 37.9631 207.526 37.3071 207.526 36.4684C207.526 35.61 207.326 34.954 206.945 34.4795C206.563 34.0246 206.018 33.7867 205.328 33.7867ZM216.206 39.3315C216.206 41.8477 215.008 43.1058 212.611 43.1058C211.776 43.1058 211.031 42.9415 210.395 42.6325V41.5375C211.158 41.9752 211.903 42.1751 212.593 42.1751C214.264 42.1751 215.117 41.2824 215.117 39.4775V38.7295H215.099C214.573 39.605 213.791 40.0415 212.757 40.0415C211.903 40.0415 211.231 39.7325 210.704 39.1304C210.178 38.5296 209.924 37.7081 209.924 36.6866C209.924 35.5205 210.196 34.5898 210.759 33.9154C211.322 33.2226 212.085 32.8756 213.047 32.8756C213.973 32.8756 214.645 33.2398 215.099 33.9878H215.117V33.0399H216.206V39.3315ZM215.117 36.7786V35.7756C215.117 35.2287 214.935 34.7725 214.573 34.3716C214.399 34.1834 214.189 34.0341 213.954 33.9335C213.719 33.8329 213.466 33.7833 213.211 33.7879C212.538 33.7879 212.012 34.0429 211.631 34.5359C211.249 35.0264 211.049 35.7204 211.049 36.6143C211.049 37.3794 211.231 37.9815 211.594 38.4376C211.957 38.8938 212.448 39.1304 213.047 39.1304C213.664 39.1304 214.155 38.9122 214.536 38.4744C214.918 38.0183 215.117 37.4714 215.117 36.7786ZM223.944 39.8784H222.854V38.803H222.818C222.363 39.6418 221.655 40.0415 220.711 40.0415C219.076 40.0415 218.259 39.0765 218.259 37.1244V33.0215H219.348V36.9429C219.348 38.3825 219.893 39.1133 221.002 39.1133C221.528 39.1133 221.982 38.9122 222.309 38.5296C222.654 38.1274 222.836 37.6173 222.836 36.9785V33.0215H223.925V39.8784H223.944ZM231.644 36.7234H226.832C226.85 37.4886 227.049 38.0722 227.448 38.4916C227.831 38.911 228.375 39.112 229.065 39.112C229.828 39.112 230.537 38.857 231.19 38.3457V39.3671C230.59 39.8048 229.792 40.0243 228.811 40.0243C227.848 40.0243 227.086 39.7141 226.541 39.0937C225.996 38.4732 225.706 37.5977 225.706 36.4684C225.706 35.4102 226.013 34.5347 226.613 33.8602C226.889 33.5378 227.232 33.2807 227.618 33.1073C228.004 32.9338 228.424 32.8484 228.847 32.8572C229.737 32.8572 230.427 33.149 230.918 33.7327C231.407 34.3164 231.644 35.1183 231.644 36.1397V36.7234ZM230.518 35.7927C230.518 35.1551 230.355 34.6622 230.064 34.3164C229.755 33.9694 229.356 33.7867 228.811 33.7867C228.302 33.7867 227.866 33.9706 227.503 34.3519C227.139 34.7174 226.922 35.2103 226.832 35.8111H230.518V35.7927ZM241.542 30.7052C241.321 30.579 241.069 30.5158 240.815 30.5225C240.052 30.5225 239.671 31.0155 239.671 31.9817V33.0399H241.269V33.9694H239.671V39.8784H238.582V33.9694H237.419V33.0399H238.582V31.9278C238.582 31.2166 238.781 30.6329 239.198 30.2319C239.616 29.8113 240.125 29.6115 240.742 29.6115C241.069 29.6115 241.341 29.6483 241.542 29.7218V30.7052ZM245.3 40.0427C244.302 40.0427 243.485 39.7141 242.885 39.0753C242.287 38.4376 241.978 37.5793 241.978 36.5223C241.978 35.3734 242.287 34.4623 242.922 33.8247C243.558 33.1858 244.393 32.856 245.464 32.856C246.481 32.856 247.28 33.1674 247.843 33.8051C248.406 34.4427 248.696 35.301 248.696 36.4316C248.696 37.5253 248.389 38.4009 247.771 39.0569C247.153 39.7141 246.336 40.0427 245.3 40.0427ZM245.374 33.7867C244.665 33.7867 244.121 34.0246 243.703 34.5163C243.303 34.9908 243.085 35.6652 243.085 36.5039C243.085 37.3255 243.285 37.9631 243.703 38.4192C244.121 38.8926 244.665 39.112 245.355 39.112C246.064 39.112 246.608 38.8754 246.989 38.4192C247.371 37.9631 247.553 37.3071 247.553 36.4684C247.553 35.61 247.353 34.954 246.989 34.4795C246.627 34.0246 246.082 33.7867 245.374 33.7867ZM254 34.1337C253.8 33.9878 253.527 33.9154 253.165 33.9154C252.692 33.9154 252.311 34.1337 252.002 34.5714C251.693 35.0092 251.53 35.6113 251.53 36.3776V39.86H250.44V33.0031H251.53V34.4071H251.548C251.711 33.9338 251.947 33.55 252.256 33.2766C252.583 33.0031 252.928 32.8756 253.328 32.8756C253.619 32.8756 253.836 32.9124 253.982 32.9663V34.1337H254ZM99.922 53.8841H94.8542V44.2903H99.7047V45.3117H95.9801V48.5023H99.4311V49.5065H95.9826V52.8614H99.9233V53.8828L99.922 53.8841ZM107.295 53.8841H106.205V49.9798C106.205 48.5207 105.68 47.7911 104.608 47.7911C104.349 47.7849 104.092 47.8375 103.856 47.9449C103.62 48.0523 103.411 48.2118 103.245 48.4115C102.882 48.8309 102.718 49.341 102.718 49.9798V53.8816H101.629V47.0259H102.718V48.1565H102.737C103.245 47.2981 104.007 46.8616 104.972 46.8616C105.715 46.8616 106.296 47.0983 106.677 47.5912C107.077 48.0829 107.276 48.7757 107.276 49.688V53.8816H107.295V53.8841ZM114.704 47.0456L111.981 53.9025H110.909L108.33 47.0456H109.529L111.273 52.0239C111.4 52.3881 111.49 52.7167 111.508 52.9718H111.545C111.582 52.6248 111.654 52.3158 111.762 52.0423L113.578 47.0456H114.704ZM116.376 45.2945C116.187 45.2948 116.005 45.2229 115.867 45.0934C115.721 44.9659 115.668 44.7832 115.668 44.5833C115.668 44.3823 115.741 44.1995 115.867 44.072C116.005 43.9426 116.186 43.8705 116.375 43.8705C116.564 43.8705 116.746 43.9426 116.884 44.072C116.954 44.1374 117.009 44.2166 117.047 44.3046C117.084 44.3926 117.103 44.4876 117.102 44.5833C117.105 44.6765 117.086 44.769 117.049 44.854C117.011 44.9391 116.954 45.0146 116.884 45.075C116.819 45.145 116.74 45.2006 116.653 45.2383C116.565 45.2761 116.471 45.2953 116.376 45.2945ZM116.902 51.9687C116.902 52.5892 117.138 52.9166 117.629 52.9166C117.829 52.9166 118.01 52.8994 118.155 52.843V53.8289C118.065 53.8473 117.956 53.8657 117.811 53.8828C117.666 53.9042 117.521 53.9165 117.375 53.9196C117.164 53.9205 116.955 53.8835 116.757 53.8105C116.568 53.7447 116.4 53.6316 116.267 53.4819C116.117 53.3279 116.005 53.1405 115.94 52.935C115.857 52.6885 115.814 52.4301 115.813 52.1698V47.0443H116.902V51.9687ZM122.896 48.1565C122.714 48.0106 122.423 47.9382 122.06 47.9382C121.588 47.9382 121.206 48.1565 120.898 48.5942C120.589 49.032 120.426 49.6341 120.426 50.4004V53.9012H119.336V47.0443H120.425V48.4483H120.462C120.608 47.975 120.861 47.5912 121.17 47.3178C121.497 47.0443 121.842 46.9168 122.242 46.9168C122.533 46.9168 122.75 46.9536 122.896 47.0088V48.1565ZM126.945 54.0471C125.929 54.0471 125.129 53.7197 124.53 53.0809C123.931 52.4433 123.622 51.5849 123.622 50.528C123.622 49.379 123.931 48.4851 124.566 47.8291C125.184 47.1731 126.038 46.8628 127.109 46.8628C128.126 46.8628 128.926 47.1731 129.489 47.8107C130.052 48.4312 130.342 49.3067 130.342 50.4372C130.342 51.531 130.033 52.4065 129.415 53.0625C128.797 53.7197 127.98 54.0471 126.945 54.0471ZM127.018 47.7935C126.328 47.7935 125.765 48.0302 125.348 48.5047C124.948 48.978 124.73 49.6524 124.73 50.4912C124.73 51.2943 124.948 51.9503 125.348 52.4065C125.765 52.881 126.31 53.0993 127 53.0993C127.708 53.0993 128.253 52.8626 128.635 52.4065C129.016 51.9503 129.198 51.2943 129.198 50.4372C129.198 49.5789 128.998 48.9229 128.635 48.4496C128.271 48.0302 127.726 47.7935 127.018 47.7935ZM137.751 53.8841H136.662V49.9798C136.662 48.5207 136.135 47.7911 135.063 47.7911C134.804 47.7851 134.548 47.8377 134.312 47.9452C134.076 48.0526 133.867 48.212 133.702 48.4115C133.338 48.8309 133.174 49.341 133.174 49.9798V53.8816H132.085V47.0259H133.174V48.1565H133.192C133.72 47.2981 134.464 46.8616 135.427 46.8616C136.171 46.8616 136.752 47.0983 137.133 47.5912C137.534 48.0829 137.733 48.7757 137.733 49.688V53.8816H137.751V53.8841ZM149.502 53.8828H148.412V49.9443C148.412 49.1779 148.303 48.6322 148.067 48.3024C147.83 47.9566 147.449 47.7923 146.886 47.7923C146.414 47.7923 146.014 48.0106 145.687 48.4299C145.361 48.8677 145.198 49.379 145.198 49.9811V53.8828H144.108V49.8168C144.108 48.4679 143.599 47.7923 142.546 47.7923C142.074 47.7923 141.675 47.9934 141.366 48.3931C141.057 48.7953 140.893 49.3251 140.893 49.9627V53.8644H139.804V47.0088H140.893V48.1025H140.93C141.419 47.2638 142.11 46.8628 143.054 46.8628C143.527 46.8628 143.926 46.9904 144.271 47.2454C144.616 47.5005 144.852 47.8463 144.979 48.2668C145.488 47.3178 146.233 46.8445 147.249 46.8445C148.757 46.8445 149.502 47.7739 149.502 49.6341V53.8828ZM157.056 50.7278H152.244C152.262 51.4942 152.462 52.0766 152.861 52.4972C153.242 52.9166 153.787 53.1177 154.477 53.1177C155.24 53.1177 155.949 52.8614 156.602 52.3513V53.3911C156.004 53.8289 155.204 54.0471 154.223 54.0471C153.261 54.0471 152.498 53.7369 151.953 53.1177C151.408 52.4972 151.118 51.6217 151.118 50.4912C151.118 49.4158 151.427 48.5587 152.026 47.883C152.625 47.2086 153.369 46.88 154.26 46.88C155.15 46.88 155.84 47.1719 156.33 47.7555C156.82 48.3392 157.056 49.1411 157.056 50.1809V50.7278ZM155.949 49.7984C155.949 49.1607 155.785 48.6678 155.494 48.3208C155.185 47.975 154.786 47.7923 154.241 47.7923C153.733 47.7923 153.297 47.975 152.934 48.3576C152.571 48.7218 152.352 49.2147 152.262 49.8168H155.949V49.7984ZM164.376 53.8841H163.285V49.9798C163.285 48.5207 162.759 47.7911 161.705 47.7911C161.446 47.7851 161.189 47.8377 160.954 47.9452C160.718 48.0526 160.509 48.212 160.343 48.4115C159.981 48.8309 159.817 49.341 159.817 49.9798V53.8816H158.727V47.0259H159.817V48.1565H159.836C160.344 47.2981 161.107 46.8616 162.069 46.8616C162.814 46.8616 163.377 47.0983 163.776 47.5912C164.175 48.0829 164.376 48.7757 164.376 49.688V53.8816V53.8841ZM169.606 53.8289C169.352 53.9748 169.006 54.0471 168.589 54.0471C167.39 54.0471 166.791 53.3727 166.791 52.0411V47.9934H165.629V47.0627H166.791V45.3853L167.88 45.0395V47.0627H169.606V47.9934H167.88V51.8596C167.88 52.3145 167.953 52.6444 168.116 52.8442C168.28 53.0441 168.534 53.1361 168.879 53.1361C169.133 53.1445 169.383 53.0672 169.588 52.9166V53.8289H169.606ZM175.944 53.8841H174.854V52.8075H174.818C174.345 53.629 173.637 54.0288 172.73 54.0288C172.04 54.0288 171.512 53.8473 171.131 53.4819C170.75 53.1177 170.55 52.6431 170.55 52.0411C170.55 50.7658 171.313 50.0179 172.802 49.7984L174.854 49.5065C174.854 48.3392 174.382 47.7555 173.456 47.7555C172.638 47.7555 171.894 48.0302 171.222 48.5955V47.4649C171.894 47.0443 172.656 46.8261 173.547 46.8261C175.145 46.8261 175.944 47.6832 175.944 49.379V53.8841ZM174.854 50.4188L173.201 50.6371C172.693 50.7107 172.312 50.8382 172.057 51.0209C171.803 51.2024 171.676 51.531 171.676 51.9871C171.676 52.3145 171.803 52.588 172.04 52.8075C172.275 53.0257 172.584 53.1177 172.984 53.1177C173.528 53.1177 173.964 52.935 174.327 52.5524C174.673 52.1686 174.854 51.6941 174.854 51.1116V50.4188ZM179.032 51.9687C179.032 52.5892 179.268 52.9166 179.759 52.9166C179.958 52.9166 180.121 52.8994 180.285 52.843V53.8289C180.171 53.853 180.055 53.8714 179.939 53.8841C179.794 53.9012 179.649 53.9208 179.503 53.9208C179.286 53.9208 179.086 53.8841 178.887 53.8105C178.698 53.7454 178.529 53.6326 178.396 53.4831C178.246 53.3286 178.133 53.1409 178.069 52.935C177.977 52.6907 177.934 52.4308 177.942 52.1698V43.7446H179.032V51.9687ZM193.906 53.8841H192.671L191.654 51.1852H187.603L186.641 53.8828H185.388L189.056 44.2915H190.219L193.906 53.8841ZM191.273 50.1809L189.765 46.0977C189.711 45.969 189.674 45.7507 189.619 45.4589H189.601C189.581 45.6788 189.525 45.894 189.438 46.0965L187.949 50.1822L191.273 50.1809ZM199.808 53.5726C199.281 53.8828 198.663 54.0471 197.937 54.0471C196.956 54.0471 196.176 53.7369 195.576 53.0993C194.977 52.4617 194.686 51.6401 194.686 50.6187C194.686 49.4881 195.013 48.5758 195.648 47.9014C196.303 47.2086 197.156 46.88 198.227 46.88C198.827 46.88 199.353 46.9904 199.808 47.2086V48.3392C199.333 47.9915 198.761 47.8063 198.174 47.8107C197.484 47.8107 196.902 48.0658 196.466 48.5587C196.012 49.0688 195.794 49.726 195.794 50.528C195.794 51.3299 196.012 51.9687 196.43 52.4249C196.847 52.8798 197.41 53.1177 198.119 53.1177C198.718 53.1177 199.281 52.9166 199.789 52.5156V53.5726H199.808ZM204.638 53.8289C204.384 53.9748 204.039 54.0471 203.621 54.0471C202.423 54.0471 201.824 53.3727 201.824 52.0411V47.9934H200.643V47.0627H201.824V45.3853L202.913 45.0395V47.0627H204.638V47.9934H202.913V51.8596C202.913 52.3145 202.986 52.6444 203.149 52.8442C203.294 53.0441 203.567 53.1361 203.93 53.1361C204.184 53.1418 204.432 53.0647 204.638 52.9166V53.8289ZM206.581 45.2945C206.49 45.2961 206.4 45.2791 206.316 45.2445C206.232 45.21 206.155 45.1586 206.092 45.0934C205.946 44.9659 205.891 44.7832 205.891 44.5833C205.889 44.489 205.906 44.3953 205.94 44.3075C205.975 44.2197 206.026 44.1397 206.092 44.072C206.223 43.9437 206.398 43.8719 206.581 43.8721C206.771 43.869 206.953 43.9408 207.09 44.072C207.219 44.211 207.29 44.3937 207.29 44.5833C207.291 44.6746 207.274 44.7652 207.24 44.8497C207.206 44.9342 207.155 45.0109 207.09 45.075C207.025 45.145 206.947 45.2007 206.859 45.2385C206.771 45.2763 206.677 45.2954 206.581 45.2945ZM207.108 51.9687C207.108 52.5892 207.345 52.9166 207.834 52.9166C208.034 52.9166 208.198 52.8994 208.362 52.843V53.8289C208.253 53.8503 208.144 53.8683 208.034 53.8828C207.889 53.9012 207.744 53.9196 207.58 53.9196C207.363 53.9196 207.163 53.8828 206.962 53.8105C206.774 53.7447 206.605 53.6315 206.473 53.4819C206.323 53.324 206.205 53.1382 206.127 52.935C206.044 52.6884 206.001 52.4301 206 52.1698V47.0443H207.09V51.9687H207.108ZM212.411 54.0471C211.394 54.0471 210.595 53.7197 209.996 53.0809C209.397 52.4433 209.088 51.5849 209.088 50.528C209.088 49.379 209.397 48.4851 210.032 47.8291C210.668 47.1731 211.504 46.8628 212.575 46.8628C213.592 46.8628 214.391 47.1731 214.953 47.8107C215.535 48.4312 215.807 49.3067 215.807 50.4372C215.807 51.531 215.499 52.4065 214.881 53.0625C214.264 53.7197 213.447 54.0471 212.411 54.0471ZM212.484 47.7935C211.776 47.7935 211.231 48.0302 210.814 48.5047C210.395 48.978 210.196 49.6524 210.196 50.4912C210.196 51.2943 210.395 51.9503 210.814 52.4065C211.231 52.881 211.776 53.0993 212.484 53.0993C213.193 53.0993 213.737 52.8626 214.118 52.4065C214.5 51.9503 214.681 51.2943 214.681 50.4372C214.681 49.5789 214.482 48.9229 214.118 48.4496C213.737 48.0302 213.193 47.7935 212.484 47.7935ZM223.217 53.8841H222.128V49.9798C222.128 48.5207 221.601 47.7911 220.548 47.7911C220.289 47.7851 220.032 47.8377 219.796 47.9452C219.561 48.0526 219.352 48.212 219.186 48.4115C218.822 48.8309 218.658 49.341 218.658 49.9798V53.8816H217.569V47.0259H218.658V48.1565H218.695C219.203 47.2981 219.948 46.8616 220.929 46.8616C221.674 46.8616 222.236 47.0983 222.636 47.5912C223.035 48.0829 223.235 48.7757 223.235 49.688V53.8816H223.217V53.8841Z" fill="white"/>
    <path d="M43.296 87.0184C19.4139 87.0184 0 67.5243 0 43.5435C0 19.564 19.4139 0.0502472 43.296 0.0502472C49.7254 0.0502472 55.9179 1.43585 61.6927 4.15433L61.1664 5.30328C55.5771 2.66104 49.4737 1.29702 43.296 1.30955C20.1039 1.30955 1.2529 20.2568 1.2529 43.5251C1.2529 66.7947 20.1039 85.7431 43.296 85.7431C46.3374 85.7458 49.3699 85.4152 52.3399 84.7573L52.6122 85.9969C49.5801 86.6713 46.438 87.0184 43.2948 87.0184H43.296Z" fill="#0FAEDD"/>
    <path d="M35.0143 43.5251C35.0143 45.7139 34.361 47.7384 33.0531 49.5985C31.7465 51.4586 30.0564 52.7535 28.0049 53.4831C26.9431 53.8589 25.8251 54.0496 24.6992 54.0471H16.6543V33.0215H24.6992C26.6604 33.0215 28.4946 33.5684 30.1663 34.6634C31.8186 35.7388 33.0715 37.1612 33.9617 38.949C34.6516 40.4253 35.0143 41.9581 35.0143 43.5251ZM29.3665 43.5251C29.3665 42.0856 28.9672 40.8091 28.1502 39.7325C27.078 38.3101 25.4808 37.5805 23.3376 37.5805H22.1018V49.4894H23.3376C25.4808 49.4894 27.0964 48.7782 28.149 47.3374C28.9672 46.2424 29.3665 44.9843 29.3665 43.5264V43.5251ZM12.241 54.0484H6.79224V33.0215H12.241V54.0484ZM50.4155 54.0484H38.5019V33.0215H50.4155V37.5805H43.9312V41.1733H50.0516V45.7323H43.9312V49.4894H50.4155V54.0484ZM73.7701 54.0484H67.9586L66.6153 50.382H59.0967L57.6618 54.0484H51.9041L59.9686 33.0215H65.9071L73.7701 54.0484ZM65.1255 46.2252L62.8737 39.5314L60.5853 46.2252H65.1255Z" fill="#0FAEDD"/>
  </g>
  <defs>
    <clipPath id="clip0_1_9">
      <rect width="254" height="87.0601" fill="white"/>
    </clipPath>
  </defs>
</svg>