<svg xmlns="http://www.w3.org/2000/svg" width="58" height="50" viewBox="0 0 58 50" fill="none">
  <mask id="path-1-outside-1_376_2262" maskUnits="userSpaceOnUse" x="-0.700195" y="-0.699707" width="59" height="51" fill="black">
    <rect fill="white" x="-0.700195" y="-0.699707" width="59" height="51"/>
    <path d="M54.8904 8.22112C49.9725 8.2544 46.2822 10.5322 43.6519 14.5799C42.1322 16.9168 41.4789 19.5126 41.7624 22.2316C41.7698 22.2994 41.7451 22.3684 41.6971 22.4165C40.5779 23.5258 39.4957 24.5993 38.3766 25.7074C38.3236 25.7604 38.2484 25.7838 38.1757 25.7703C37.7714 25.6963 37.3129 25.6199 36.8593 25.5176C36.423 25.419 35.9916 25.2945 35.5454 25.1737C35.4455 25.1466 35.3765 25.0554 35.3765 24.9531C35.3765 24.2123 35.3802 23.5098 35.3753 22.8084C35.3506 18.8975 35.2915 18.8643 37.7184 15.5166C40.218 12.0679 42.6782 8.58965 45.1667 5.13233C45.7214 4.36198 46.0073 3.53863 45.7855 2.59695C45.5069 1.40877 44.7513 0.62856 43.5706 0.383281C42.317 0.121978 41.2718 0.553374 40.5126 1.61091C38.448 4.49016 36.3835 7.36942 34.3214 10.2499C33.4623 11.4504 32.3666 12.3292 30.943 12.7803C27.9836 13.7183 25.0255 12.7693 23.2112 10.2598C21.1479 7.40516 19.1067 4.5333 17.0508 1.67377C16.2373 0.542281 15.0442 0.0763736 13.8437 0.401769C11.7853 0.958885 11.0236 3.25637 12.3153 5.067C15.2575 9.18991 18.2082 13.3067 21.1688 17.416C21.7321 18.1974 22.0501 19.1268 22.0895 20.0894C22.1561 21.7041 22.1056 23.3261 22.1019 24.9938C22.1019 25.0998 22.0279 25.1922 21.9231 25.2156C21.0345 25.4116 20.1532 25.6063 19.352 25.7826C19.2768 25.7986 19.1992 25.7764 19.1437 25.7222C17.9851 24.5821 16.8992 23.5122 15.8146 22.4448C15.769 22.3992 15.7443 22.3364 15.748 22.271C15.9009 19.1576 15.4473 16.9661 13.8733 14.5934C10.9435 10.1747 6.92044 7.81684 1.4787 8.32342C0.864884 8.38012 0.397745 8.89409 0.373093 9.51037C0.331187 10.5704 0.214093 11.655 0.408838 12.6768C1.3727 17.7513 4.35795 21.2 9.15507 23.0623C10.8387 23.7156 12.605 23.9325 14.2763 23.7144C14.3454 23.7057 14.4156 23.7279 14.4649 23.7772C15.642 24.9346 16.7476 26.0217 17.8803 27.1335C17.9247 27.1779 17.9494 27.237 17.9481 27.2999C17.8742 31.461 17.7485 35.664 18.9095 39.5996C18.9108 39.6057 18.9132 39.6107 18.9157 39.6168L19.7255 41.7824C19.7317 41.7923 19.7378 41.8022 19.7427 41.8133C21.4486 45.5467 24.3821 47.8663 28.2092 49.1433C28.5013 49.2407 28.8735 49.29 29.1558 49.1987C31.4052 48.4728 33.4365 47.3622 35.1263 45.6773C36.2874 44.5187 37.1933 43.1629 37.8872 41.6838C38.1732 41.1132 38.1732 41.1132 38.4776 40.365C38.6514 39.9385 38.7648 39.5047 38.8548 39.0425C39.2184 37.1776 39.423 35.3214 39.5401 33.4713C39.6732 31.3833 39.5734 29.2806 39.5697 27.2641C39.5697 27.2037 39.5943 27.1446 39.6375 27.1014C40.7874 25.9564 41.8783 24.8705 43.0233 23.7304C43.0664 23.6873 43.1256 23.6626 43.186 23.6626C44.1055 23.6725 45.1162 23.8093 46.0714 23.6367C51.0571 22.732 54.5046 19.8565 56.4212 15.19C56.8464 14.1547 57.0091 13.0121 57.2889 11.9163C57.2939 11.8991 57.2963 11.8806 57.2963 11.8621V10.081C57.2963 10.0576 57.2926 10.0342 57.2852 10.012C56.7257 8.25193 56.7096 8.20879 54.8904 8.22112ZM7.73147 14.3876C7.04493 13.706 6.60737 13.6049 6.16488 14.0351C5.72486 14.4628 5.81977 14.9423 6.47795 15.6029C8.40198 17.5331 10.3235 19.4645 12.2525 21.3898C12.2845 21.4218 12.3178 21.4514 12.3536 21.481C12.5224 21.619 12.425 21.8951 12.2069 21.8877C7.16449 21.7152 1.42693 16.1539 2.08142 10.2573C2.09251 10.155 2.17386 10.0712 2.27616 10.0576C7.54905 9.33905 13.5738 14.4468 13.9473 19.9834C13.962 20.1942 13.7094 20.3113 13.559 20.1621C11.5968 18.2184 9.66288 16.3042 7.73147 14.3876ZM13.8178 4.14012C13.5984 3.83075 13.4407 3.39689 13.4518 3.02589C13.4666 2.52054 13.8548 2.17665 14.3614 2.07435C14.8741 1.96958 15.2809 2.2013 15.5792 2.61544C16.7378 4.22886 17.8914 5.84475 19.0488 7.4594C19.9671 8.74126 20.9026 10.0108 21.8011 11.305C25.0871 16.0405 32.4122 16.0491 35.734 11.2988C37.7393 8.42942 39.81 5.6044 41.8437 2.75472C42.1765 2.28758 42.5697 1.95479 43.1737 2.07682C44.0537 2.25307 44.3766 3.20707 43.8134 4.007C42.7657 5.49716 41.6946 6.97254 40.6321 8.45284C38.8437 10.9488 37.0713 13.4583 35.2594 15.9369C34.1156 17.501 33.5745 19.2316 33.5955 21.1568C33.6066 22.1577 33.5992 23.1597 33.5979 24.2974C33.5979 24.4638 33.4254 24.5722 33.275 24.5032C32.0967 23.9646 30.975 23.5073 29.9335 22.9095C29.109 22.4362 28.4742 22.382 27.6274 22.8886C26.5896 23.5085 25.4532 23.9634 24.2514 24.5155C24.1011 24.5846 23.9285 24.4749 23.9285 24.3097C23.926 23.193 23.915 22.2304 23.9322 21.2677C23.968 19.2525 23.3825 17.4641 22.1894 15.8248C19.3668 11.9521 16.5899 8.04733 13.8178 4.14012ZM36.6411 39.9743C35.3531 43.672 32.7709 46.0644 29.1262 47.361C28.8871 47.446 28.558 47.4066 28.309 47.3191C24.4314 45.9497 21.8689 43.296 20.6696 39.3629C19.5098 35.5568 19.6183 31.6422 19.6737 27.6894C19.675 27.5821 19.7526 27.4897 19.8574 27.47C22.9511 26.871 25.8907 25.9022 28.6517 24.3602C28.7195 24.322 28.8033 24.322 28.8711 24.3602C31.6086 25.8874 34.5445 26.8623 37.6666 27.4663C37.7726 27.4872 37.8503 27.5784 37.8503 27.6869C37.8909 31.8764 38.0265 35.998 36.6411 39.9743ZM45.3048 21.9259C45.1014 21.937 44.9892 21.6905 45.1285 21.5438C45.1507 21.5204 45.1741 21.497 45.1963 21.4736C47.1339 19.5274 49.0727 17.5836 51.0103 15.6399C51.1261 15.524 51.2494 15.4143 51.3542 15.2886C51.719 14.8572 51.7239 14.3605 51.3443 14.0302C50.9437 13.6813 50.5259 13.706 50.1302 14.0548C50.007 14.1633 49.896 14.2841 49.7802 14.3999C47.8857 16.3018 45.9901 18.2011 44.0993 20.1067C44.0981 20.1079 44.0956 20.1104 44.0944 20.1116C43.9453 20.2644 43.6864 20.1572 43.6987 19.944C44.0241 14.6378 49.5904 9.45984 55.2108 10.0268C55.3131 10.0367 55.3982 10.1168 55.413 10.2191C56.1809 15.4328 51.0546 21.6129 45.3048 21.9259Z"/>
  </mask>
  <path d="M54.8904 8.22112C49.9725 8.2544 46.2822 10.5322 43.6519 14.5799C42.1322 16.9168 41.4789 19.5126 41.7624 22.2316C41.7698 22.2994 41.7451 22.3684 41.6971 22.4165C40.5779 23.5258 39.4957 24.5993 38.3766 25.7074C38.3236 25.7604 38.2484 25.7838 38.1757 25.7703C37.7714 25.6963 37.3129 25.6199 36.8593 25.5176C36.423 25.419 35.9916 25.2945 35.5454 25.1737C35.4455 25.1466 35.3765 25.0554 35.3765 24.9531C35.3765 24.2123 35.3802 23.5098 35.3753 22.8084C35.3506 18.8975 35.2915 18.8643 37.7184 15.5166C40.218 12.0679 42.6782 8.58965 45.1667 5.13233C45.7214 4.36198 46.0073 3.53863 45.7855 2.59695C45.5069 1.40877 44.7513 0.62856 43.5706 0.383281C42.317 0.121978 41.2718 0.553374 40.5126 1.61091C38.448 4.49016 36.3835 7.36942 34.3214 10.2499C33.4623 11.4504 32.3666 12.3292 30.943 12.7803C27.9836 13.7183 25.0255 12.7693 23.2112 10.2598C21.1479 7.40516 19.1067 4.5333 17.0508 1.67377C16.2373 0.542281 15.0442 0.0763736 13.8437 0.401769C11.7853 0.958885 11.0236 3.25637 12.3153 5.067C15.2575 9.18991 18.2082 13.3067 21.1688 17.416C21.7321 18.1974 22.0501 19.1268 22.0895 20.0894C22.1561 21.7041 22.1056 23.3261 22.1019 24.9938C22.1019 25.0998 22.0279 25.1922 21.9231 25.2156C21.0345 25.4116 20.1532 25.6063 19.352 25.7826C19.2768 25.7986 19.1992 25.7764 19.1437 25.7222C17.9851 24.5821 16.8992 23.5122 15.8146 22.4448C15.769 22.3992 15.7443 22.3364 15.748 22.271C15.9009 19.1576 15.4473 16.9661 13.8733 14.5934C10.9435 10.1747 6.92044 7.81684 1.4787 8.32342C0.864884 8.38012 0.397745 8.89409 0.373093 9.51037C0.331187 10.5704 0.214093 11.655 0.408838 12.6768C1.3727 17.7513 4.35795 21.2 9.15507 23.0623C10.8387 23.7156 12.605 23.9325 14.2763 23.7144C14.3454 23.7057 14.4156 23.7279 14.4649 23.7772C15.642 24.9346 16.7476 26.0217 17.8803 27.1335C17.9247 27.1779 17.9494 27.237 17.9481 27.2999C17.8742 31.461 17.7485 35.664 18.9095 39.5996C18.9108 39.6057 18.9132 39.6107 18.9157 39.6168L19.7255 41.7824C19.7317 41.7923 19.7378 41.8022 19.7427 41.8133C21.4486 45.5467 24.3821 47.8663 28.2092 49.1433C28.5013 49.2407 28.8735 49.29 29.1558 49.1987C31.4052 48.4728 33.4365 47.3622 35.1263 45.6773C36.2874 44.5187 37.1933 43.1629 37.8872 41.6838C38.1732 41.1132 38.1732 41.1132 38.4776 40.365C38.6514 39.9385 38.7648 39.5047 38.8548 39.0425C39.2184 37.1776 39.423 35.3214 39.5401 33.4713C39.6732 31.3833 39.5734 29.2806 39.5697 27.2641C39.5697 27.2037 39.5943 27.1446 39.6375 27.1014C40.7874 25.9564 41.8783 24.8705 43.0233 23.7304C43.0664 23.6873 43.1256 23.6626 43.186 23.6626C44.1055 23.6725 45.1162 23.8093 46.0714 23.6367C51.0571 22.732 54.5046 19.8565 56.4212 15.19C56.8464 14.1547 57.0091 13.0121 57.2889 11.9163C57.2939 11.8991 57.2963 11.8806 57.2963 11.8621V10.081C57.2963 10.0576 57.2926 10.0342 57.2852 10.012C56.7257 8.25193 56.7096 8.20879 54.8904 8.22112ZM7.73147 14.3876C7.04493 13.706 6.60737 13.6049 6.16488 14.0351C5.72486 14.4628 5.81977 14.9423 6.47795 15.6029C8.40198 17.5331 10.3235 19.4645 12.2525 21.3898C12.2845 21.4218 12.3178 21.4514 12.3536 21.481C12.5224 21.619 12.425 21.8951 12.2069 21.8877C7.16449 21.7152 1.42693 16.1539 2.08142 10.2573C2.09251 10.155 2.17386 10.0712 2.27616 10.0576C7.54905 9.33905 13.5738 14.4468 13.9473 19.9834C13.962 20.1942 13.7094 20.3113 13.559 20.1621C11.5968 18.2184 9.66288 16.3042 7.73147 14.3876ZM13.8178 4.14012C13.5984 3.83075 13.4407 3.39689 13.4518 3.02589C13.4666 2.52054 13.8548 2.17665 14.3614 2.07435C14.8741 1.96958 15.2809 2.2013 15.5792 2.61544C16.7378 4.22886 17.8914 5.84475 19.0488 7.4594C19.9671 8.74126 20.9026 10.0108 21.8011 11.305C25.0871 16.0405 32.4122 16.0491 35.734 11.2988C37.7393 8.42942 39.81 5.6044 41.8437 2.75472C42.1765 2.28758 42.5697 1.95479 43.1737 2.07682C44.0537 2.25307 44.3766 3.20707 43.8134 4.007C42.7657 5.49716 41.6946 6.97254 40.6321 8.45284C38.8437 10.9488 37.0713 13.4583 35.2594 15.9369C34.1156 17.501 33.5745 19.2316 33.5955 21.1568C33.6066 22.1577 33.5992 23.1597 33.5979 24.2974C33.5979 24.4638 33.4254 24.5722 33.275 24.5032C32.0967 23.9646 30.975 23.5073 29.9335 22.9095C29.109 22.4362 28.4742 22.382 27.6274 22.8886C26.5896 23.5085 25.4532 23.9634 24.2514 24.5155C24.1011 24.5846 23.9285 24.4749 23.9285 24.3097C23.926 23.193 23.915 22.2304 23.9322 21.2677C23.968 19.2525 23.3825 17.4641 22.1894 15.8248C19.3668 11.9521 16.5899 8.04733 13.8178 4.14012ZM36.6411 39.9743C35.3531 43.672 32.7709 46.0644 29.1262 47.361C28.8871 47.446 28.558 47.4066 28.309 47.3191C24.4314 45.9497 21.8689 43.296 20.6696 39.3629C19.5098 35.5568 19.6183 31.6422 19.6737 27.6894C19.675 27.5821 19.7526 27.4897 19.8574 27.47C22.9511 26.871 25.8907 25.9022 28.6517 24.3602C28.7195 24.322 28.8033 24.322 28.8711 24.3602C31.6086 25.8874 34.5445 26.8623 37.6666 27.4663C37.7726 27.4872 37.8503 27.5784 37.8503 27.6869C37.8909 31.8764 38.0265 35.998 36.6411 39.9743ZM45.3048 21.9259C45.1014 21.937 44.9892 21.6905 45.1285 21.5438C45.1507 21.5204 45.1741 21.497 45.1963 21.4736C47.1339 19.5274 49.0727 17.5836 51.0103 15.6399C51.1261 15.524 51.2494 15.4143 51.3542 15.2886C51.719 14.8572 51.7239 14.3605 51.3443 14.0302C50.9437 13.6813 50.5259 13.706 50.1302 14.0548C50.007 14.1633 49.896 14.2841 49.7802 14.3999C47.8857 16.3018 45.9901 18.2011 44.0993 20.1067C44.0981 20.1079 44.0956 20.1104 44.0944 20.1116C43.9453 20.2644 43.6864 20.1572 43.6987 19.944C44.0241 14.6378 49.5904 9.45984 55.2108 10.0268C55.3131 10.0367 55.3982 10.1168 55.413 10.2191C56.1809 15.4328 51.0546 21.6129 45.3048 21.9259Z" fill="#9FCF67"/>
  <path d="M54.8904 8.22112C49.9725 8.2544 46.2822 10.5322 43.6519 14.5799C42.1322 16.9168 41.4789 19.5126 41.7624 22.2316C41.7698 22.2994 41.7451 22.3684 41.6971 22.4165C40.5779 23.5258 39.4957 24.5993 38.3766 25.7074C38.3236 25.7604 38.2484 25.7838 38.1757 25.7703C37.7714 25.6963 37.3129 25.6199 36.8593 25.5176C36.423 25.419 35.9916 25.2945 35.5454 25.1737C35.4455 25.1466 35.3765 25.0554 35.3765 24.9531C35.3765 24.2123 35.3802 23.5098 35.3753 22.8084C35.3506 18.8975 35.2915 18.8643 37.7184 15.5166C40.218 12.0679 42.6782 8.58965 45.1667 5.13233C45.7214 4.36198 46.0073 3.53863 45.7855 2.59695C45.5069 1.40877 44.7513 0.62856 43.5706 0.383281C42.317 0.121978 41.2718 0.553374 40.5126 1.61091C38.448 4.49016 36.3835 7.36942 34.3214 10.2499C33.4623 11.4504 32.3666 12.3292 30.943 12.7803C27.9836 13.7183 25.0255 12.7693 23.2112 10.2598C21.1479 7.40516 19.1067 4.5333 17.0508 1.67377C16.2373 0.542281 15.0442 0.0763736 13.8437 0.401769C11.7853 0.958885 11.0236 3.25637 12.3153 5.067C15.2575 9.18991 18.2082 13.3067 21.1688 17.416C21.7321 18.1974 22.0501 19.1268 22.0895 20.0894C22.1561 21.7041 22.1056 23.3261 22.1019 24.9938C22.1019 25.0998 22.0279 25.1922 21.9231 25.2156C21.0345 25.4116 20.1532 25.6063 19.352 25.7826C19.2768 25.7986 19.1992 25.7764 19.1437 25.7222C17.9851 24.5821 16.8992 23.5122 15.8146 22.4448C15.769 22.3992 15.7443 22.3364 15.748 22.271C15.9009 19.1576 15.4473 16.9661 13.8733 14.5934C10.9435 10.1747 6.92044 7.81684 1.4787 8.32342C0.864884 8.38012 0.397745 8.89409 0.373093 9.51037C0.331187 10.5704 0.214093 11.655 0.408838 12.6768C1.3727 17.7513 4.35795 21.2 9.15507 23.0623C10.8387 23.7156 12.605 23.9325 14.2763 23.7144C14.3454 23.7057 14.4156 23.7279 14.4649 23.7772C15.642 24.9346 16.7476 26.0217 17.8803 27.1335C17.9247 27.1779 17.9494 27.237 17.9481 27.2999C17.8742 31.461 17.7485 35.664 18.9095 39.5996C18.9108 39.6057 18.9132 39.6107 18.9157 39.6168L19.7255 41.7824C19.7317 41.7923 19.7378 41.8022 19.7427 41.8133C21.4486 45.5467 24.3821 47.8663 28.2092 49.1433C28.5013 49.2407 28.8735 49.29 29.1558 49.1987C31.4052 48.4728 33.4365 47.3622 35.1263 45.6773C36.2874 44.5187 37.1933 43.1629 37.8872 41.6838C38.1732 41.1132 38.1732 41.1132 38.4776 40.365C38.6514 39.9385 38.7648 39.5047 38.8548 39.0425C39.2184 37.1776 39.423 35.3214 39.5401 33.4713C39.6732 31.3833 39.5734 29.2806 39.5697 27.2641C39.5697 27.2037 39.5943 27.1446 39.6375 27.1014C40.7874 25.9564 41.8783 24.8705 43.0233 23.7304C43.0664 23.6873 43.1256 23.6626 43.186 23.6626C44.1055 23.6725 45.1162 23.8093 46.0714 23.6367C51.0571 22.732 54.5046 19.8565 56.4212 15.19C56.8464 14.1547 57.0091 13.0121 57.2889 11.9163C57.2939 11.8991 57.2963 11.8806 57.2963 11.8621V10.081C57.2963 10.0576 57.2926 10.0342 57.2852 10.012C56.7257 8.25193 56.7096 8.20879 54.8904 8.22112ZM7.73147 14.3876C7.04493 13.706 6.60737 13.6049 6.16488 14.0351C5.72486 14.4628 5.81977 14.9423 6.47795 15.6029C8.40198 17.5331 10.3235 19.4645 12.2525 21.3898C12.2845 21.4218 12.3178 21.4514 12.3536 21.481C12.5224 21.619 12.425 21.8951 12.2069 21.8877C7.16449 21.7152 1.42693 16.1539 2.08142 10.2573C2.09251 10.155 2.17386 10.0712 2.27616 10.0576C7.54905 9.33905 13.5738 14.4468 13.9473 19.9834C13.962 20.1942 13.7094 20.3113 13.559 20.1621C11.5968 18.2184 9.66288 16.3042 7.73147 14.3876ZM13.8178 4.14012C13.5984 3.83075 13.4407 3.39689 13.4518 3.02589C13.4666 2.52054 13.8548 2.17665 14.3614 2.07435C14.8741 1.96958 15.2809 2.2013 15.5792 2.61544C16.7378 4.22886 17.8914 5.84475 19.0488 7.4594C19.9671 8.74126 20.9026 10.0108 21.8011 11.305C25.0871 16.0405 32.4122 16.0491 35.734 11.2988C37.7393 8.42942 39.81 5.6044 41.8437 2.75472C42.1765 2.28758 42.5697 1.95479 43.1737 2.07682C44.0537 2.25307 44.3766 3.20707 43.8134 4.007C42.7657 5.49716 41.6946 6.97254 40.6321 8.45284C38.8437 10.9488 37.0713 13.4583 35.2594 15.9369C34.1156 17.501 33.5745 19.2316 33.5955 21.1568C33.6066 22.1577 33.5992 23.1597 33.5979 24.2974C33.5979 24.4638 33.4254 24.5722 33.275 24.5032C32.0967 23.9646 30.975 23.5073 29.9335 22.9095C29.109 22.4362 28.4742 22.382 27.6274 22.8886C26.5896 23.5085 25.4532 23.9634 24.2514 24.5155C24.1011 24.5846 23.9285 24.4749 23.9285 24.3097C23.926 23.193 23.915 22.2304 23.9322 21.2677C23.968 19.2525 23.3825 17.4641 22.1894 15.8248C19.3668 11.9521 16.5899 8.04733 13.8178 4.14012ZM36.6411 39.9743C35.3531 43.672 32.7709 46.0644 29.1262 47.361C28.8871 47.446 28.558 47.4066 28.309 47.3191C24.4314 45.9497 21.8689 43.296 20.6696 39.3629C19.5098 35.5568 19.6183 31.6422 19.6737 27.6894C19.675 27.5821 19.7526 27.4897 19.8574 27.47C22.9511 26.871 25.8907 25.9022 28.6517 24.3602C28.7195 24.322 28.8033 24.322 28.8711 24.3602C31.6086 25.8874 34.5445 26.8623 37.6666 27.4663C37.7726 27.4872 37.8503 27.5784 37.8503 27.6869C37.8909 31.8764 38.0265 35.998 36.6411 39.9743ZM45.3048 21.9259C45.1014 21.937 44.9892 21.6905 45.1285 21.5438C45.1507 21.5204 45.1741 21.497 45.1963 21.4736C47.1339 19.5274 49.0727 17.5836 51.0103 15.6399C51.1261 15.524 51.2494 15.4143 51.3542 15.2886C51.719 14.8572 51.7239 14.3605 51.3443 14.0302C50.9437 13.6813 50.5259 13.706 50.1302 14.0548C50.007 14.1633 49.896 14.2841 49.7802 14.3999C47.8857 16.3018 45.9901 18.2011 44.0993 20.1067C44.0981 20.1079 44.0956 20.1104 44.0944 20.1116C43.9453 20.2644 43.6864 20.1572 43.6987 19.944C44.0241 14.6378 49.5904 9.45984 55.2108 10.0268C55.3131 10.0367 55.3982 10.1168 55.413 10.2191C56.1809 15.4328 51.0546 21.6129 45.3048 21.9259Z" stroke="#9FCF67" stroke-width="0.6" mask="url(#path-1-outside-1_376_2262)"/>
  <path d="M28.7446 1.15234C31.5859 1.146 33.8475 3.39905 33.8462 6.23828C33.8448 9.07585 31.5802 11.3334 28.7437 11.3232C25.9048 11.3131 23.6568 9.04419 23.6743 6.2041C23.6921 3.38811 25.9287 1.15894 28.7446 1.15234ZM28.8101 3.18066C27.1279 3.16077 25.7273 4.51975 25.7085 6.18457C25.6899 7.87416 27.0435 9.26854 28.7104 9.28613C30.399 9.30354 31.7952 7.95085 31.814 6.28516C31.8338 4.60194 30.4751 3.20178 28.8101 3.18066Z" fill="#9FCF67" stroke="#9FCF67" stroke-width="0.3"/>
</svg>