<svg xmlns="http://www.w3.org/2000/svg" width="64" height="64" viewBox="0 0 64 64" fill="none">
  <path d="M18.4625 31.2397C18.543 29.0357 19.1609 26.8847 20.2622 24.9738C21.3636 23.0629 22.9151 21.4501 24.7819 20.2756C24.865 20.2232 24.9654 20.2054 25.0615 20.2263C25.1576 20.2471 25.2416 20.3048 25.2955 20.387L32 30.5969L38.7048 20.3867C38.7587 20.3046 38.8428 20.2468 38.9388 20.226C39.0349 20.2052 39.1353 20.2229 39.2184 20.2754C41.0852 21.4499 42.6367 23.0628 43.738 24.9737C44.8393 26.8846 45.4571 29.0356 45.5375 31.2397H18.4625ZM46.8618 20.1176C47.0197 20.1177 47.1772 20.0994 47.3309 20.0631L49.4268 22.683V31.2397H51.1768V22.383C51.1755 22.185 51.1068 21.9933 50.982 21.8396L48.6904 18.975C48.8843 18.5779 48.9436 18.1285 48.8594 17.6948C48.7752 17.261 48.5521 16.8664 48.2239 16.5706C47.8956 16.2749 47.48 16.094 47.0398 16.0554C46.5996 16.0168 46.1588 16.1225 45.7841 16.3565C45.4093 16.5906 45.1209 16.9403 44.9625 17.3528C44.804 17.7652 44.7842 18.2181 44.9059 18.6429C45.0276 19.0676 45.2843 19.4412 45.6371 19.7072C45.99 19.9732 46.4198 20.1171 46.8617 20.1171L46.8618 20.1176ZM32 14.585C33.2383 14.5849 34.4486 14.2176 35.4781 13.5296C36.5076 12.8417 37.31 11.8639 37.7838 10.7199C38.2576 9.5759 38.3815 8.31711 38.14 7.10269C37.8984 5.88827 37.3021 4.77276 36.4266 3.89721C35.551 3.02166 34.4355 2.42539 33.2211 2.1838C32.0066 1.94221 30.7479 2.06616 29.6039 2.53995C28.4599 3.01375 27.4821 3.81613 26.7941 4.84563C26.1061 5.87513 25.7389 7.08551 25.7388 8.32373C25.7388 9.14597 25.9007 9.96017 26.2154 10.7198C26.53 11.4795 26.9912 12.1697 27.5726 12.7511C28.154 13.3326 28.8443 13.7938 29.6039 14.1084C30.3636 14.4231 31.1778 14.585 32 14.585ZM14.5734 22.683L16.6693 20.0631C17.1187 20.1694 17.5909 20.1196 18.0083 19.9219C18.4256 19.7241 18.7632 19.3902 18.9655 18.975C19.1679 18.5599 19.2229 18.0882 19.1215 17.6377C19.0201 17.1871 18.7684 16.7845 18.4077 16.496C18.0471 16.2075 17.599 16.0504 17.1371 16.0505C16.6753 16.0506 16.2273 16.2078 15.8667 16.4964C15.5061 16.785 15.2545 17.1877 15.1533 17.6383C15.0521 18.0889 15.1072 18.5605 15.3097 18.9756L13.0183 21.8397C12.8935 21.9935 12.8248 22.1851 12.8235 22.3831V31.2399H14.5735L14.5734 22.683ZM34.0375 20.9524L34.5097 19.4992C34.5589 19.3495 34.5719 19.1901 34.5475 19.0344C34.5232 18.8786 34.4621 18.7309 34.3695 18.6033C34.2768 18.4758 34.1552 18.3721 34.0146 18.3008C33.874 18.2294 33.7184 18.1925 33.5608 18.1931H30.4398C30.2821 18.1926 30.1266 18.2295 29.986 18.3008C29.8454 18.3721 29.7238 18.4758 29.6312 18.6034C29.5385 18.7309 29.4775 18.8787 29.4531 19.0344C29.4287 19.1902 29.4417 19.3495 29.4909 19.4992L29.963 20.9524C30.0292 21.1606 30.1621 21.3412 30.3412 21.4664L29.9609 24.3039L32 27.4087L34.0392 24.3035L33.6588 21.466C33.8381 21.3411 33.9712 21.1605 34.0375 20.9524ZM61.9077 8.02735L58.4992 4.13573V3.77323C58.6337 3.60833 58.7188 3.40864 58.7444 3.19734C58.77 2.98604 58.7352 2.77181 58.6439 2.57952C58.5527 2.38723 58.4087 2.22477 58.2288 2.11102C58.0489 1.99727 57.8404 1.93689 57.6276 1.93689C57.4147 1.93689 57.2063 1.99727 57.0264 2.11102C56.8465 2.22477 56.7025 2.38723 56.6113 2.57952C56.52 2.77181 56.4852 2.98604 56.5108 3.19734C56.5364 3.40864 56.6215 3.60833 56.756 3.77323V28.8125H55.231C55.1316 28.8127 55.0364 28.8522 54.9661 28.9225C54.8958 28.9928 54.8562 29.0881 54.856 29.1875V31.2402H60.4V29.1875C60.3998 29.0881 60.3603 28.9928 60.29 28.9225C60.2197 28.8522 60.1244 28.8127 60.025 28.8125H58.5V18.135L61.3437 21.3817C61.394 21.4389 61.4605 21.4793 61.5344 21.4977C61.6083 21.5161 61.6861 21.5116 61.7573 21.4847C61.8286 21.4578 61.89 21.4099 61.9333 21.3473C61.9767 21.2847 62 21.2104 62 21.1342V8.27373C62.0013 8.18263 61.9681 8.09442 61.9072 8.02673L61.9077 8.02735ZM61.625 32.9897H2.37504C2.27564 32.9899 2.18037 33.0295 2.11009 33.0998C2.03981 33.1701 2.00023 33.2653 2.00004 33.3647V40.655C2.00023 40.7544 2.03981 40.8496 2.11009 40.9199C2.18037 40.9902 2.27564 41.0298 2.37504 41.03H61.625C61.7244 41.0298 61.8197 40.9902 61.89 40.9199C61.9603 40.8496 61.9998 40.7544 62 40.655V33.3647C61.9998 33.2653 61.9603 33.1701 61.89 33.0998C61.8197 33.0295 61.7244 32.9899 61.625 32.9897ZM2.65716 21.5082L5.50079 18.2614V28.8125H3.97504C3.87564 28.8127 3.78037 28.8522 3.71009 28.9225C3.63981 28.9928 3.60023 29.0881 3.60004 29.1875V31.2402H9.14441V29.1875C9.14421 29.0881 9.10464 28.9928 9.03436 28.9225C8.96407 28.8522 8.86881 28.8127 8.76941 28.8125H7.24441V3.89998C7.37899 3.73508 7.46404 3.53539 7.48966 3.32409C7.51529 3.11279 7.48045 2.89856 7.38918 2.70627C7.29792 2.51398 7.15398 2.35152 6.97408 2.23777C6.79418 2.12402 6.5857 2.06364 6.37285 2.06364C6.16 2.06364 5.95152 2.12402 5.77162 2.23777C5.59172 2.35152 5.44777 2.51398 5.35651 2.70627C5.26525 2.89856 5.2304 3.11279 5.25603 3.32409C5.28166 3.53539 5.3667 3.73508 5.50129 3.89998V4.26248L2.09291 8.1536C2.03193 8.22129 1.99876 8.30951 2.00004 8.4006V21.2611C2.00002 21.3374 2.02327 21.4119 2.06669 21.4746C2.11011 21.5373 2.17163 21.5853 2.24303 21.6122C2.31444 21.639 2.39234 21.6435 2.46634 21.6249C2.54033 21.6063 2.6069 21.5656 2.65716 21.5082ZM10.9347 61.6885C10.9349 61.7879 10.9744 61.8831 11.0447 61.9534C11.115 62.0237 11.2103 62.0633 11.3097 62.0635H52.6904C52.7898 62.0633 52.8851 62.0237 52.9554 61.9534C53.0256 61.8831 53.0652 61.7879 53.0654 61.6885V42.7799H10.9347V61.6885Z" fill="#9FCF67"/>
</svg>