<svg xmlns="http://www.w3.org/2000/svg" width="20" height="19" viewBox="0 0 20 19" fill="none">
  <path d="M10.7799 1.57715C11.7111 1.57861 12.183 1.58331 12.5908 1.59487L12.7514 1.59987C12.9369 1.60615 13.1199 1.61404 13.3406 1.62389C14.2211 1.66264 14.8217 1.79532 15.3492 1.99039C15.8946 2.19073 16.3552 2.46134 16.8151 2.89944C17.2743 3.33754 17.5585 3.77761 17.7695 4.29584C17.9735 4.79765 18.1129 5.3704 18.1542 6.20916C18.1641 6.41935 18.172 6.59369 18.1786 6.77044L18.1838 6.92341C18.1958 7.31179 18.2014 7.76136 18.2031 8.64841L18.2038 9.23609C18.2039 9.30789 18.2039 9.38198 18.2039 9.45843L18.2038 9.68078L18.2033 10.2685C18.2017 11.1556 18.1968 11.6051 18.1847 11.9935L18.1794 12.1465C18.1728 12.3233 18.1646 12.4976 18.1542 12.7077C18.1135 13.5465 17.9735 14.1186 17.7695 14.6211C17.5591 15.1406 17.2743 15.5794 16.8151 16.0175C16.3552 16.4549 15.8925 16.7255 15.3492 16.9265C14.8217 17.1209 14.2211 17.2536 13.3406 17.293C13.1199 17.3024 12.9369 17.31 12.7514 17.3162L12.5908 17.3211C12.183 17.3327 11.7111 17.3379 10.7799 17.3397L10.1629 17.3403C10.0875 17.3403 10.0098 17.3403 9.92949 17.3403H9.69607L9.07905 17.3397C8.14785 17.3383 7.6759 17.3336 7.26818 17.322L7.10759 17.317C6.92203 17.3107 6.73901 17.3029 6.51836 17.293C5.63783 17.2543 5.03793 17.1209 4.50975 16.9265C3.96502 16.7262 3.50372 16.4549 3.04381 16.0175C2.58389 15.5794 2.30049 15.1387 2.0895 14.6211C1.88471 14.1186 1.74611 13.5465 1.70474 12.7077C1.69491 12.4976 1.68689 12.3233 1.68039 12.1465L1.67519 11.9935C1.66308 11.6051 1.65757 11.1556 1.65578 10.2685L1.65567 8.64841C1.65721 7.76136 1.66213 7.31179 1.67427 6.92341L1.67953 6.77044C1.68612 6.59369 1.69439 6.41935 1.70474 6.20916C1.74541 5.36974 1.88471 4.79831 2.0895 4.29584C2.2998 3.77695 2.58389 3.33754 3.04381 2.89944C3.50372 2.46134 3.96571 2.19138 4.50975 1.99039C5.03725 1.79532 5.63714 1.6633 6.51836 1.62389C6.73901 1.61453 6.92203 1.60689 7.10759 1.60071L7.26818 1.59575C7.6759 1.58421 8.14785 1.57895 9.07905 1.57725L10.7799 1.57715ZM9.92949 5.51753C7.64335 5.51753 5.79228 7.28269 5.79228 9.45843C5.79228 11.6361 7.64536 13.3994 9.92949 13.3994C12.2156 13.3994 14.0667 11.6342 14.0667 9.45843C14.0667 7.28078 12.2136 5.51753 9.92949 5.51753ZM9.92949 7.0939C11.3005 7.0939 12.4118 8.15217 12.4118 9.45843C12.4118 10.7644 11.3008 11.823 9.92949 11.823C8.55851 11.823 7.44716 10.7648 7.44716 9.45843C7.44716 8.15249 8.5581 7.0939 9.92949 7.0939ZM14.2735 4.33525C13.7032 4.33525 13.2392 4.77656 13.2392 5.31981C13.2392 5.86307 13.7025 6.30506 14.2735 6.30506C14.8438 6.30506 15.3078 5.86375 15.3078 5.31981C15.3078 4.77656 14.8431 4.33457 14.2735 4.33525Z" fill="#C6DBE0"/>
</svg>