<svg xmlns="http://www.w3.org/2000/svg" width="57" height="38" viewBox="0 0 57 38" fill="none">
  <g clip-path="url(#clip0_376_2258)">
    <path d="M20.0596 34.4949C18.2785 35.0789 16.1617 34.1406 15.2245 31.4001C11.9048 31.6414 10.0538 29.7799 10.5841 26.6816C9.15271 26.4089 8.16307 25.4997 7.53363 24.2617C6.84706 22.9108 7.26786 21.6752 8.32277 20.5631C7.76792 20.2846 7.25854 20.0293 6.70485 19.7507C6.39246 20.6401 6.10222 21.4758 5.80614 22.3081C5.51007 23.1392 5.11841 23.3385 4.29547 23.0658C3.19393 22.7021 2.0959 22.3314 0.997859 21.9573C0.363749 21.7404 0.0839943 21.2579 0.262338 20.717C0.433688 20.1983 0.961725 19.985 1.60866 20.1913C2.47123 20.4676 3.32915 20.7566 4.24884 21.0597C6.04976 15.9216 7.84252 10.809 9.65627 5.63474C8.40087 5.10438 7.16179 4.581 5.92271 4.05763C4.28381 3.36523 2.64608 2.67168 1.00602 1.98278C0.567737 1.79861 0.314792 1.49904 0.348596 1.00247C0.378902 0.557198 0.635344 0.276277 1.04682 0.185357C1.25663 0.138731 1.51541 0.174866 1.71706 0.258793C4.83866 1.56082 7.95676 2.87217 11.0714 4.19284C11.7183 4.46793 11.8733 4.85842 11.6752 5.55315C11.6437 5.66389 11.6169 5.77579 11.5912 5.88885C11.5877 5.90517 11.5994 5.92616 11.618 5.99959C13.2569 6.32247 14.9203 6.65002 16.5837 6.97873C16.7352 7.00904 16.8868 7.04168 17.036 7.08014C17.6957 7.248 18.0198 7.68045 17.8962 8.22947C17.775 8.768 17.2726 9.04076 16.614 8.91137C15.7794 8.74701 14.9471 8.56984 14.1137 8.40431C13.0903 8.20033 12.0645 8.001 11.0399 7.80284C11.0061 7.79585 10.9664 7.818 10.8779 7.83898C9.70639 11.1809 8.52676 14.5484 7.33314 17.9533C8.15725 18.3706 8.96387 18.7797 9.75768 19.1819C12.2813 17.7703 14.9658 19.8335 15.2898 22.392C17.4649 22.019 19.5386 24.0181 19.6983 26.1046C22.2336 26.3412 23.616 27.5663 23.8946 29.8871C25.4566 29.6703 26.5534 30.4793 27.43 31.6414C28.3893 32.9132 28.2751 34.2245 27.3414 35.6151C27.8403 35.7655 28.2833 35.9625 28.7437 36.0219C29.3615 36.1024 29.9082 35.8669 30.2147 35.2981C30.519 34.7339 30.5458 34.1196 30.1401 33.5985C29.6809 33.0099 29.9291 32.1811 30.7113 32.0226C30.9479 31.9748 31.2463 32.0681 31.476 32.18C32.328 32.5949 33.1638 33.0425 34.0031 33.4832C34.5299 33.7594 35.0708 33.8224 35.6245 33.5892C36.1467 33.3689 36.4707 32.9703 36.5244 32.4026C36.5803 31.8163 36.4533 31.3057 35.8949 30.9514C35.2084 30.5166 34.5509 30.0352 33.8877 29.5666C33.3049 29.1539 33.165 28.6772 33.4646 28.1865C33.7536 27.7155 34.2782 27.6246 34.8948 27.9592C36.409 28.7798 37.9208 29.6027 39.428 30.4362C40.0108 30.7579 40.5726 30.7672 41.1217 30.3884C41.6753 30.006 42.0122 29.4558 41.863 28.8043C41.7698 28.3974 41.4842 27.9452 41.1485 27.6981C40.1682 26.9754 39.1168 26.3494 38.0992 25.678C37.7483 25.4472 37.5012 25.0928 37.676 24.6977C37.8077 24.4016 38.1038 24.1079 38.3987 23.9808C38.6085 23.8899 38.9629 24.0309 39.2123 24.1522C41.2126 25.1231 43.2 26.1198 45.1968 27.0977C45.9941 27.4882 46.6853 27.3705 47.2063 26.79C47.9139 26.0032 47.746 24.7886 46.803 24.2478C45.1746 23.3152 43.4949 22.4701 41.884 21.5097C38.7088 19.6166 35.565 17.6735 32.4131 15.7409C31.8665 15.4063 31.7371 14.8748 32.0343 14.4051C32.335 13.9295 32.8514 13.8176 33.4016 14.1568C36.0057 15.7595 38.5829 17.4066 41.2079 18.9744C42.9774 20.0316 44.8098 20.9839 46.7121 22.0377C46.8135 21.3873 46.9627 20.8417 46.9662 20.2962C46.9709 19.6306 47.246 19.2471 47.8544 19.0385C48.1272 18.9452 48.3813 18.8007 48.7228 18.6433C47.4569 15.0275 46.1911 11.4152 44.9112 7.75855C43.8411 8.04879 42.8142 8.3029 41.8036 8.6118C41.2569 8.77849 40.8641 8.65027 40.4269 8.29474C40.0726 8.00683 39.6075 7.77836 39.1587 7.69327C36.2143 7.13609 33.2606 6.6302 30.3126 6.09751C29.4209 5.93665 28.5957 6.03106 27.817 6.54162C25.6163 7.98352 23.4004 9.40327 21.1961 10.8417C21.0621 10.9291 20.9339 11.083 20.8849 11.2322C20.2846 13.0646 19.6983 14.9016 19.1073 16.7457C20.3522 17.9276 22.4282 17.6222 23.2418 16.0708C23.6335 15.3236 23.9121 14.51 24.1825 13.7068C24.3644 13.1648 24.6768 12.8874 25.2398 12.7836C26.4555 12.5587 27.6608 12.2731 28.8742 12.0365C29.1703 11.9793 29.5072 11.9397 29.7846 12.0236C30.1868 12.1472 30.3861 12.4957 30.3558 12.934C30.3208 13.4317 30.0096 13.7057 29.5573 13.8071C28.4453 14.0589 27.3286 14.2873 26.2131 14.5263C26.1198 14.5461 26.0289 14.5717 25.9275 14.5974C25.6606 15.2466 25.4239 15.8994 25.129 16.5242C23.6708 19.6143 20.0235 20.2811 17.5337 17.9381C17.0814 17.5127 16.9579 17.0802 17.1618 16.4881C17.7901 14.6627 18.4511 12.8443 18.9639 10.9862C19.1877 10.1738 19.5468 9.62824 20.2485 9.18879C22.4947 7.78186 24.7222 6.34346 26.9369 4.8864C28.0082 4.18119 29.1761 4.01916 30.3849 4.22665C33.756 4.80597 37.1212 5.42376 40.4817 6.06603C40.8734 6.14063 41.2184 6.45652 41.6474 6.69548C42.4447 6.47517 43.3166 6.23505 44.2118 5.9891C44.1955 5.84806 44.1955 5.73499 44.1675 5.63008C43.9623 4.86192 44.1185 4.51339 44.8552 4.21732C48.1027 2.91413 51.3525 1.6156 54.6023 0.320572C55.2458 0.06413 55.7377 0.234314 55.9685 0.768179C56.2016 1.30787 55.9545 1.79628 55.2703 2.07137C52.4552 3.20438 49.6367 4.32806 46.8193 5.4564C46.6235 5.5345 46.4312 5.62192 46.1922 5.7245C47.9838 10.8393 49.7684 15.9332 51.5752 21.0924C52.5461 20.7252 53.4798 20.3708 54.4135 20.0188C54.5942 19.95 54.7749 19.8812 54.9602 19.8253C55.4568 19.6761 55.9335 19.8801 56.1258 20.316C56.3357 20.7916 56.1678 21.2998 55.6701 21.5411C55.2539 21.7428 54.811 21.8897 54.3774 22.054C53.474 22.3955 52.5683 22.7312 51.6638 23.0704C50.7254 23.4225 50.3489 23.2395 50.0039 22.2697C49.7917 21.674 49.5749 21.0795 49.3441 20.4408C49.1669 20.52 49.0317 20.5795 48.8907 20.6424C48.7252 21.4257 48.562 22.1974 48.3965 22.983C49.7836 25.1383 49.8733 26.4951 48.7123 27.93C47.605 29.3008 46.2866 29.4827 43.8131 28.5758C43.8155 29.9757 43.3609 31.1612 42.1684 31.9515C40.9795 32.7406 39.738 32.7348 38.4244 32.0447C38.3952 33.6079 37.7296 34.7246 36.3262 35.3214C34.9274 35.9158 33.6347 35.5522 32.3455 34.7071C32.0914 36.2259 31.3711 37.3158 29.9035 37.7646C28.4593 38.2063 27.2027 37.7005 26.0254 36.9381C23.7291 38.8754 20.8989 37.3111 20.0596 34.4949ZM15.7549 24.2373C15.643 24.292 15.3399 24.362 15.1441 24.5462C14.2862 25.3563 13.4446 26.1851 12.6298 27.0383C12.1787 27.5092 12.1939 28.1154 12.6088 28.6166C12.7802 28.8252 12.976 29.0152 13.173 29.2006C13.7978 29.7881 14.4389 29.7881 15.0637 29.1843C15.7736 28.4989 16.4555 27.7831 17.1735 27.1071C17.6398 26.6688 17.8776 26.1816 17.6456 25.5568C17.423 24.9611 16.4508 24.2314 15.7549 24.2373ZM22.1403 29.6715C21.7603 29.2111 21.4351 28.7471 21.0399 28.3531C20.5154 27.8321 19.8638 27.8274 19.3276 28.324C18.69 28.915 18.0687 29.5258 17.4731 30.1587C17.0231 30.6366 17.0406 31.2894 17.4661 31.7895C17.6281 31.9806 17.8123 32.1531 17.993 32.328C18.6142 32.9248 19.2623 32.9423 19.8848 32.3536C20.4606 31.8093 21.033 31.2591 21.5668 30.6751C21.7895 30.4315 21.9049 30.0935 22.1403 29.6715ZM11.0772 24.7595C11.1576 24.7292 11.4164 24.7 11.5749 24.559C12.1088 24.0834 12.6508 23.6055 13.1042 23.0576C13.4726 22.6135 13.4131 22.0727 13.0506 21.6122C12.8595 21.3709 12.6345 21.1518 12.4049 20.9455C11.85 20.4443 11.2474 20.4326 10.6855 20.9268C10.337 21.2334 10.0246 21.5808 9.68191 21.8943C9.21565 22.3209 8.95921 22.807 9.20866 23.4411C9.44528 24.0438 10.3999 24.7653 11.0772 24.7595ZM26.1921 33.5239C26.1909 33.0239 25.9007 32.5844 25.2048 32.0284C24.6698 31.6018 24.0869 31.6006 23.5729 32.0587C23.2115 32.3805 22.8828 32.7383 22.5308 33.0705C22.0925 33.4843 21.7685 33.9716 22.0925 34.5555C22.4574 35.2141 22.9166 35.8564 23.7757 35.9054C24.545 35.9485 26.1933 34.2909 26.1921 33.5239Z" fill="#9FCF67"/>
  </g>
  <defs>
    <clipPath id="clip0_376_2258">
      <rect width="56.3006" height="38" fill="white"/>
    </clipPath>
  </defs>
</svg>