<svg xmlns="http://www.w3.org/2000/svg" width="30" height="28" fill="none" viewBox="0 0 30 28"><path fill="#0397D6" d="m29.368 13.986-3.793-3.775a.726.726 0 1 0-1.024 1.03l2.546 2.533H11.726a.726.726 0 1 0 0 1.452h15.37l-2.545 2.534a.726.726 0 0 0 1.024 1.029l3.792-3.775a.727.727 0 0 0 0-1.028"></path><path fill="#0397D6" stroke="#0397D6" stroke-width="0.5" d="M14.334.75c2.016 0 3.958.422 5.77 1.25l.23.104-.107.23-.163.343-.106.223-.225-.102a12.9 12.9 0 0 0-5.398-1.171h-.001c-7.01 0-12.698 5.558-12.698 12.37 0 6.813 5.688 12.372 12.698 12.372.919 0 1.836-.096 2.733-.289l.242-.053.054.242.084.37.056.247-.247.053c-.832.18-1.69.283-2.553.306l-.369.005C6.847 27.25.75 21.316.75 14.003S6.847.75 14.334.75Z"></path></svg>