<svg xmlns="http://www.w3.org/2000/svg" width="26" height="8" viewBox="0 0 26 8" fill="none">
  <g clip-path="url(#clip0_1041_593)">
    <path d="M1 3.70405C1 2.65916 1.36761 1.7821 2.10282 1.07485C2.82805 0.359616 3.76505 0 4.91582 0C6.0646 0 7.0016 0.357618 7.72882 1.07485C8.46404 1.79009 8.83165 2.66716 8.83165 3.70405C8.83165 4.75892 8.46404 5.64398 7.72882 6.36122C6.99361 7.06846 6.05661 7.42009 4.91582 7.42009C3.77504 7.42009 2.83804 7.06646 2.10282 6.36122C1.36761 5.64398 1 4.75892 1 3.70405ZM2.96391 3.70405C2.96391 4.26945 3.14771 4.74094 3.51532 5.11654C3.88293 5.49414 4.34843 5.68194 4.91383 5.68194C5.47922 5.68194 5.94473 5.49414 6.31233 5.11654C6.67994 4.73095 6.86375 4.25946 6.86375 3.70405C6.86375 3.13865 6.67994 2.67315 6.31233 2.30554C5.94473 1.92794 5.47922 1.74014 4.91383 1.74014C4.34843 1.74014 3.88293 1.92794 3.51532 2.30554C3.14771 2.67315 2.96391 3.13865 2.96391 3.70405Z" fill="#333333"/>
    <path d="M20.783 7.42009C19.6801 7.42009 18.7531 7.08045 17.9999 6.40317C17.2467 5.72389 16.8691 4.82485 16.8691 3.70405C16.8691 2.65916 17.2088 1.7821 17.8861 1.07485C18.5653 0.359616 19.4504 0 20.5432 0C21.5601 0 22.3753 0.363612 22.9886 1.08884C23.6 1.81406 23.9076 2.69513 23.9076 3.73202V4.25546H18.849C18.9529 4.72696 19.2146 5.08857 19.6342 5.3443C20.0537 5.59803 20.5792 5.72589 21.2105 5.72589C21.9917 5.72589 22.7469 5.51811 23.4721 5.10456V6.70085C22.8368 7.18034 21.9417 7.42009 20.783 7.42009ZM18.847 2.98282H21.9417C21.9218 2.57725 21.7799 2.24161 21.5102 1.9719C21.2425 1.70418 20.8909 1.56833 20.4573 1.56833C20.0138 1.56833 19.6462 1.69819 19.3545 1.95791C19.0648 2.21763 18.895 2.55927 18.847 2.98282Z" fill="#333333"/>
    <path d="M15.6262 0.771133C15.1747 0.25768 14.5434 0.00195312 13.7322 0.00195312C12.7892 0.00195312 12.0041 0.345587 11.3727 1.03285L11.3687 0.111836L9.38086 0.121825V7.23624H12.1279V7.22025H12.1159V4.01767L10.8553 4.85078V2.84292L12.3257 1.81402H14.0898V7.23624H16.3075V2.91285C16.3035 1.99782 16.0777 1.28458 15.6262 0.771133Z" fill="#333333"/>
  </g>
  <defs>
    <clipPath id="clip0_1041_593">
      <rect width="26" height="8" fill="white"/>
    </clipPath>
  </defs>
</svg>