<svg xmlns="http://www.w3.org/2000/svg" width="24" height="24" viewBox="0 0 24 24" fill="none">
  <path d="M8.01906 10.7042C8.23803 10.3112 8.65198 10.0443 9.13191 10.0443C9.38088 10.0443 9.61485 10.1192 9.81283 10.2452V9.83728C9.81283 9.33335 10.1068 8.9014 10.5267 8.69143V5.97079C10.5267 5.59283 10.2208 5.28387 9.84282 5.28387C9.46487 5.28387 9.16191 5.59283 9.16191 5.97079V9.00939C9.16191 9.17437 9.02693 9.30935 8.86195 9.30935C8.69697 9.30935 8.56199 9.17437 8.56199 9.00939V4.47998C8.56199 4.09903 8.25603 3.79007 7.88108 3.79007C7.50613 3.79007 7.19717 4.09903 7.19717 4.47998V9.00939C7.19717 9.17437 7.06218 9.30935 6.89721 9.30935C6.73223 9.30935 6.59724 9.17437 6.59724 9.00939V5.25988C6.59724 4.88193 6.29128 4.57297 5.91633 4.57297C5.54138 4.57297 5.23242 4.88193 5.23242 5.25988V9.39634C5.32541 9.59731 5.4064 9.74129 5.46039 9.82828C5.91633 9.83428 7.16117 9.92727 8.01906 10.7042Z" fill="#31B154"/>
  <path d="M20.8357 7.42858C20.7157 7.2996 20.5447 7.22161 20.3737 7.23061C20.1037 7.23661 19.8638 7.41958 19.7948 7.67755C19.6478 8.22048 19.4858 8.64342 19.3448 8.95538C19.3448 8.95538 19.3438 8.95638 19.3418 8.95838C19.1199 9.45332 18.9429 9.67829 18.9309 9.69329C18.8709 9.76828 18.7779 9.81327 18.6819 9.80427C18.5709 9.80127 15.9733 9.69929 15.7423 11.85C15.7273 12.015 15.5803 12.135 15.4124 12.117C15.2504 12.099 15.1304 11.952 15.1484 11.787C15.3674 9.72628 17.3531 9.20135 18.526 9.20135H18.5409C18.5949 9.11436 18.6759 8.97038 18.7689 8.77241V4.63595C18.7689 4.258 18.463 3.94904 18.085 3.94904C17.7071 3.94904 17.4041 4.258 17.4041 4.63595V8.38546C17.4041 8.55044 17.2691 8.68542 17.1041 8.68542C16.9392 8.68542 16.8042 8.55044 16.8042 8.38546V3.85605C16.8042 3.4751 16.4982 3.16614 16.1203 3.16614C15.7423 3.16614 15.4394 3.4751 15.4394 3.85605V8.38546C15.4394 8.55044 15.3044 8.68542 15.1394 8.68542C14.9744 8.68542 14.8394 8.55044 14.8394 8.38546V5.34685C14.8394 4.9689 14.5335 4.65994 14.1585 4.65994C13.7836 4.65994 13.4746 4.9689 13.4746 5.34685V9.40833C13.9785 9.5823 14.3445 10.0562 14.3445 10.6202V13.1698C14.5575 12.8399 14.9294 12.6209 15.3404 12.6149C15.6763 12.6179 16.0183 12.7529 16.2522 13.0079C16.4892 13.2628 16.6062 13.6108 16.5702 13.9587L16.5522 14.1507C16.4682 15.0266 16.3422 16.3524 15.5593 17.4323C15.4693 17.5553 15.3824 17.6752 15.2984 17.7892C14.7464 18.5271 14.3835 19.0161 14.3745 19.9849V20.8338H18.7989V14.0007C18.8079 12.8309 19.2639 12.219 19.8398 11.4451C19.9238 11.3341 20.0108 11.2171 20.0977 11.0971C20.7847 10.1492 20.8956 8.97038 20.9796 8.11249L20.9976 7.91452C21.0156 7.73454 20.9586 7.56357 20.8357 7.42858Z" fill="#31B154"/>
  <path d="M15.0724 17.0783C15.7593 16.1335 15.8703 14.9546 15.9542 14.0937L15.9722 13.8987C15.9902 13.7188 15.9332 13.5448 15.8103 13.4128C15.6903 13.2838 15.5313 13.2088 15.3483 13.2148C15.0784 13.2208 14.8414 13.4038 14.7694 13.6618C14.6224 14.2047 14.4604 14.6246 14.3195 14.9396C14.3195 14.9396 14.3195 14.9426 14.3165 14.9426C14.0945 15.4345 13.9175 15.6625 13.9055 15.6775C13.8455 15.7525 13.7525 15.7975 13.6565 15.7885C13.5456 15.7855 10.9479 15.6835 10.7169 17.8342C10.7019 17.9992 10.5549 18.1162 10.387 18.1012C10.225 18.0832 10.105 17.9332 10.123 17.7712C10.342 15.7105 12.3277 15.1856 13.5006 15.1856H13.5156C13.5696 15.0956 13.6505 14.9546 13.7435 14.7566V10.6202C13.7435 10.2422 13.4376 9.93326 13.0596 9.93326C12.6817 9.93326 12.3787 10.2422 12.3787 10.6202V14.3667C12.3787 14.5347 12.2437 14.6666 12.0787 14.6666C11.9138 14.6666 11.7788 14.5347 11.7788 14.3667V9.83727C11.7788 9.45932 11.4728 9.15036 11.0949 9.15036C10.7169 9.15036 10.414 9.45932 10.414 9.83727V14.3667C10.414 14.5347 10.279 14.6666 10.114 14.6666C9.94902 14.6666 9.81404 14.5347 9.81404 14.3667V11.3311C9.81404 10.9531 9.50808 10.6442 9.13313 10.6442C8.75818 10.6442 8.44922 10.9531 8.44922 11.3311V15.6925C8.44922 16.6554 8.67119 17.6213 9.08514 18.4881C9.10313 18.5301 9.11513 18.5751 9.11513 18.6201V20.8338H13.7735V19.9849C13.7825 18.8151 14.2385 18.2032 14.8144 17.4293C14.8984 17.3183 14.9854 17.2013 15.0724 17.0783Z" fill="#31B154"/>
  <path d="M7.84853 11.3971C7.84853 11.3971 7.84853 11.3941 7.84853 11.3911C7.04464 10.3592 5.34086 10.4282 5.32286 10.4282C5.22687 10.4342 5.13388 10.3922 5.07389 10.3172C5.06189 10.3022 4.88492 10.0772 4.66295 9.5853C4.66295 9.5853 4.66195 9.5833 4.65995 9.5793C4.51896 9.26734 4.35699 8.84439 4.21 8.30146C4.14101 8.0435 3.90105 7.86052 3.63108 7.85452C3.4601 7.84852 3.28912 7.92351 3.16914 8.0525C3.04616 8.18748 2.98916 8.35846 3.00716 8.53843L3.02516 8.73641C3.10915 9.5943 3.22013 10.7731 3.90704 11.721C3.99403 11.841 4.08102 11.958 4.16501 12.069C4.74094 12.8429 5.19688 13.4548 5.20588 14.6216V20.8338H8.51744V18.6861C8.0825 17.7562 7.85153 16.7214 7.85153 15.6925V11.3971H7.84853Z" fill="#31B154"/>
</svg>