<svg xmlns="http://www.w3.org/2000/svg" width="24" height="24" viewBox="0 0 24 24" fill="none">
  <path d="M5.5274 2.25C5.88851 2.25 6.16334 2.24743 6.41608 2.29199C7.31546 2.45073 8.07814 3.04584 8.45026 3.87988C8.55479 4.11432 8.6185 4.38197 8.70612 4.73242L9.12018 6.38672C9.26415 6.9626 9.38696 7.44988 9.44537 7.86133C9.50624 8.2902 9.50804 8.7006 9.37115 9.12109C9.23424 9.54146 8.99114 9.87185 8.68951 10.1826C8.40014 10.4807 8.0139 10.802 7.55865 11.1826L5.94635 12.5303C7.24951 14.8895 9.10974 16.7494 11.4688 18.0527L12.8174 16.4414C13.198 15.9862 13.5193 15.5999 13.8174 15.3105C14.1282 15.0089 14.4586 14.7658 14.879 14.6289C15.2995 14.492 15.7099 14.4938 16.1387 14.5547C16.5502 14.6131 17.0375 14.7359 17.6133 14.8799L19.2676 15.2939C19.6181 15.3816 19.8857 15.4453 20.1202 15.5498C20.9542 15.9219 21.5493 16.6846 21.7081 17.584C21.7526 17.8367 21.7501 18.1115 21.7501 18.4727C21.7501 18.887 21.7539 19.2069 21.6837 19.5215C21.4415 20.6054 20.4383 21.5156 19.336 21.6514C19.0192 21.6904 18.7486 21.6606 18.4034 21.627C15.7639 21.3694 13.3885 20.7096 11.3194 19.6699C8.24525 18.1253 5.87476 15.7548 4.33014 12.6807C3.2905 10.6115 2.63068 8.23615 2.37311 5.59668C2.33942 5.25145 2.3097 4.98087 2.34869 4.66406C2.48444 3.56174 3.39465 2.55856 4.47858 2.31641C4.79314 2.24616 5.11305 2.25 5.5274 2.25Z" fill="#0FAEDD"/>
</svg>