<svg xmlns="http://www.w3.org/2000/svg" width="44" height="44" viewBox="0 0 44 44" fill="none">
  <g clip-path="url(#clip0_376_2251)">
    <path d="M3.51658 44C3.34986 43.8496 3.13502 43.7285 3.02502 43.5437C2.67869 42.961 3.11869 42.2899 3.8397 42.2882C5.92627 42.2821 8.01369 42.2864 10.1002 42.2856C10.2567 42.2856 10.4131 42.2856 10.603 42.2856C10.603 39.9077 10.603 37.5461 10.603 35.1433C8.22853 36.1204 5.9297 35.9743 3.73572 34.681C2.08486 33.7082 0.941891 32.2936 0.372985 30.4546C-0.757952 26.7953 1.44634 22.7898 5.49142 21.4758C5.75955 19.44 6.76587 17.8596 8.56798 16.781C7.75759 14.3628 7.86502 12.0021 9.09134 9.7462C10.3194 7.48777 12.2315 6.0973 14.6927 5.46738C16.0686 1.90613 18.6278 -0.0480935 22.4555 0.12636C25.893 0.282766 28.1763 2.2155 29.3717 5.45964C29.5814 5.52238 29.8177 5.57738 30.0429 5.66331C30.5147 5.84206 30.7321 6.26402 30.6067 6.72464C30.4889 7.15863 30.0386 7.43105 29.5625 7.30214C27.9581 6.86644 28.0981 7.27206 27.5181 5.57909C26.3691 2.23011 21.7955 0.376438 18.303 3.15995C17.313 3.94972 16.6306 4.95003 16.3668 6.20472C16.256 6.73238 15.9543 7.00909 15.4224 7.1062C12.54 7.63386 10.462 9.70238 9.88798 12.5925C9.65853 13.7492 9.81064 15.3261 10.2463 16.146C11.984 15.8375 13.6134 16.14 15.0563 17.2142C16.4828 18.2772 17.2743 19.7167 17.4892 21.493C18.914 21.9433 20.1206 22.721 21.1587 23.8924C21.1587 20.668 21.1587 17.533 21.1587 14.349C20.0836 13.8351 18.981 13.3083 17.8776 12.7807C17.3628 12.5349 16.8438 12.2977 16.3342 12.0416C15.8263 11.7864 15.6492 11.3275 15.8615 10.8754C16.0858 10.3993 16.5576 10.2438 17.0956 10.4964C18.309 11.0662 19.5173 11.648 20.7273 12.2238C20.8545 12.2839 20.9842 12.3389 21.1578 12.4154C21.169 12.2659 21.1845 12.1473 21.1845 12.0287C21.1862 10.9425 21.1836 9.8562 21.1862 8.76995C21.1879 8.17527 21.517 7.80831 22.0387 7.80745C22.5603 7.80573 22.8955 8.17355 22.8963 8.7648C22.8989 10.8221 22.8972 12.8803 22.8972 15.0004C23.0751 14.9231 23.2143 14.8664 23.3501 14.8019C24.5738 14.2193 25.7942 13.6306 27.0205 13.0548C27.4631 12.8468 27.8799 12.95 28.1334 13.2954C28.38 13.6306 28.3628 14.1041 28.0681 14.3946C27.9495 14.5114 27.7922 14.5965 27.6401 14.6696C26.0717 15.4224 24.5008 16.17 22.9221 16.9237C22.9221 19.2191 22.9221 21.5102 22.9221 23.7875C23.491 23.3269 24.0187 22.8233 24.6202 22.4332C25.2244 22.0421 25.9024 21.7637 26.5994 21.4096C26.8134 19.7089 27.6092 18.2549 29.0563 17.1927C30.4915 16.1391 32.108 15.8366 33.8731 16.1546C34.2229 15.2196 34.3638 14.2854 34.2813 13.3221C34.2487 12.9396 34.1748 12.5589 34.1043 12.1808C34.0055 11.6532 34.2607 11.2003 34.7368 11.0851C35.2077 10.9717 35.6443 11.2553 35.7792 11.795C36.166 13.3427 36.0998 14.8784 35.6297 16.3995C35.5962 16.5086 35.5601 16.616 35.5266 16.7252C35.5231 16.7372 35.53 16.7518 35.5352 16.7888C37.3012 17.8475 38.3187 19.421 38.592 21.4921C39.8544 21.8995 40.963 22.5509 41.8868 23.4996C42.9619 24.6031 43.6623 25.9007 43.9167 27.4296C43.9278 27.4949 43.9708 27.555 43.9983 27.6178C43.9983 28.1892 43.9983 28.7616 43.9983 29.3331C43.9682 29.4242 43.9244 29.5135 43.9098 29.6072C43.3082 33.4211 39.3052 36.3232 35.4862 35.6916C34.8056 35.579 34.1413 35.3719 33.4675 35.2086C33.4675 37.5418 33.4675 39.8931 33.4675 42.2864C33.6411 42.2864 33.7941 42.2864 33.947 42.2864C36.0465 42.2864 38.146 42.283 40.2445 42.289C40.9638 42.2907 41.4038 42.9636 41.0575 43.5446C40.9475 43.7285 40.7335 43.8505 40.5668 44C28.2184 44 15.8675 44 3.51658 44ZM12.3587 33.116C13.9339 34.2178 16.0635 34.3398 17.9214 33.4495C20.3466 32.2876 21.6735 29.6897 21.0006 27.2225C20.3973 25.0078 18.8667 23.6732 16.6788 23.0742C15.9517 22.8749 15.8056 22.7167 15.7799 21.951C15.7017 19.6144 13.7964 17.7513 11.4881 17.7556C9.15923 17.7599 7.25744 19.6471 7.20587 22.0035C7.19127 22.6893 7.01767 22.9041 6.34048 23.0665C5.48111 23.2719 4.69048 23.6294 4.009 24.1897C2.39681 25.5149 1.56064 27.1864 1.88806 29.3064C2.13728 30.9203 3.03447 32.1364 4.36736 33.0516C6.23564 34.3346 8.88423 34.3682 10.6227 33.1169C10.6227 32.1853 10.6227 31.2452 10.6227 30.2964C9.13603 29.5514 7.65705 28.8106 6.17978 28.0672C6.04056 27.9967 5.89361 27.928 5.77673 27.8283C5.44845 27.549 5.39689 27.0626 5.64095 26.7034C5.89189 26.3347 6.33017 26.2196 6.78048 26.4404C7.91916 26.9999 9.05095 27.5739 10.187 28.1403C10.3202 28.2064 10.4577 28.2632 10.6382 28.3448C10.6382 27.1039 10.6365 25.9334 10.6391 24.7621C10.6399 24.1304 10.9605 23.76 11.4967 23.7617C12.0313 23.7626 12.3492 24.1339 12.3501 24.7672C12.3518 26.425 12.351 28.0827 12.351 29.7404C12.351 29.8762 12.351 30.012 12.351 30.1478C12.3879 30.1675 12.4257 30.1873 12.4627 30.2062C12.7927 29.8564 13.1149 29.5007 13.4535 29.1603C13.707 28.906 14.0482 28.7925 14.3524 28.9704C14.5853 29.1071 14.8603 29.3803 14.8827 29.615C14.9093 29.8934 14.7555 30.2621 14.5561 30.476C13.8471 31.2392 13.0857 31.9533 12.3595 32.6709C12.3587 32.8376 12.3587 32.9657 12.3587 33.116ZM33.4718 30.2921C33.4718 31.2761 33.4718 32.2154 33.4718 33.153C35.1381 34.1739 36.8689 34.3269 38.6538 33.6085C42.442 32.0848 43.4586 27.6221 40.6863 24.7346C39.875 23.8898 38.8893 23.3389 37.7498 23.0657C37.0683 22.9024 36.905 22.6884 36.8749 22.0069C36.8612 21.695 36.8268 21.3778 36.7538 21.0753C36.2502 18.9922 34.2839 17.5528 32.2584 17.7702C29.9802 18.0151 28.3474 19.7743 28.3052 22.0318C28.2932 22.6566 28.0895 22.8792 27.4974 23.0639C26.9431 23.2375 26.3768 23.4146 25.8689 23.6887C23.3363 25.0568 22.257 28.0045 23.3329 30.5216C24.2456 32.6571 26.5298 34.1232 28.851 34.0433C29.8951 34.0072 30.8662 33.721 31.729 33.1255C31.729 31.2529 31.729 29.4104 31.729 27.5267C31.0157 26.8211 30.2775 26.1044 29.5582 25.3688C29.3949 25.2021 29.2394 24.9855 29.1844 24.7655C29.089 24.3831 29.2531 24.0574 29.6038 23.8649C29.9716 23.6629 30.3265 23.7239 30.6299 24.0067C30.9856 24.3384 31.3268 24.6856 31.7367 25.0878C31.7367 24.0367 31.7256 23.0949 31.7445 22.1539C31.7488 21.9382 31.8072 21.6915 31.9258 21.5162C32.1492 21.1879 32.5042 21.0994 32.8771 21.2335C33.2673 21.3735 33.4512 21.6735 33.4503 22.0954C33.4469 24.0101 33.4486 25.9257 33.4486 27.8403C33.4486 27.9899 33.4486 28.1394 33.4486 28.3525C33.6824 28.2408 33.8465 28.166 34.0089 28.0853C35.0806 27.5507 36.1505 27.0119 37.2247 26.4808C37.7884 26.2024 38.2688 26.3304 38.5069 26.8074C38.7415 27.2775 38.5473 27.7364 37.9904 28.0303C37.9148 28.0698 37.8366 28.1042 37.7601 28.1428C36.3327 28.8596 34.9052 29.5746 33.4718 30.2921ZM21.1638 42.271C21.1638 39.2099 21.1638 36.1917 21.1638 33.1289C18.6416 35.6813 15.736 36.4358 12.3767 35.1657C12.3767 37.5573 12.3767 39.9068 12.3767 42.271C15.3124 42.271 18.2205 42.271 21.1638 42.271ZM31.7238 35.1562C28.3327 36.4324 25.4392 35.6735 22.9273 33.1341C22.9273 36.2012 22.9273 39.2296 22.9273 42.2564C25.8741 42.2564 28.7925 42.2564 31.7238 42.2564C31.7238 39.8879 31.7238 37.5487 31.7238 35.1562Z" fill="#9FCF67"/>
    <path d="M33.8765 8.57148C33.8791 9.05874 33.5027 9.43515 33.0163 9.43257C32.5307 9.42999 32.1595 9.04929 32.1664 8.56116C32.1732 8.0928 32.5359 7.72929 33.0051 7.72155C33.4924 7.71382 33.8739 8.08593 33.8765 8.57148Z" fill="#9FCF67"/>
  </g>
  <defs>
    <clipPath id="clip0_376_2251">
      <rect width="44" height="44" fill="white"/>
    </clipPath>
  </defs>
</svg>