<svg xmlns="http://www.w3.org/2000/svg" width="24" height="24" viewBox="0 0 24 24" fill="none">
  <path d="M7.87891 2.25C8.70162 2.25 9.25787 2.24329 9.78516 2.39355C10.0618 2.47241 10.3287 2.58284 10.5801 2.72266C11.0593 2.98928 11.4484 3.38783 12.0303 3.96973C12.6717 4.61118 12.8951 4.82481 13.1484 4.96582C13.2994 5.04979 13.4599 5.11672 13.626 5.16406C13.9048 5.24352 14.2139 5.25 15.1211 5.25H16C17.3929 5.25 18.5131 5.24812 19.3916 5.36621C20.2917 5.48723 21.0494 5.74672 21.6514 6.34863C22.2533 6.95055 22.5128 7.70829 22.6338 8.6084C22.7519 9.4869 22.75 10.6071 22.75 12V14C22.75 15.3929 22.7519 16.5131 22.6338 17.3916C22.5128 18.2917 22.2533 19.0494 21.6514 19.6514C21.0494 20.2533 20.2917 20.5128 19.3916 20.6338C18.5131 20.7519 17.3929 20.75 16 20.75H8C6.60709 20.75 5.4869 20.7519 4.6084 20.6338C3.70829 20.5128 2.95055 20.2533 2.34863 19.6514C1.74672 19.0494 1.48723 18.2917 1.36621 17.3916C1.24812 16.5131 1.25 15.3929 1.25 14V7C1.25 6.11831 1.24371 5.53021 1.37793 5.0293C1.72471 3.73533 2.73533 2.72471 4.0293 2.37793C4.53021 2.24371 5.11831 2.25 6 2.25H7.87891ZM6 3.75C5.02195 3.75 4.68003 3.75697 4.41797 3.82715C3.64151 4.0352 3.0352 4.64151 2.82715 5.41797C2.75697 5.68003 2.75 6.02195 2.75 7V14C2.75 15.4352 2.75202 16.4361 2.85352 17.1914C2.95217 17.9252 3.13242 18.3141 3.40918 18.5908C3.68594 18.8676 4.07482 19.0478 4.80859 19.1465C5.5639 19.248 6.56485 19.25 8 19.25H16C17.4352 19.25 18.4361 19.248 19.1914 19.1465C19.9252 19.0478 20.3141 18.8676 20.5908 18.5908C20.8676 18.3141 21.0478 17.9252 21.1465 17.1914C21.248 16.4361 21.25 15.4352 21.25 14V12C21.25 10.5648 21.248 9.5639 21.1465 8.80859C21.0478 8.07482 20.8676 7.68594 20.5908 7.40918C20.3141 7.13242 19.9252 6.95217 19.1914 6.85352C18.4361 6.75202 17.4352 6.75 16 6.75H15.1211C14.2984 6.75 13.7421 6.75671 13.2148 6.60645C12.9382 6.52759 12.6713 6.41716 12.4199 6.27734C11.9407 6.01072 11.5516 5.61217 10.9697 5.03027C10.3283 4.38882 10.1049 4.17519 9.85156 4.03418C9.70063 3.95021 9.54013 3.88328 9.37402 3.83594C9.09517 3.75648 8.78614 3.75 7.87891 3.75H6ZM12 9.25C12.4142 9.25 12.7499 9.58584 12.75 10V14.1895L13.9697 12.9697C14.2626 12.6769 14.7374 12.6769 15.0303 12.9697C15.3231 13.2626 15.3231 13.7374 15.0303 14.0303L12.5303 16.5303C12.2374 16.8232 11.7626 16.8232 11.4697 16.5303L8.96973 14.0303C8.67689 13.7374 8.67685 13.2626 8.96973 12.9697C9.2626 12.6769 9.7374 12.6769 10.0303 12.9697L11.25 14.1895V10C11.2501 9.58584 11.5858 9.25 12 9.25Z" fill="#0FAEDD"/>
</svg>