<svg xmlns="http://www.w3.org/2000/svg" width="64" height="64" viewBox="0 0 64 64" fill="none">
  <path d="M18.7299 27.68C19.4599 26.37 20.8399 25.48 22.4399 25.48C23.2699 25.48 24.0499 25.73 24.7099 26.15V24.79C24.7099 23.11 25.6899 21.67 27.0899 20.97V11.9C27.0899 10.64 26.0699 9.61 24.8099 9.61C23.5499 9.61 22.5399 10.64 22.5399 11.9V22.03C22.5399 22.58 22.0899 23.03 21.5399 23.03C20.9899 23.03 20.5399 22.58 20.5399 22.03V6.93C20.5399 5.66 19.5199 4.63 18.2699 4.63C17.0199 4.63 15.9899 5.66 15.9899 6.93V22.03C15.9899 22.58 15.5399 23.03 14.9899 23.03C14.4399 23.03 13.9899 22.58 13.9899 22.03V9.53C13.9899 8.27 12.9699 7.24 11.7199 7.24C10.4699 7.24 9.43994 8.27 9.43994 9.53V23.32C9.74994 23.99 10.0199 24.47 10.1999 24.76C11.7199 24.78 15.8699 25.09 18.7299 27.68Z" fill="#0397D6"/>
  <path d="M61.4499 16.76C61.0499 16.33 60.4799 16.07 59.9099 16.1C59.0099 16.12 58.2099 16.73 57.9799 17.59C57.4899 19.4 56.9499 20.8101 56.4799 21.85C56.4799 21.85 56.4766 21.8534 56.4699 21.8601C55.7299 23.51 55.1399 24.26 55.0999 24.31C54.8999 24.56 54.5899 24.7101 54.2699 24.68C53.8999 24.67 45.2399 24.33 44.4699 31.5C44.4199 32.05 43.9299 32.45 43.3699 32.39C42.8299 32.33 42.4299 31.84 42.4899 31.2901C43.2199 24.4201 49.8399 22.67 53.7499 22.67H53.7999C53.9799 22.38 54.2499 21.9 54.5599 21.24V7.45005C54.5599 6.19005 53.5399 5.16005 52.2799 5.16005C51.0199 5.16005 50.0099 6.19005 50.0099 7.45005V19.9501C50.0099 20.5 49.5599 20.9501 49.0099 20.9501C48.4599 20.9501 48.0099 20.5 48.0099 19.9501V4.85005C48.0099 3.58005 46.9899 2.55005 45.7299 2.55005C44.4699 2.55005 43.4599 3.58005 43.4599 4.85005V19.9501C43.4599 20.5 43.0099 20.9501 42.4599 20.9501C41.9099 20.9501 41.4599 20.5 41.4599 19.9501V9.82005C41.4599 8.56005 40.4399 7.53005 39.1899 7.53005C37.9399 7.53005 36.9099 8.56005 36.9099 9.82005V23.3601C38.5899 23.9401 39.8099 25.5201 39.8099 27.4V35.9001C40.5199 34.8001 41.7599 34.07 43.1299 34.05C44.2499 34.06 45.3899 34.51 46.1699 35.3601C46.9599 36.21 47.3499 37.37 47.2299 38.53L47.1699 39.17C46.8899 42.09 46.4699 46.5101 43.8599 50.1101C43.5599 50.5201 43.2699 50.92 42.9899 51.3C41.1499 53.76 39.9399 55.39 39.9099 58.62V61.4501H54.6599V38.67C54.6899 34.77 56.2099 32.73 58.1299 30.15C58.4099 29.78 58.6999 29.39 58.9899 28.99C61.2799 25.83 61.6499 21.9001 61.9299 19.0401L61.9899 18.38C62.0499 17.78 61.8599 17.21 61.4499 16.76Z" fill="#0397D6"/>
  <path d="M42.2399 48.93C44.5299 45.78 44.8999 41.85 45.1799 38.98L45.2399 38.33C45.2999 37.73 45.1099 37.15 44.6999 36.71C44.2999 36.28 43.7699 36.03 43.1599 36.05C42.2599 36.07 41.4699 36.68 41.2299 37.54C40.7399 39.35 40.1999 40.75 39.7299 41.8C39.7299 41.8 39.7299 41.81 39.7199 41.81C38.9799 43.45 38.3899 44.21 38.3499 44.26C38.1499 44.51 37.8399 44.66 37.5199 44.63C37.1499 44.62 28.4899 44.28 27.7199 51.45C27.6699 52 27.1799 52.39 26.6199 52.34C26.0799 52.28 25.6799 51.78 25.7399 51.24C26.4699 44.37 33.0899 42.62 36.9999 42.62H37.0499C37.2299 42.32 37.4999 41.85 37.8099 41.19V27.4C37.8099 26.14 36.7899 25.11 35.5299 25.11C34.2699 25.11 33.2599 26.14 33.2599 27.4V39.89C33.2599 40.45 32.8099 40.89 32.2599 40.89C31.7099 40.89 31.2599 40.45 31.2599 39.89V24.79C31.2599 23.53 30.2399 22.5 28.9799 22.5C27.7199 22.5 26.7099 23.53 26.7099 24.79V39.89C26.7099 40.45 26.2599 40.89 25.7099 40.89C25.1599 40.89 24.7099 40.45 24.7099 39.89V29.77C24.7099 28.51 23.6899 27.48 22.4399 27.48C21.1899 27.48 20.1599 28.51 20.1599 29.77V44.31C20.1599 47.52 20.8999 50.74 22.2799 53.63C22.3399 53.77 22.3799 53.92 22.3799 54.07V61.45H37.9099V58.62C37.9399 54.72 39.4599 52.68 41.3799 50.1C41.6599 49.73 41.9499 49.34 42.2399 48.93Z" fill="#0397D6"/>
  <path d="M18.1599 29.9899C18.1599 29.9899 18.1599 29.9799 18.1599 29.9699C15.4799 26.5299 9.79989 26.7599 9.73989 26.7599C9.41989 26.7799 9.10989 26.6399 8.90989 26.3899C8.86989 26.3399 8.27989 25.5899 7.53989 23.9499C7.53989 23.9499 7.53655 23.9433 7.52989 23.9299C7.05989 22.8899 6.51989 21.4799 6.02989 19.6699C5.79989 18.8099 4.99989 18.1999 4.09989 18.1799C3.52989 18.1599 2.95989 18.4099 2.55989 18.8399C2.14989 19.2899 1.95989 19.8599 2.01989 20.4599L2.07989 21.1199C2.35989 23.9799 2.72989 27.9099 5.01989 31.0699C5.30989 31.4699 5.59989 31.8599 5.87989 32.2299C7.79989 34.8099 9.31989 36.85 9.34989 40.74V61.4499H20.3899V54.2899C18.9399 51.1899 18.1699 47.74 18.1699 44.3099V29.9899H18.1599Z" fill="#0397D6"/>
</svg>