<svg xmlns="http://www.w3.org/2000/svg" width="20" height="19" viewBox="0 0 20 19" fill="none">
  <path d="M9.93007 1.57617C14.4998 1.57617 18.2045 5.105 18.2045 9.45803C18.2045 13.811 14.4998 17.3399 9.93007 17.3399C8.41263 17.3399 6.9906 16.9508 5.76794 16.2717L1.65913 17.3399L2.77779 13.4238C2.06439 12.2589 1.65567 10.904 1.65567 9.45803C1.65567 5.105 5.36024 1.57617 9.93007 1.57617ZM6.94411 5.76012C6.83705 5.76729 6.73208 5.7922 6.63651 5.83877C6.56481 5.87371 6.49825 5.92421 6.39367 6.01828C6.29492 6.1071 6.23768 6.18467 6.17738 6.25946C5.87148 6.63885 5.70707 7.10455 5.71012 7.58292C5.71178 7.96962 5.81723 8.34543 5.98376 8.69633C6.32146 9.40791 6.87838 10.1601 7.61402 10.8578C7.79073 11.0253 7.96385 11.1947 8.15053 11.3513C9.06358 12.1171 10.1517 12.6693 11.3282 12.964C11.3282 12.964 11.7916 13.0318 11.7983 13.0322C11.9518 13.0401 12.1051 13.0295 12.2587 13.0221C12.4998 13.0102 12.7351 12.9481 12.9481 12.8401C13.085 12.7706 13.1498 12.7361 13.2647 12.6671C13.2647 12.6671 13.3 12.6444 13.368 12.5961C13.4797 12.5168 13.5487 12.461 13.6416 12.3691C13.7101 12.3013 13.7691 12.2213 13.8146 12.131C13.8793 12.0024 13.9444 11.7569 13.9703 11.553C13.9901 11.3972 13.9841 11.3121 13.982 11.2594C13.9784 11.1745 13.9048 11.0873 13.8242 11.0502L13.3431 10.8442C13.3431 10.8442 12.6236 10.546 12.1836 10.3548C12.1378 10.3348 12.0876 10.3256 12.0372 10.3227C11.9268 10.3162 11.8031 10.3436 11.7245 10.4226C11.7203 10.421 11.6655 10.4661 11.0669 11.157C11.0339 11.1946 10.9565 11.2763 10.8227 11.2687C10.8025 11.2673 10.7824 11.2646 10.7628 11.2597C10.7086 11.246 10.6558 11.2281 10.6042 11.2073C10.5018 11.1659 10.4659 11.1502 10.396 11.1215C9.91832 10.9227 9.47994 10.6568 9.09245 10.3313C8.98853 10.2442 8.89188 10.1503 8.79226 10.0583C8.44457 9.73729 8.15992 9.39585 7.94817 9.05905C7.93661 9.04069 7.91879 9.01413 7.8996 8.98441C7.86496 8.93074 7.82675 8.86689 7.81476 8.82307C7.78401 8.70713 7.8656 8.61397 7.8656 8.61397C7.8656 8.61397 8.067 8.40423 8.16058 8.29018C8.2506 8.18038 8.32831 8.07303 8.3778 7.9965C8.47527 7.84724 8.50613 7.69299 8.45491 7.57398C8.22277 7.03487 7.98326 6.49868 7.73642 5.96553C7.6877 5.86032 7.54279 5.78387 7.41101 5.76938C7.36638 5.76447 7.32178 5.75953 7.27696 5.75673C7.16604 5.75157 7.05489 5.75271 6.94411 5.76012Z" fill="#C6DBE0"/>
</svg>