<svg xmlns="http://www.w3.org/2000/svg" width="73" height="73" viewBox="0 0 73 73" fill="none">
  <path fill-rule="evenodd" clip-rule="evenodd" d="M28.8537 50.8324C28.2257 49.707 27.0193 47.3753 26.761 47.0861C26.0902 46.3349 25.0871 45.937 23.7523 45.8928C23.7399 45.8924 23.7293 45.8935 23.7172 45.8964C21.9086 46.3343 20.4401 44.7614 19.3121 41.1776C19.2942 41.1203 19.3162 41.0603 19.3669 41.0284C21.5228 39.6662 22.7525 38.8893 23.0556 38.6978C23.1014 38.6687 23.1237 38.6176 23.114 38.5643C22.2474 33.7929 24.3985 31.6969 29.5669 32.2765C29.6283 32.2835 29.685 32.2476 29.7048 32.1889C30.5256 29.7687 31.0336 28.2709 31.2288 27.6955C31.2645 27.5904 31.4081 27.5756 31.4644 27.6713L35.6872 34.8432C35.7104 34.8825 35.7119 34.9272 35.6913 34.9679C33.195 39.9135 30.9832 45.6252 29.0899 50.8133C29.0516 50.9178 28.9078 50.9294 28.8537 50.8324ZM29.0699 12.1864C30.523 10.7437 31.2591 8.68294 31.278 6.00428C31.2815 5.36742 30.6794 4.90139 30.0652 5.05703L30.0644 5.05396C27.2119 5.77958 25.0893 6.8337 23.6968 8.21618C22.2733 9.62931 21.6176 11.3464 21.7291 13.3673C21.7414 13.5925 18.7274 20.7225 18.6093 20.8234C8.171 29.7459 6.05604 46.7752 15.5879 58.3949C18.92 62.4568 23.3762 65.597 30.1806 67.194C43.0284 70.2094 59.011 64.4062 62.9616 50.8822C63.705 48.3373 63.6976 46.8967 62.9393 46.5603C60.8828 45.6481 59.4231 49.6116 58.7066 50.8999C55.6623 56.3731 52.357 58.493 49.4979 59.097C49.3843 59.121 49.2986 58.9959 49.3618 58.8986C50.1714 57.6532 50.7418 56.4949 51.3213 55.6167C53.8328 51.8115 51.5327 51.2882 50.4723 51.5801C49.5201 51.8423 48.9904 53.0439 47.8906 54.2694C44.8078 57.7048 41.7552 60.7058 37.9363 61.2215C37.9325 61.2221 37.9295 61.2224 37.9257 61.2225C28.0342 61.742 22.4732 58.8214 18.7707 52.9553C12.5047 43.0274 13.9523 30.5581 23.4724 23.159C23.4741 23.1577 23.4757 23.1565 23.4775 23.1552C26.7441 20.8633 29.7771 19.3398 33.3999 18.9145C38.0359 18.3703 42.7453 19.1906 47.9627 21.7015C47.9988 21.7188 48.0227 21.7485 48.0325 21.7873C49.54 27.7894 54.2131 29.5786 60.9323 28.8077C61.0084 28.799 61.0604 28.7277 61.0453 28.6527C59.3939 20.333 55.6124 17.1477 49.7007 19.0965C49.6607 19.1098 49.6207 19.1041 49.5861 19.0803C44.9069 15.8653 39.9844 14.7577 35.3302 14.8186C35.2166 14.82 35.1557 14.686 35.2317 14.6015C36.2045 13.5177 37.482 12.4071 38.7459 11.737C38.7925 11.7123 38.8459 11.7171 38.8874 11.7497C43.4319 15.3214 48.711 13.2938 53.3652 9.73034C53.947 9.2849 53.8332 8.44832 53.2384 8.0985C52.1837 7.49056 51.1861 6.98452 50.2462 6.58054C47.6075 5.44656 45.3274 5.06564 43.4061 5.43765C41.3913 5.82776 39.8114 7.01357 38.6669 8.9945L38.6653 8.99348C38.521 9.24329 38.3856 9.50156 38.259 9.76816C38.2455 9.79634 38.2255 9.81634 38.1974 9.82977C36.0199 10.8686 33.7528 13.0432 32.4987 14.9488C32.4768 14.9823 32.4444 15.0021 32.4047 15.0066C28.603 15.4408 25.2276 16.4963 22.0814 18.3468C21.9738 18.41 21.8468 18.2985 21.8956 18.1837L23.3769 14.5409C23.3952 14.4933 23.4365 14.4623 23.4871 14.458C25.8951 14.2479 27.7562 13.4906 29.0699 12.1864ZM28.551 58.2275C28.527 58.2971 28.5647 58.3719 28.6349 58.394C31.3635 59.2573 34.4214 59.4439 37.7383 59.2756C37.7427 59.2753 37.7464 59.275 37.7507 59.2744C41.1952 58.7666 44.2371 55.4154 46.4363 52.9646C46.6046 52.7771 46.7632 52.5815 46.9174 52.3829C46.9482 52.3434 46.9537 52.2933 46.9324 52.2479C45.8933 50.0259 45.7066 47.767 46.3726 45.4713C46.3871 45.4215 46.4269 45.3868 46.4782 45.379C54.2006 44.1929 57.2428 40.5133 55.6048 34.3408C55.5883 34.2783 55.5296 34.2379 55.4654 34.2446C55.1442 34.2778 54.1228 34.3835 52.401 34.5616L44.9382 33.8017C44.8874 33.7965 44.8468 33.765 44.8291 33.717C44.693 33.3463 44.0606 31.6247 42.9318 28.5524C42.9035 28.4753 42.8123 28.443 42.7419 28.4857C39.3433 30.5537 34.6129 40.4687 28.551 58.2275Z" fill="#9FCF67"/>
</svg>