<svg xmlns="http://www.w3.org/2000/svg" width="20" height="19" viewBox="0 0 20 19" fill="none">
  <path d="M10.1311 3.15283C10.573 3.15515 11.6787 3.16533 12.8535 3.21016L13.27 3.22746C14.4529 3.2808 15.6347 3.37193 16.2209 3.52761C17.0027 3.73684 17.6172 4.34733 17.8249 5.12119C18.1557 6.35004 18.197 8.74848 18.2022 9.3289L18.2029 9.44918V9.45761C18.2029 9.45761 18.2029 9.46053 18.2029 9.46612L18.2022 9.5864C18.197 10.1668 18.1557 12.5653 17.8249 13.7941C17.6143 14.5708 16.9998 15.1813 16.2209 15.3877C15.6347 15.5434 14.4529 15.6345 13.27 15.6878L12.8535 15.7051C11.6787 15.7499 10.573 15.7601 10.1311 15.7625L9.93712 15.7631H9.92851C9.92851 15.7631 9.92562 15.7631 9.91991 15.7631L9.72612 15.7625C8.79079 15.7576 4.88 15.7173 3.63619 15.3877C2.85433 15.1784 2.23981 14.568 2.03208 13.7941C1.70138 12.5653 1.66004 10.1668 1.65488 9.5864V9.3289C1.66004 8.74848 1.70138 6.35004 2.03208 5.12119C2.24269 4.34446 2.85721 3.73398 3.63619 3.52761C4.88 3.19794 8.79079 3.15773 9.72612 3.15283H10.1311ZM8.27365 6.69899V12.2163L13.2383 9.45761L8.27365 6.69899Z" fill="#C6DBE0"/>
</svg>